<?xml version="1.0" encoding="UTF-8" standalone="yes"?>
<!DOCTYPE svg PUBLIC "-//W3C//DTD SVG 1.0//EN" "http://www.w3.org/TR/2001/REC-SVG-20010904/DTD/svg10.dtd">
<svg height="830" width="830" xmlns="http://www.w3.org/2000/svg" xmlns:svg="http://www.w3.org/2000/svg" xmlns:xlink="http://www.w3.org/1999/xlink">
	<style><![CDATA[    rect.odd      {fill: brown;}
    rect.even     {fill: rgb(232,235,239);}
    text          {text-anchor: middle;}
    text.text     {font-size: 40px;}
    text.number   {font-size: 20px;}
    circle.target {fill: black;}
]]></style>
	<rect class="even" height="60" width="60" x="50" y="50" />
	<rect class="odd" height="60" width="60" x="110" y="50" />
	<rect class="even" height="60" width="60" x="170" y="50" />
	<rect class="odd" height="60" width="60" x="230" y="50" />
	<rect class="even" height="60" width="60" x="290" y="50" />
	<rect class="odd" height="60" width="60" x="350" y="50" />
	<rect class="even" height="60" width="60" x="410" y="50" />
	<rect class="odd" height="60" width="60" x="470" y="50" />
	<rect class="even" height="60" width="60" x="530" y="50" />
	<rect class="odd" height="60" width="60" x="590" y="50" />
	<rect class="even" height="60" width="60" x="650" y="50" />
	<rect class="odd" height="60" width="60" x="710" y="50" />
	<rect class="even" height="60" width="60" x="770" y="50" />
	<rect class="odd" height="60" width="60" x="50" y="110" />
	<rect class="even" height="60" width="60" x="110" y="110" />
	<rect class="odd" height="60" width="60" x="170" y="110" />
	<rect class="even" height="60" width="60" x="230" y="110" />
	<rect class="odd" height="60" width="60" x="290" y="110" />
	<rect class="even" height="60" width="60" x="350" y="110" />
	<rect class="odd" height="60" width="60" x="410" y="110" />
	<rect class="even" height="60" width="60" x="470" y="110" />
	<rect class="odd" height="60" width="60" x="530" y="110" />
	<rect class="even" height="60" width="60" x="590" y="110" />
	<rect class="odd" height="60" width="60" x="650" y="110" />
	<rect class="even" height="60" width="60" x="710" y="110" />
	<rect class="odd" height="60" width="60" x="770" y="110" />
	<rect class="even" height="60" width="60" x="50" y="170" />
	<rect class="odd" height="60" width="60" x="110" y="170" />
	<rect class="even" height="60" width="60" x="170" y="170" />
	<rect class="odd" height="60" width="60" x="230" y="170" />
	<rect class="even" height="60" width="60" x="290" y="170" />
	<rect class="odd" height="60" width="60" x="350" y="170" />
	<rect class="even" height="60" width="60" x="410" y="170" />
	<rect class="odd" height="60" width="60" x="470" y="170" />
	<rect class="even" height="60" width="60" x="530" y="170" />
	<rect class="odd" height="60" width="60" x="590" y="170" />
	<rect class="even" height="60" width="60" x="650" y="170" />
	<rect class="odd" height="60" width="60" x="710" y="170" />
	<rect class="even" height="60" width="60" x="770" y="170" />
	<rect class="odd" height="60" width="60" x="50" y="230" />
	<rect class="even" height="60" width="60" x="110" y="230" />
	<rect class="odd" height="60" width="60" x="170" y="230" />
	<rect class="even" height="60" width="60" x="230" y="230" />
	<rect class="odd" height="60" width="60" x="290" y="230" />
	<rect class="even" height="60" width="60" x="350" y="230" />
	<rect class="odd" height="60" width="60" x="410" y="230" />
	<rect class="even" height="60" width="60" x="470" y="230" />
	<rect class="odd" height="60" width="60" x="530" y="230" />
	<rect class="even" height="60" width="60" x="590" y="230" />
	<rect class="odd" height="60" width="60" x="650" y="230" />
	<rect class="even" height="60" width="60" x="710" y="230" />
	<rect class="odd" height="60" width="60" x="770" y="230" />
	<rect class="even" height="60" width="60" x="50" y="290" />
	<rect class="odd" height="60" width="60" x="110" y="290" />
	<rect class="even" height="60" width="60" x="170" y="290" />
	<rect class="odd" height="60" width="60" x="230" y="290" />
	<rect class="even" height="60" width="60" x="290" y="290" />
	<rect class="odd" height="60" width="60" x="350" y="290" />
	<rect class="even" height="60" width="60" x="410" y="290" />
	<rect class="odd" height="60" width="60" x="470" y="290" />
	<rect class="even" height="60" width="60" x="530" y="290" />
	<rect class="odd" height="60" width="60" x="590" y="290" />
	<rect class="even" height="60" width="60" x="650" y="290" />
	<rect class="odd" height="60" width="60" x="710" y="290" />
	<rect class="even" height="60" width="60" x="770" y="290" />
	<rect class="odd" height="60" width="60" x="50" y="350" />
	<rect class="even" height="60" width="60" x="110" y="350" />
	<rect class="odd" height="60" width="60" x="170" y="350" />
	<rect class="even" height="60" width="60" x="230" y="350" />
	<rect class="odd" height="60" width="60" x="290" y="350" />
	<rect class="even" height="60" width="60" x="350" y="350" />
	<rect class="odd" height="60" width="60" x="410" y="350" />
	<rect class="even" height="60" width="60" x="470" y="350" />
	<rect class="odd" height="60" width="60" x="530" y="350" />
	<rect class="even" height="60" width="60" x="590" y="350" />
	<rect class="odd" height="60" width="60" x="650" y="350" />
	<rect class="even" height="60" width="60" x="710" y="350" />
	<rect class="odd" height="60" width="60" x="770" y="350" />
	<rect class="even" height="60" width="60" x="50" y="410" />
	<rect class="odd" height="60" width="60" x="110" y="410" />
	<rect class="even" height="60" width="60" x="170" y="410" />
	<rect class="odd" height="60" width="60" x="230" y="410" />
	<rect class="even" height="60" width="60" x="290" y="410" />
	<rect class="odd" height="60" width="60" x="350" y="410" />
	<rect class="even" height="60" width="60" x="410" y="410" />
	<rect class="odd" height="60" width="60" x="470" y="410" />
	<rect class="even" height="60" width="60" x="530" y="410" />
	<rect class="odd" height="60" width="60" x="590" y="410" />
	<rect class="even" height="60" width="60" x="650" y="410" />
	<rect class="odd" height="60" width="60" x="710" y="410" />
	<rect class="even" height="60" width="60" x="770" y="410" />
	<rect class="odd" height="60" width="60" x="50" y="470" />
	<rect class="even" height="60" width="60" x="110" y="470" />
	<rect class="odd" height="60" width="60" x="170" y="470" />
	<rect class="even" height="60" width="60" x="230" y="470" />
	<rect class="odd" height="60" width="60" x="290" y="470" />
	<rect class="even" height="60" width="60" x="350" y="470" />
	<rect class="odd" height="60" width="60" x="410" y="470" />
	<rect class="even" height="60" width="60" x="470" y="470" />
	<rect class="odd" height="60" width="60" x="530" y="470" />
	<rect class="even" height="60" width="60" x="590" y="470" />
	<rect class="odd" height="60" width="60" x="650" y="470" />
	<rect class="even" height="60" width="60" x="710" y="470" />
	<rect class="odd" height="60" width="60" x="770" y="470" />
	<rect class="even" height="60" width="60" x="50" y="530" />
	<rect class="odd" height="60" width="60" x="110" y="530" />
	<rect class="even" height="60" width="60" x="170" y="530" />
	<rect class="odd" height="60" width="60" x="230" y="530" />
	<rect class="even" height="60" width="60" x="290" y="530" />
	<rect class="odd" height="60" width="60" x="350" y="530" />
	<rect class="even" height="60" width="60" x="410" y="530" />
	<rect class="odd" height="60" width="60" x="470" y="530" />
	<rect class="even" height="60" width="60" x="530" y="530" />
	<rect class="odd" height="60" width="60" x="590" y="530" />
	<rect class="even" height="60" width="60" x="650" y="530" />
	<rect class="odd" height="60" width="60" x="710" y="530" />
	<rect class="even" height="60" width="60" x="770" y="530" />
	<rect class="odd" height="60" width="60" x="50" y="590" />
	<rect class="even" height="60" width="60" x="110" y="590" />
	<rect class="odd" height="60" width="60" x="170" y="590" />
	<rect class="even" height="60" width="60" x="230" y="590" />
	<rect class="odd" height="60" width="60" x="290" y="590" />
	<rect class="even" height="60" width="60" x="350" y="590" />
	<rect class="odd" height="60" width="60" x="410" y="590" />
	<rect class="even" height="60" width="60" x="470" y="590" />
	<rect class="odd" height="60" width="60" x="530" y="590" />
	<rect class="even" height="60" width="60" x="590" y="590" />
	<rect class="odd" height="60" width="60" x="650" y="590" />
	<rect class="even" height="60" width="60" x="710" y="590" />
	<rect class="odd" height="60" width="60" x="770" y="590" />
	<rect class="even" height="60" width="60" x="50" y="650" />
	<rect class="odd" height="60" width="60" x="110" y="650" />
	<rect class="even" height="60" width="60" x="170" y="650" />
	<rect class="odd" height="60" width="60" x="230" y="650" />
	<rect class="even" height="60" width="60" x="290" y="650" />
	<rect class="odd" height="60" width="60" x="350" y="650" />
	<rect class="even" height="60" width="60" x="410" y="650" />
	<rect class="odd" height="60" width="60" x="470" y="650" />
	<rect class="even" height="60" width="60" x="530" y="650" />
	<rect class="odd" height="60" width="60" x="590" y="650" />
	<rect class="even" height="60" width="60" x="650" y="650" />
	<rect class="odd" height="60" width="60" x="710" y="650" />
	<rect class="even" height="60" width="60" x="770" y="650" />
	<rect class="odd" height="60" width="60" x="50" y="710" />
	<rect class="even" height="60" width="60" x="110" y="710" />
	<rect class="odd" height="60" width="60" x="170" y="710" />
	<rect class="even" height="60" width="60" x="230" y="710" />
	<rect class="odd" height="60" width="60" x="290" y="710" />
	<rect class="even" height="60" width="60" x="350" y="710" />
	<rect class="odd" height="60" width="60" x="410" y="710" />
	<rect class="even" height="60" width="60" x="470" y="710" />
	<rect class="odd" height="60" width="60" x="530" y="710" />
	<rect class="even" height="60" width="60" x="590" y="710" />
	<rect class="odd" height="60" width="60" x="650" y="710" />
	<rect class="even" height="60" width="60" x="710" y="710" />
	<rect class="odd" height="60" width="60" x="770" y="710" />
	<rect class="even" height="60" width="60" x="50" y="770" />
	<rect class="odd" height="60" width="60" x="110" y="770" />
	<rect class="even" height="60" width="60" x="170" y="770" />
	<rect class="odd" height="60" width="60" x="230" y="770" />
	<rect class="even" height="60" width="60" x="290" y="770" />
	<rect class="odd" height="60" width="60" x="350" y="770" />
	<rect class="even" height="60" width="60" x="410" y="770" />
	<rect class="odd" height="60" width="60" x="470" y="770" />
	<rect class="even" height="60" width="60" x="530" y="770" />
	<rect class="odd" height="60" width="60" x="590" y="770" />
	<rect class="even" height="60" width="60" x="650" y="770" />
	<rect class="odd" height="60" width="60" x="710" y="770" />
	<rect class="even" height="60" width="60" x="770" y="770" />
	<!--
	Generated using the Perl SVG Module V2.84
	by Ronan Oger
	Info: http://www.roitsystems.com/
	-->
	<text class="number" id="text-1" x="440" y="445">1</text>
	<text class="number" id="text-2" x="500" y="445">2</text>
	<text class="number" id="text-3" x="500" y="385">3</text>
	<text class="number" id="text-4" x="440" y="385">4</text>
	<text class="number" id="text-5" x="380" y="385">5</text>
	<text class="number" id="text-6" x="380" y="445">6</text>
	<text class="number" id="text-7" x="380" y="505">7</text>
	<text class="number" id="text-8" x="440" y="505">8</text>
	<text class="number" id="text-9" x="500" y="505">9</text>
	<text class="number" id="text-10" x="560" y="505">10</text>
	<text class="number" id="text-11" x="560" y="445">11</text>
	<text class="number" id="text-12" x="560" y="385">12</text>
	<text class="number" id="text-13" x="560" y="325">13</text>
	<text class="number" id="text-14" x="500" y="325">14</text>
	<text class="number" id="text-15" x="440" y="325">15</text>
	<text class="number" id="text-16" x="380" y="325">16</text>
	<text class="number" id="text-17" x="320" y="325">17</text>
	<text class="number" id="text-18" x="320" y="385">18</text>
	<text class="number" id="text-19" x="320" y="445">19</text>
	<text class="number" id="text-20" x="320" y="505">20</text>
	<text class="number" id="text-21" x="320" y="565">21</text>
	<text class="number" id="text-22" x="380" y="565">22</text>
	<text class="number" id="text-23" x="440" y="565">23</text>
	<text class="number" id="text-24" x="500" y="565">24</text>
	<text class="number" id="text-25" x="560" y="565">25</text>
	<text class="number" id="text-26" x="620" y="565">26</text>
	<text class="number" id="text-27" x="620" y="505">27</text>
	<text class="number" id="text-28" x="620" y="445">28</text>
	<text class="number" id="text-29" x="620" y="385">29</text>
	<text class="number" id="text-30" x="620" y="325">30</text>
	<text class="number" id="text-31" x="620" y="265">31</text>
	<text class="number" id="text-32" x="560" y="265">32</text>
	<text class="number" id="text-33" x="500" y="265">33</text>
	<text class="number" id="text-34" x="440" y="265">34</text>
	<text class="number" id="text-35" x="380" y="265">35</text>
	<text class="number" id="text-36" x="320" y="265">36</text>
	<text class="number" id="text-37" x="260" y="265">37</text>
	<text class="number" id="text-38" x="260" y="325">38</text>
	<text class="number" id="text-39" x="260" y="385">39</text>
	<text class="number" id="text-40" x="260" y="445">40</text>
	<text class="number" id="text-41" x="260" y="505">41</text>
	<text class="number" id="text-42" x="260" y="565">42</text>
	<text class="number" id="text-43" x="260" y="625">43</text>
	<text class="number" id="text-44" x="320" y="625">44</text>
	<text class="number" id="text-45" x="380" y="625">45</text>
	<text class="number" id="text-46" x="440" y="625">46</text>
	<text class="number" id="text-47" x="500" y="625">47</text>
	<text class="number" id="text-48" x="560" y="625">48</text>
	<text class="number" id="text-49" x="620" y="625">49</text>
</svg>