
<svg height="100%" style="    display:    block;
    border:     1px solid #ccc;
    position:   absolute;
    top:        5%;
    left:       5%;
    width:      90%;
    height:     90%;
    background: #fff;
" viewBox="-1 -41 22 42" width="100%" xmlns="http://www.w3.org/2000/svg" xmlns:svg="http://www.w3.org/2000/svg" xmlns:xlink="http://www.w3.org/1999/xlink">
	<path class="path" d="M 0 0 " id="path-257" style="stroke: rgb(0,0,0)" />
	<path class="path" d="M 0 0  L  1 -2 " id="path-258" style="stroke: rgb(0,0,0)" />
	<circle cx="1" cy="-2" r="0.125" style="fill: rgb(0,0,0)" />
	<path class="path" d="M 1 -2 " id="path-259" style="stroke: rgb(0,0,0)" />
	<path class="path" d="M 1 -2 " id="path-260" style="stroke: rgb(0,0,0)" />
	<path class="path" d="M 1 -2  L  2 -4 " id="path-261" style="stroke: rgb(0,0,0)" />
	<circle cx="2" cy="-4" r="0.125" style="fill: rgb(0,0,0)" />
	<path class="path" d="M 2 -4 " id="path-262" style="stroke: rgb(0,0,0)" />
	<path class="path" d="M 2 -4 " id="path-263" style="stroke: rgb(0,0,0)" />
	<path class="path" d="M 2 -4  L  3 -6 " id="path-264" style="stroke: rgb(0,0,0)" />
	<circle cx="3" cy="-6" r="0.125" style="fill: rgb(0,0,0)" />
	<path class="path" d="M 3 -6 " id="path-265" style="stroke: rgb(0,0,0)" />
	<path class="path" d="M 3 -6 " id="path-266" style="stroke: rgb(0,0,0)" />
	<path class="path" d="M 3 -6 " id="path-267" style="stroke: rgb(0,0,0)" />
	<path class="path" d="M 3 -6  L  4 -8 " id="path-268" style="stroke: rgb(0,0,0)" />
	<circle cx="4" cy="-8" r="0.125" style="fill: rgb(0,0,0)" />
	<path class="path" d="M 4 -8 " id="path-269" style="stroke: rgb(0,0,0)" />
	<path class="path" d="M 4 -8 " id="path-270" style="stroke: rgb(0,0,0)" />
	<path class="path" d="M 4 -8  L  5 -10 " id="path-271" style="stroke: rgb(0,0,0)" />
	<circle cx="5" cy="-10" r="0.125" style="fill: rgb(0,0,0)" />
	<path class="path" d="M 5 -10 " id="path-272" style="stroke: rgb(0,0,0)" />
	<path class="path" d="M 5 -10 " id="path-273" style="stroke: rgb(0,0,0)" />
	<path class="path" d="M 5 -10  L  6 -12 " id="path-274" style="stroke: rgb(0,0,0)" />
	<circle cx="6" cy="-12" r="0.125" style="fill: rgb(0,0,0)" />
	<path class="path" d="M 6 -12 " id="path-275" style="stroke: rgb(0,0,0)" />
	<path class="path" d="M 6 -12 " id="path-276" style="stroke: rgb(0,0,0)" />
	<path class="path" d="M 6 -12  L  7 -14 " id="path-277" style="stroke: rgb(0,0,0)" />
	<circle cx="7" cy="-14" r="0.125" style="fill: rgb(0,0,0)" />
	<path class="path" d="M 7 -14 " id="path-278" style="stroke: rgb(0,0,0)" />
	<path class="path" d="M 7 -14 " id="path-279" style="stroke: rgb(0,0,0)" />
	<path class="path" d="M 7 -14  L  8 -16 " id="path-280" style="stroke: rgb(0,0,0)" />
	<circle cx="8" cy="-16" r="0.125" style="fill: rgb(0,0,0)" />
	<path class="path" d="M 8 -16 " id="path-281" style="stroke: rgb(0,0,0)" />
	<path class="path" d="M 8 -16 " id="path-282" style="stroke: rgb(0,0,0)" />
	<path class="path" d="M 8 -16 " id="path-283" style="stroke: rgb(0,0,0)" />
	<path class="path" d="M 8 -16  L  9 -18 " id="path-284" style="stroke: rgb(0,0,0)" />
	<circle cx="9" cy="-18" r="0.125" style="fill: rgb(0,0,0)" />
	<path class="path" d="M 9 -18 " id="path-285" style="stroke: rgb(0,0,0)" />
	<path class="path" d="M 9 -18 " id="path-286" style="stroke: rgb(0,0,0)" />
	<path class="path" d="M 9 -18  L  10 -20 " id="path-287" style="stroke: rgb(0,0,0)" />
	<circle cx="10" cy="-20" r="0.125" style="fill: rgb(0,0,0)" />
	<path class="path" d="M 10 -20 " id="path-288" style="stroke: rgb(0,0,0)" />
	<path class="path" d="M 10 -20 " id="path-289" style="stroke: rgb(0,0,0)" />
	<path class="path" d="M 10 -20  L  11 -22 " id="path-290" style="stroke: rgb(0,0,0)" />
	<circle cx="11" cy="-22" r="0.125" style="fill: rgb(0,0,0)" />
	<path class="path" d="M 11 -22 " id="path-291" style="stroke: rgb(0,0,0)" />
	<path class="path" d="M 11 -22 " id="path-292" style="stroke: rgb(0,0,0)" />
	<path class="path" d="M 11 -22  L  12 -24 " id="path-293" style="stroke: rgb(0,0,0)" />
	<circle cx="12" cy="-24" r="0.125" style="fill: rgb(0,0,0)" />
	<path class="path" d="M 12 -24 " id="path-294" style="stroke: rgb(0,0,0)" />
	<path class="path" d="M 12 -24 " id="path-295" style="stroke: rgb(0,0,0)" />
	<path class="path" d="M 12 -24  L  13 -26 " id="path-296" style="stroke: rgb(0,0,0)" />
	<circle cx="13" cy="-26" r="0.125" style="fill: rgb(0,0,0)" />
	<path class="path" d="M 13 -26 " id="path-297" style="stroke: rgb(0,0,0)" />
	<path class="path" d="M 13 -26 " id="path-298" style="stroke: rgb(0,0,0)" />
	<path class="path" d="M 13 -26 " id="path-299" style="stroke: rgb(0,0,0)" />
	<path class="path" d="M 13 -26  L  14 -28 " id="path-300" style="stroke: rgb(0,0,0)" />
	<circle cx="14" cy="-28" r="0.125" style="fill: rgb(0,0,0)" />
	<path class="path" d="M 14 -28 " id="path-301" style="stroke: rgb(0,0,0)" />
	<path class="path" d="M 14 -28 " id="path-302" style="stroke: rgb(0,0,0)" />
	<path class="path" d="M 14 -28  L  15 -30 " id="path-303" style="stroke: rgb(0,0,0)" />
	<circle cx="15" cy="-30" r="0.125" style="fill: rgb(0,0,0)" />
	<path class="path" d="M 15 -30 " id="path-304" style="stroke: rgb(0,0,0)" />
	<path class="path" d="M 15 -30 " id="path-305" style="stroke: rgb(0,0,0)" />
	<path class="path" d="M 15 -30  L  16 -32 " id="path-306" style="stroke: rgb(0,0,0)" />
	<circle cx="16" cy="-32" r="0.125" style="fill: rgb(0,0,0)" />
	<path class="path" d="M 16 -32 " id="path-307" style="stroke: rgb(0,0,0)" />
	<path class="path" d="M 16 -32 " id="path-308" style="stroke: rgb(0,0,0)" />
	<path class="path" d="M 16 -32  L  17 -34 " id="path-309" style="stroke: rgb(0,0,0)" />
	<circle cx="17" cy="-34" r="0.125" style="fill: rgb(0,0,0)" />
	<path class="path" d="M 17 -34 " id="path-310" style="stroke: rgb(0,0,0)" />
	<path class="path" d="M 17 -34 " id="path-311" style="stroke: rgb(0,0,0)" />
	<path class="path" d="M 17 -34  L  18 -36 " id="path-312" style="stroke: rgb(0,0,0)" />
	<circle cx="18" cy="-36" r="0.125" style="fill: rgb(0,0,0)" />
	<path class="path" d="M 18 -36 " id="path-313" style="stroke: rgb(0,0,0)" />
	<path class="path" d="M 18 -36 " id="path-314" style="stroke: rgb(0,0,0)" />
	<path class="path" d="M 18 -36 " id="path-315" style="stroke: rgb(0,0,0)" />
	<path class="path" d="M 18 -36  L  19 -38 " id="path-316" style="stroke: rgb(0,0,0)" />
	<circle cx="19" cy="-38" r="0.125" style="fill: rgb(0,0,0)" />
	<path class="path" d="M 19 -38 " id="path-317" style="stroke: rgb(0,0,0)" />
	<path class="path" d="M 19 -38 " id="path-318" style="stroke: rgb(0,0,0)" />
	<path class="path" d="M 19 -38  L  20 -40 " id="path-319" style="stroke: rgb(0,0,0)" />
	<circle cx="20" cy="-40" r="0.125" style="fill: rgb(0,0,0)" />
	<path class="path" d="M 20 -40 " id="path-320" style="stroke: rgb(0,0,0)" />
	<circle class="terminal terminal-start" cx="0" cy="0" r="0.25" />
	<circle class="terminal terminal-finish" cx="20" cy="-40" r="0.25" />
	<style><![CDATA[    circle.terminal  {fill:          black;}
    circle.unvisited {fill:          rgb(200,200,200);
                      opacity:      .5,}
    path.path        {fill-opacity:  0;
                      opacity:      .5;
                      stroke-width: .1;}
]]></style>
	<style><![CDATA[    svg                     {background-color: rgb(232,235,239);}
    circle.terminal-finish  {fill: blue;}
    circle.terminal-start   {fill: green;}
]]></style>
	<!--
	Generated using the Perl SVG Module V2.84
	by Ronan Oger
	Info: http://www.roitsystems.com/
	-->
</svg>