
<svg height="100%" style="    display:    block;
    border:     1px solid #ccc;
    position:   absolute;
    top:        5%;
    left:       5%;
    width:      90%;
    height:     90%;
    background: #fff;
" viewBox="-41 -43 86 88" width="100%" xmlns="http://www.w3.org/2000/svg" xmlns:svg="http://www.w3.org/2000/svg" xmlns:xlink="http://www.w3.org/1999/xlink">
	<path class="path" d="M 0 0  L  2 -2  L  4 0  L  2 2  L  0 4  L  -2 2  L  -4 0  L  -2 -2  L  0 -4 " id="path-321" style="stroke: rgb(0,0,0)" />
	<circle cx="2" cy="-2" r="0.125" style="fill: rgb(0,0,0)" />
	<circle cx="4" cy="0" r="0.125" style="fill: rgb(0,0,0)" />
	<circle cx="2" cy="2" r="0.125" style="fill: rgb(0,0,0)" />
	<circle cx="0" cy="4" r="0.125" style="fill: rgb(0,0,0)" />
	<circle cx="-2" cy="2" r="0.125" style="fill: rgb(0,0,0)" />
	<circle cx="-4" cy="0" r="0.125" style="fill: rgb(0,0,0)" />
	<circle cx="-2" cy="-2" r="0.125" style="fill: rgb(0,0,0)" />
	<circle cx="0" cy="-4" r="0.125" style="fill: rgb(0,0,0)" />
	<path class="path" d="M 0 -4  L  2 -6  L  4 -4  L  6 -2  L  8 0  L  6 2  L  4 4  L  2 6  L  0 8 " id="path-322" style="stroke: rgb(0,0,0)" />
	<circle cx="2" cy="-6" r="0.125" style="fill: rgb(0,0,0)" />
	<circle cx="4" cy="-4" r="0.125" style="fill: rgb(0,0,0)" />
	<circle cx="6" cy="-2" r="0.125" style="fill: rgb(0,0,0)" />
	<circle cx="8" cy="0" r="0.125" style="fill: rgb(0,0,0)" />
	<circle cx="6" cy="2" r="0.125" style="fill: rgb(0,0,0)" />
	<circle cx="4" cy="4" r="0.125" style="fill: rgb(0,0,0)" />
	<circle cx="2" cy="6" r="0.125" style="fill: rgb(0,0,0)" />
	<circle cx="0" cy="8" r="0.125" style="fill: rgb(0,0,0)" />
	<path class="path" d="M 0 8  L  -2 6  L  -4 4  L  -6 2  L  -8 0  L  -6 -2  L  -4 -4  L  -2 -6 " id="path-323" style="stroke: rgb(0,0,0)" />
	<circle cx="-2" cy="6" r="0.125" style="fill: rgb(0,0,0)" />
	<circle cx="-4" cy="4" r="0.125" style="fill: rgb(0,0,0)" />
	<circle cx="-6" cy="2" r="0.125" style="fill: rgb(0,0,0)" />
	<circle cx="-8" cy="0" r="0.125" style="fill: rgb(0,0,0)" />
	<circle cx="-6" cy="-2" r="0.125" style="fill: rgb(0,0,0)" />
	<circle cx="-4" cy="-4" r="0.125" style="fill: rgb(0,0,0)" />
	<circle cx="-2" cy="-6" r="0.125" style="fill: rgb(0,0,0)" />
	<path class="path" d="M -2 -6  L  0 -8  L  2 -10  L  4 -8  L  6 -6  L  8 -4  L  10 -2  L  12 0  L  10 2 " id="path-324" style="stroke: rgb(0,0,0)" />
	<circle cx="0" cy="-8" r="0.125" style="fill: rgb(0,0,0)" />
	<circle cx="2" cy="-10" r="0.125" style="fill: rgb(0,0,0)" />
	<circle cx="4" cy="-8" r="0.125" style="fill: rgb(0,0,0)" />
	<circle cx="6" cy="-6" r="0.125" style="fill: rgb(0,0,0)" />
	<circle cx="8" cy="-4" r="0.125" style="fill: rgb(0,0,0)" />
	<circle cx="10" cy="-2" r="0.125" style="fill: rgb(0,0,0)" />
	<circle cx="12" cy="0" r="0.125" style="fill: rgb(0,0,0)" />
	<circle cx="10" cy="2" r="0.125" style="fill: rgb(0,0,0)" />
	<path class="path" d="M 10 2  L  8 4  L  6 6  L  4 8  L  2 10  L  0 12  L  -2 10  L  -4 8  L  -6 6 " id="path-325" style="stroke: rgb(0,0,0)" />
	<circle cx="8" cy="4" r="0.125" style="fill: rgb(0,0,0)" />
	<circle cx="6" cy="6" r="0.125" style="fill: rgb(0,0,0)" />
	<circle cx="4" cy="8" r="0.125" style="fill: rgb(0,0,0)" />
	<circle cx="2" cy="10" r="0.125" style="fill: rgb(0,0,0)" />
	<circle cx="0" cy="12" r="0.125" style="fill: rgb(0,0,0)" />
	<circle cx="-2" cy="10" r="0.125" style="fill: rgb(0,0,0)" />
	<circle cx="-4" cy="8" r="0.125" style="fill: rgb(0,0,0)" />
	<circle cx="-6" cy="6" r="0.125" style="fill: rgb(0,0,0)" />
	<path class="path" d="M -6 6  L  -8 4  L  -10 2  L  -12 0  L  -10 -2  L  -8 -4  L  -6 -6  L  -4 -8  L  -2 -10 " id="path-326" style="stroke: rgb(0,0,0)" />
	<circle cx="-8" cy="4" r="0.125" style="fill: rgb(0,0,0)" />
	<circle cx="-10" cy="2" r="0.125" style="fill: rgb(0,0,0)" />
	<circle cx="-12" cy="0" r="0.125" style="fill: rgb(0,0,0)" />
	<circle cx="-10" cy="-2" r="0.125" style="fill: rgb(0,0,0)" />
	<circle cx="-8" cy="-4" r="0.125" style="fill: rgb(0,0,0)" />
	<circle cx="-6" cy="-6" r="0.125" style="fill: rgb(0,0,0)" />
	<circle cx="-4" cy="-8" r="0.125" style="fill: rgb(0,0,0)" />
	<circle cx="-2" cy="-10" r="0.125" style="fill: rgb(0,0,0)" />
	<path class="path" d="M -2 -10  L  0 -12  L  2 -14  L  4 -12  L  6 -10  L  8 -8  L  10 -6  L  12 -4  L  14 -2 " id="path-327" style="stroke: rgb(0,0,0)" />
	<circle cx="0" cy="-12" r="0.125" style="fill: rgb(0,0,0)" />
	<circle cx="2" cy="-14" r="0.125" style="fill: rgb(0,0,0)" />
	<circle cx="4" cy="-12" r="0.125" style="fill: rgb(0,0,0)" />
	<circle cx="6" cy="-10" r="0.125" style="fill: rgb(0,0,0)" />
	<circle cx="8" cy="-8" r="0.125" style="fill: rgb(0,0,0)" />
	<circle cx="10" cy="-6" r="0.125" style="fill: rgb(0,0,0)" />
	<circle cx="12" cy="-4" r="0.125" style="fill: rgb(0,0,0)" />
	<circle cx="14" cy="-2" r="0.125" style="fill: rgb(0,0,0)" />
	<path class="path" d="M 14 -2  L  16 0  L  14 2  L  12 4  L  10 6  L  8 8  L  6 10  L  4 12  L  2 14 " id="path-328" style="stroke: rgb(0,0,0)" />
	<circle cx="16" cy="0" r="0.125" style="fill: rgb(0,0,0)" />
	<circle cx="14" cy="2" r="0.125" style="fill: rgb(0,0,0)" />
	<circle cx="12" cy="4" r="0.125" style="fill: rgb(0,0,0)" />
	<circle cx="10" cy="6" r="0.125" style="fill: rgb(0,0,0)" />
	<circle cx="8" cy="8" r="0.125" style="fill: rgb(0,0,0)" />
	<circle cx="6" cy="10" r="0.125" style="fill: rgb(0,0,0)" />
	<circle cx="4" cy="12" r="0.125" style="fill: rgb(0,0,0)" />
	<circle cx="2" cy="14" r="0.125" style="fill: rgb(0,0,0)" />
	<path class="path" d="M 2 14  L  0 16  L  -2 14  L  -4 12  L  -6 10  L  -8 8  L  -10 6  L  -12 4 " id="path-329" style="stroke: rgb(0,0,0)" />
	<circle cx="0" cy="16" r="0.125" style="fill: rgb(0,0,0)" />
	<circle cx="-2" cy="14" r="0.125" style="fill: rgb(0,0,0)" />
	<circle cx="-4" cy="12" r="0.125" style="fill: rgb(0,0,0)" />
	<circle cx="-6" cy="10" r="0.125" style="fill: rgb(0,0,0)" />
	<circle cx="-8" cy="8" r="0.125" style="fill: rgb(0,0,0)" />
	<circle cx="-10" cy="6" r="0.125" style="fill: rgb(0,0,0)" />
	<circle cx="-12" cy="4" r="0.125" style="fill: rgb(0,0,0)" />
	<path class="path" d="M -12 4  L  -14 2  L  -16 0  L  -14 -2  L  -12 -4  L  -10 -6  L  -8 -8  L  -6 -10  L  -4 -12 " id="path-330" style="stroke: rgb(0,0,0)" />
	<circle cx="-14" cy="2" r="0.125" style="fill: rgb(0,0,0)" />
	<circle cx="-16" cy="0" r="0.125" style="fill: rgb(0,0,0)" />
	<circle cx="-14" cy="-2" r="0.125" style="fill: rgb(0,0,0)" />
	<circle cx="-12" cy="-4" r="0.125" style="fill: rgb(0,0,0)" />
	<circle cx="-10" cy="-6" r="0.125" style="fill: rgb(0,0,0)" />
	<circle cx="-8" cy="-8" r="0.125" style="fill: rgb(0,0,0)" />
	<circle cx="-6" cy="-10" r="0.125" style="fill: rgb(0,0,0)" />
	<circle cx="-4" cy="-12" r="0.125" style="fill: rgb(0,0,0)" />
	<path class="path" d="M -4 -12  L  -2 -14  L  0 -16  L  2 -18  L  4 -16  L  6 -14  L  8 -12  L  10 -10  L  12 -8 " id="path-331" style="stroke: rgb(0,0,0)" />
	<circle cx="-2" cy="-14" r="0.125" style="fill: rgb(0,0,0)" />
	<circle cx="0" cy="-16" r="0.125" style="fill: rgb(0,0,0)" />
	<circle cx="2" cy="-18" r="0.125" style="fill: rgb(0,0,0)" />
	<circle cx="4" cy="-16" r="0.125" style="fill: rgb(0,0,0)" />
	<circle cx="6" cy="-14" r="0.125" style="fill: rgb(0,0,0)" />
	<circle cx="8" cy="-12" r="0.125" style="fill: rgb(0,0,0)" />
	<circle cx="10" cy="-10" r="0.125" style="fill: rgb(0,0,0)" />
	<circle cx="12" cy="-8" r="0.125" style="fill: rgb(0,0,0)" />
	<path class="path" d="M 12 -8  L  14 -6  L  16 -4  L  18 -2  L  20 0  L  18 2  L  16 4  L  14 6  L  12 8 " id="path-332" style="stroke: rgb(0,0,0)" />
	<circle cx="14" cy="-6" r="0.125" style="fill: rgb(0,0,0)" />
	<circle cx="16" cy="-4" r="0.125" style="fill: rgb(0,0,0)" />
	<circle cx="18" cy="-2" r="0.125" style="fill: rgb(0,0,0)" />
	<circle cx="20" cy="0" r="0.125" style="fill: rgb(0,0,0)" />
	<circle cx="18" cy="2" r="0.125" style="fill: rgb(0,0,0)" />
	<circle cx="16" cy="4" r="0.125" style="fill: rgb(0,0,0)" />
	<circle cx="14" cy="6" r="0.125" style="fill: rgb(0,0,0)" />
	<circle cx="12" cy="8" r="0.125" style="fill: rgb(0,0,0)" />
	<path class="path" d="M 12 8  L  10 10  L  8 12  L  6 14  L  4 16  L  2 18  L  0 20  L  -2 18  L  -4 16 " id="path-333" style="stroke: rgb(0,0,0)" />
	<circle cx="10" cy="10" r="0.125" style="fill: rgb(0,0,0)" />
	<circle cx="8" cy="12" r="0.125" style="fill: rgb(0,0,0)" />
	<circle cx="6" cy="14" r="0.125" style="fill: rgb(0,0,0)" />
	<circle cx="4" cy="16" r="0.125" style="fill: rgb(0,0,0)" />
	<circle cx="2" cy="18" r="0.125" style="fill: rgb(0,0,0)" />
	<circle cx="0" cy="20" r="0.125" style="fill: rgb(0,0,0)" />
	<circle cx="-2" cy="18" r="0.125" style="fill: rgb(0,0,0)" />
	<circle cx="-4" cy="16" r="0.125" style="fill: rgb(0,0,0)" />
	<path class="path" d="M -4 16  L  -6 14  L  -8 12  L  -10 10  L  -12 8  L  -14 6  L  -16 4  L  -18 2 " id="path-334" style="stroke: rgb(0,0,0)" />
	<circle cx="-6" cy="14" r="0.125" style="fill: rgb(0,0,0)" />
	<circle cx="-8" cy="12" r="0.125" style="fill: rgb(0,0,0)" />
	<circle cx="-10" cy="10" r="0.125" style="fill: rgb(0,0,0)" />
	<circle cx="-12" cy="8" r="0.125" style="fill: rgb(0,0,0)" />
	<circle cx="-14" cy="6" r="0.125" style="fill: rgb(0,0,0)" />
	<circle cx="-16" cy="4" r="0.125" style="fill: rgb(0,0,0)" />
	<circle cx="-18" cy="2" r="0.125" style="fill: rgb(0,0,0)" />
	<path class="path" d="M -18 2  L  -20 0  L  -18 -2  L  -16 -4  L  -14 -6  L  -12 -8  L  -10 -10  L  -8 -12  L  -6 -14 " id="path-335" style="stroke: rgb(0,0,0)" />
	<circle cx="-20" cy="0" r="0.125" style="fill: rgb(0,0,0)" />
	<circle cx="-18" cy="-2" r="0.125" style="fill: rgb(0,0,0)" />
	<circle cx="-16" cy="-4" r="0.125" style="fill: rgb(0,0,0)" />
	<circle cx="-14" cy="-6" r="0.125" style="fill: rgb(0,0,0)" />
	<circle cx="-12" cy="-8" r="0.125" style="fill: rgb(0,0,0)" />
	<circle cx="-10" cy="-10" r="0.125" style="fill: rgb(0,0,0)" />
	<circle cx="-8" cy="-12" r="0.125" style="fill: rgb(0,0,0)" />
	<circle cx="-6" cy="-14" r="0.125" style="fill: rgb(0,0,0)" />
	<path class="path" d="M -6 -14  L  -4 -16  L  -2 -18  L  0 -20  L  2 -22  L  4 -20  L  6 -18  L  8 -16  L  10 -14 " id="path-336" style="stroke: rgb(0,0,0)" />
	<circle cx="-4" cy="-16" r="0.125" style="fill: rgb(0,0,0)" />
	<circle cx="-2" cy="-18" r="0.125" style="fill: rgb(0,0,0)" />
	<circle cx="0" cy="-20" r="0.125" style="fill: rgb(0,0,0)" />
	<circle cx="2" cy="-22" r="0.125" style="fill: rgb(0,0,0)" />
	<circle cx="4" cy="-20" r="0.125" style="fill: rgb(0,0,0)" />
	<circle cx="6" cy="-18" r="0.125" style="fill: rgb(0,0,0)" />
	<circle cx="8" cy="-16" r="0.125" style="fill: rgb(0,0,0)" />
	<circle cx="10" cy="-14" r="0.125" style="fill: rgb(0,0,0)" />
	<path class="path" d="M 10 -14  L  12 -12  L  14 -10  L  16 -8  L  18 -6  L  20 -4  L  22 -2  L  24 0  L  22 2 " id="path-337" style="stroke: rgb(0,0,0)" />
	<circle cx="12" cy="-12" r="0.125" style="fill: rgb(0,0,0)" />
	<circle cx="14" cy="-10" r="0.125" style="fill: rgb(0,0,0)" />
	<circle cx="16" cy="-8" r="0.125" style="fill: rgb(0,0,0)" />
	<circle cx="18" cy="-6" r="0.125" style="fill: rgb(0,0,0)" />
	<circle cx="20" cy="-4" r="0.125" style="fill: rgb(0,0,0)" />
	<circle cx="22" cy="-2" r="0.125" style="fill: rgb(0,0,0)" />
	<circle cx="24" cy="0" r="0.125" style="fill: rgb(0,0,0)" />
	<circle cx="22" cy="2" r="0.125" style="fill: rgb(0,0,0)" />
	<path class="path" d="M 22 2  L  20 4  L  18 6  L  16 8  L  14 10  L  12 12  L  10 14  L  8 16  L  6 18 " id="path-338" style="stroke: rgb(0,0,0)" />
	<circle cx="20" cy="4" r="0.125" style="fill: rgb(0,0,0)" />
	<circle cx="18" cy="6" r="0.125" style="fill: rgb(0,0,0)" />
	<circle cx="16" cy="8" r="0.125" style="fill: rgb(0,0,0)" />
	<circle cx="14" cy="10" r="0.125" style="fill: rgb(0,0,0)" />
	<circle cx="12" cy="12" r="0.125" style="fill: rgb(0,0,0)" />
	<circle cx="10" cy="14" r="0.125" style="fill: rgb(0,0,0)" />
	<circle cx="8" cy="16" r="0.125" style="fill: rgb(0,0,0)" />
	<circle cx="6" cy="18" r="0.125" style="fill: rgb(0,0,0)" />
	<path class="path" d="M 6 18  L  4 20  L  2 22  L  0 24  L  -2 22  L  -4 20  L  -6 18  L  -8 16 " id="path-339" style="stroke: rgb(0,0,0)" />
	<circle cx="4" cy="20" r="0.125" style="fill: rgb(0,0,0)" />
	<circle cx="2" cy="22" r="0.125" style="fill: rgb(0,0,0)" />
	<circle cx="0" cy="24" r="0.125" style="fill: rgb(0,0,0)" />
	<circle cx="-2" cy="22" r="0.125" style="fill: rgb(0,0,0)" />
	<circle cx="-4" cy="20" r="0.125" style="fill: rgb(0,0,0)" />
	<circle cx="-6" cy="18" r="0.125" style="fill: rgb(0,0,0)" />
	<circle cx="-8" cy="16" r="0.125" style="fill: rgb(0,0,0)" />
	<path class="path" d="M -8 16  L  -10 14  L  -12 12  L  -14 10  L  -16 8  L  -18 6  L  -20 4  L  -22 2  L  -24 0 " id="path-340" style="stroke: rgb(0,0,0)" />
	<circle cx="-10" cy="14" r="0.125" style="fill: rgb(0,0,0)" />
	<circle cx="-12" cy="12" r="0.125" style="fill: rgb(0,0,0)" />
	<circle cx="-14" cy="10" r="0.125" style="fill: rgb(0,0,0)" />
	<circle cx="-16" cy="8" r="0.125" style="fill: rgb(0,0,0)" />
	<circle cx="-18" cy="6" r="0.125" style="fill: rgb(0,0,0)" />
	<circle cx="-20" cy="4" r="0.125" style="fill: rgb(0,0,0)" />
	<circle cx="-22" cy="2" r="0.125" style="fill: rgb(0,0,0)" />
	<circle cx="-24" cy="0" r="0.125" style="fill: rgb(0,0,0)" />
	<path class="path" d="M -24 0  L  -22 -2  L  -20 -4  L  -18 -6  L  -16 -8  L  -14 -10  L  -12 -12  L  -10 -14  L  -8 -16 " id="path-341" style="stroke: rgb(0,0,0)" />
	<circle cx="-22" cy="-2" r="0.125" style="fill: rgb(0,0,0)" />
	<circle cx="-20" cy="-4" r="0.125" style="fill: rgb(0,0,0)" />
	<circle cx="-18" cy="-6" r="0.125" style="fill: rgb(0,0,0)" />
	<circle cx="-16" cy="-8" r="0.125" style="fill: rgb(0,0,0)" />
	<circle cx="-14" cy="-10" r="0.125" style="fill: rgb(0,0,0)" />
	<circle cx="-12" cy="-12" r="0.125" style="fill: rgb(0,0,0)" />
	<circle cx="-10" cy="-14" r="0.125" style="fill: rgb(0,0,0)" />
	<circle cx="-8" cy="-16" r="0.125" style="fill: rgb(0,0,0)" />
	<path class="path" d="M -8 -16  L  -6 -18  L  -4 -20  L  -2 -22  L  0 -24  L  2 -26  L  4 -24  L  6 -22  L  8 -20 " id="path-342" style="stroke: rgb(0,0,0)" />
	<circle cx="-6" cy="-18" r="0.125" style="fill: rgb(0,0,0)" />
	<circle cx="-4" cy="-20" r="0.125" style="fill: rgb(0,0,0)" />
	<circle cx="-2" cy="-22" r="0.125" style="fill: rgb(0,0,0)" />
	<circle cx="0" cy="-24" r="0.125" style="fill: rgb(0,0,0)" />
	<circle cx="2" cy="-26" r="0.125" style="fill: rgb(0,0,0)" />
	<circle cx="4" cy="-24" r="0.125" style="fill: rgb(0,0,0)" />
	<circle cx="6" cy="-22" r="0.125" style="fill: rgb(0,0,0)" />
	<circle cx="8" cy="-20" r="0.125" style="fill: rgb(0,0,0)" />
	<path class="path" d="M 8 -20  L  10 -18  L  12 -16  L  14 -14  L  16 -12  L  18 -10  L  20 -8  L  22 -6  L  24 -4 " id="path-343" style="stroke: rgb(0,0,0)" />
	<circle cx="10" cy="-18" r="0.125" style="fill: rgb(0,0,0)" />
	<circle cx="12" cy="-16" r="0.125" style="fill: rgb(0,0,0)" />
	<circle cx="14" cy="-14" r="0.125" style="fill: rgb(0,0,0)" />
	<circle cx="16" cy="-12" r="0.125" style="fill: rgb(0,0,0)" />
	<circle cx="18" cy="-10" r="0.125" style="fill: rgb(0,0,0)" />
	<circle cx="20" cy="-8" r="0.125" style="fill: rgb(0,0,0)" />
	<circle cx="22" cy="-6" r="0.125" style="fill: rgb(0,0,0)" />
	<circle cx="24" cy="-4" r="0.125" style="fill: rgb(0,0,0)" />
	<path class="path" d="M 24 -4  L  26 -2  L  28 0  L  26 2  L  24 4  L  22 6  L  20 8  L  18 10  L  16 12 " id="path-344" style="stroke: rgb(0,0,0)" />
	<circle cx="26" cy="-2" r="0.125" style="fill: rgb(0,0,0)" />
	<circle cx="28" cy="0" r="0.125" style="fill: rgb(0,0,0)" />
	<circle cx="26" cy="2" r="0.125" style="fill: rgb(0,0,0)" />
	<circle cx="24" cy="4" r="0.125" style="fill: rgb(0,0,0)" />
	<circle cx="22" cy="6" r="0.125" style="fill: rgb(0,0,0)" />
	<circle cx="20" cy="8" r="0.125" style="fill: rgb(0,0,0)" />
	<circle cx="18" cy="10" r="0.125" style="fill: rgb(0,0,0)" />
	<circle cx="16" cy="12" r="0.125" style="fill: rgb(0,0,0)" />
	<path class="path" d="M 16 12  L  14 14  L  12 16  L  10 18  L  8 20  L  6 22  L  4 24  L  2 26 " id="path-345" style="stroke: rgb(0,0,0)" />
	<circle cx="14" cy="14" r="0.125" style="fill: rgb(0,0,0)" />
	<circle cx="12" cy="16" r="0.125" style="fill: rgb(0,0,0)" />
	<circle cx="10" cy="18" r="0.125" style="fill: rgb(0,0,0)" />
	<circle cx="8" cy="20" r="0.125" style="fill: rgb(0,0,0)" />
	<circle cx="6" cy="22" r="0.125" style="fill: rgb(0,0,0)" />
	<circle cx="4" cy="24" r="0.125" style="fill: rgb(0,0,0)" />
	<circle cx="2" cy="26" r="0.125" style="fill: rgb(0,0,0)" />
	<path class="path" d="M 2 26  L  0 28  L  -2 26  L  -4 24  L  -6 22  L  -8 20  L  -10 18  L  -12 16  L  -14 14 " id="path-346" style="stroke: rgb(0,0,0)" />
	<circle cx="0" cy="28" r="0.125" style="fill: rgb(0,0,0)" />
	<circle cx="-2" cy="26" r="0.125" style="fill: rgb(0,0,0)" />
	<circle cx="-4" cy="24" r="0.125" style="fill: rgb(0,0,0)" />
	<circle cx="-6" cy="22" r="0.125" style="fill: rgb(0,0,0)" />
	<circle cx="-8" cy="20" r="0.125" style="fill: rgb(0,0,0)" />
	<circle cx="-10" cy="18" r="0.125" style="fill: rgb(0,0,0)" />
	<circle cx="-12" cy="16" r="0.125" style="fill: rgb(0,0,0)" />
	<circle cx="-14" cy="14" r="0.125" style="fill: rgb(0,0,0)" />
	<path class="path" d="M -14 14  L  -16 12  L  -18 10  L  -20 8  L  -22 6  L  -24 4  L  -26 2  L  -28 0  L  -26 -2 " id="path-347" style="stroke: rgb(0,0,0)" />
	<circle cx="-16" cy="12" r="0.125" style="fill: rgb(0,0,0)" />
	<circle cx="-18" cy="10" r="0.125" style="fill: rgb(0,0,0)" />
	<circle cx="-20" cy="8" r="0.125" style="fill: rgb(0,0,0)" />
	<circle cx="-22" cy="6" r="0.125" style="fill: rgb(0,0,0)" />
	<circle cx="-24" cy="4" r="0.125" style="fill: rgb(0,0,0)" />
	<circle cx="-26" cy="2" r="0.125" style="fill: rgb(0,0,0)" />
	<circle cx="-28" cy="0" r="0.125" style="fill: rgb(0,0,0)" />
	<circle cx="-26" cy="-2" r="0.125" style="fill: rgb(0,0,0)" />
	<path class="path" d="M -26 -2  L  -24 -4  L  -22 -6  L  -20 -8  L  -18 -10  L  -16 -12  L  -14 -14  L  -12 -16  L  -10 -18 " id="path-348" style="stroke: rgb(0,0,0)" />
	<circle cx="-24" cy="-4" r="0.125" style="fill: rgb(0,0,0)" />
	<circle cx="-22" cy="-6" r="0.125" style="fill: rgb(0,0,0)" />
	<circle cx="-20" cy="-8" r="0.125" style="fill: rgb(0,0,0)" />
	<circle cx="-18" cy="-10" r="0.125" style="fill: rgb(0,0,0)" />
	<circle cx="-16" cy="-12" r="0.125" style="fill: rgb(0,0,0)" />
	<circle cx="-14" cy="-14" r="0.125" style="fill: rgb(0,0,0)" />
	<circle cx="-12" cy="-16" r="0.125" style="fill: rgb(0,0,0)" />
	<circle cx="-10" cy="-18" r="0.125" style="fill: rgb(0,0,0)" />
	<path class="path" d="M -10 -18  L  -8 -20  L  -6 -22  L  -4 -24  L  -2 -26  L  0 -28  L  2 -30  L  4 -28  L  6 -26 " id="path-349" style="stroke: rgb(0,0,0)" />
	<circle cx="-8" cy="-20" r="0.125" style="fill: rgb(0,0,0)" />
	<circle cx="-6" cy="-22" r="0.125" style="fill: rgb(0,0,0)" />
	<circle cx="-4" cy="-24" r="0.125" style="fill: rgb(0,0,0)" />
	<circle cx="-2" cy="-26" r="0.125" style="fill: rgb(0,0,0)" />
	<circle cx="0" cy="-28" r="0.125" style="fill: rgb(0,0,0)" />
	<circle cx="2" cy="-30" r="0.125" style="fill: rgb(0,0,0)" />
	<circle cx="4" cy="-28" r="0.125" style="fill: rgb(0,0,0)" />
	<circle cx="6" cy="-26" r="0.125" style="fill: rgb(0,0,0)" />
	<path class="path" d="M 6 -26  L  8 -24  L  10 -22  L  12 -20  L  14 -18  L  16 -16  L  18 -14  L  20 -12 " id="path-350" style="stroke: rgb(0,0,0)" />
	<circle cx="8" cy="-24" r="0.125" style="fill: rgb(0,0,0)" />
	<circle cx="10" cy="-22" r="0.125" style="fill: rgb(0,0,0)" />
	<circle cx="12" cy="-20" r="0.125" style="fill: rgb(0,0,0)" />
	<circle cx="14" cy="-18" r="0.125" style="fill: rgb(0,0,0)" />
	<circle cx="16" cy="-16" r="0.125" style="fill: rgb(0,0,0)" />
	<circle cx="18" cy="-14" r="0.125" style="fill: rgb(0,0,0)" />
	<circle cx="20" cy="-12" r="0.125" style="fill: rgb(0,0,0)" />
	<path class="path" d="M 20 -12  L  22 -10  L  24 -8  L  26 -6  L  28 -4  L  30 -2  L  32 0  L  30 2  L  28 4 " id="path-351" style="stroke: rgb(0,0,0)" />
	<circle cx="22" cy="-10" r="0.125" style="fill: rgb(0,0,0)" />
	<circle cx="24" cy="-8" r="0.125" style="fill: rgb(0,0,0)" />
	<circle cx="26" cy="-6" r="0.125" style="fill: rgb(0,0,0)" />
	<circle cx="28" cy="-4" r="0.125" style="fill: rgb(0,0,0)" />
	<circle cx="30" cy="-2" r="0.125" style="fill: rgb(0,0,0)" />
	<circle cx="32" cy="0" r="0.125" style="fill: rgb(0,0,0)" />
	<circle cx="30" cy="2" r="0.125" style="fill: rgb(0,0,0)" />
	<circle cx="28" cy="4" r="0.125" style="fill: rgb(0,0,0)" />
	<path class="path" d="M 28 4  L  26 6  L  24 8  L  22 10  L  20 12  L  18 14  L  16 16  L  14 18  L  12 20 " id="path-352" style="stroke: rgb(0,0,0)" />
	<circle cx="26" cy="6" r="0.125" style="fill: rgb(0,0,0)" />
	<circle cx="24" cy="8" r="0.125" style="fill: rgb(0,0,0)" />
	<circle cx="22" cy="10" r="0.125" style="fill: rgb(0,0,0)" />
	<circle cx="20" cy="12" r="0.125" style="fill: rgb(0,0,0)" />
	<circle cx="18" cy="14" r="0.125" style="fill: rgb(0,0,0)" />
	<circle cx="16" cy="16" r="0.125" style="fill: rgb(0,0,0)" />
	<circle cx="14" cy="18" r="0.125" style="fill: rgb(0,0,0)" />
	<circle cx="12" cy="20" r="0.125" style="fill: rgb(0,0,0)" />
	<path class="path" d="M 12 20  L  10 22  L  8 24  L  6 26  L  4 28  L  2 30  L  0 32  L  -2 30  L  -4 28 " id="path-353" style="stroke: rgb(0,0,0)" />
	<circle cx="10" cy="22" r="0.125" style="fill: rgb(0,0,0)" />
	<circle cx="8" cy="24" r="0.125" style="fill: rgb(0,0,0)" />
	<circle cx="6" cy="26" r="0.125" style="fill: rgb(0,0,0)" />
	<circle cx="4" cy="28" r="0.125" style="fill: rgb(0,0,0)" />
	<circle cx="2" cy="30" r="0.125" style="fill: rgb(0,0,0)" />
	<circle cx="0" cy="32" r="0.125" style="fill: rgb(0,0,0)" />
	<circle cx="-2" cy="30" r="0.125" style="fill: rgb(0,0,0)" />
	<circle cx="-4" cy="28" r="0.125" style="fill: rgb(0,0,0)" />
	<path class="path" d="M -4 28  L  -6 26  L  -8 24  L  -10 22  L  -12 20  L  -14 18  L  -16 16  L  -18 14  L  -20 12 " id="path-354" style="stroke: rgb(0,0,0)" />
	<circle cx="-6" cy="26" r="0.125" style="fill: rgb(0,0,0)" />
	<circle cx="-8" cy="24" r="0.125" style="fill: rgb(0,0,0)" />
	<circle cx="-10" cy="22" r="0.125" style="fill: rgb(0,0,0)" />
	<circle cx="-12" cy="20" r="0.125" style="fill: rgb(0,0,0)" />
	<circle cx="-14" cy="18" r="0.125" style="fill: rgb(0,0,0)" />
	<circle cx="-16" cy="16" r="0.125" style="fill: rgb(0,0,0)" />
	<circle cx="-18" cy="14" r="0.125" style="fill: rgb(0,0,0)" />
	<circle cx="-20" cy="12" r="0.125" style="fill: rgb(0,0,0)" />
	<path class="path" d="M -20 12  L  -22 10  L  -24 8  L  -26 6  L  -28 4  L  -30 2  L  -32 0  L  -30 -2 " id="path-355" style="stroke: rgb(0,0,0)" />
	<circle cx="-22" cy="10" r="0.125" style="fill: rgb(0,0,0)" />
	<circle cx="-24" cy="8" r="0.125" style="fill: rgb(0,0,0)" />
	<circle cx="-26" cy="6" r="0.125" style="fill: rgb(0,0,0)" />
	<circle cx="-28" cy="4" r="0.125" style="fill: rgb(0,0,0)" />
	<circle cx="-30" cy="2" r="0.125" style="fill: rgb(0,0,0)" />
	<circle cx="-32" cy="0" r="0.125" style="fill: rgb(0,0,0)" />
	<circle cx="-30" cy="-2" r="0.125" style="fill: rgb(0,0,0)" />
	<path class="path" d="M -30 -2  L  -28 -4  L  -26 -6  L  -24 -8  L  -22 -10  L  -20 -12  L  -18 -14  L  -16 -16  L  -14 -18 " id="path-356" style="stroke: rgb(0,0,0)" />
	<circle cx="-28" cy="-4" r="0.125" style="fill: rgb(0,0,0)" />
	<circle cx="-26" cy="-6" r="0.125" style="fill: rgb(0,0,0)" />
	<circle cx="-24" cy="-8" r="0.125" style="fill: rgb(0,0,0)" />
	<circle cx="-22" cy="-10" r="0.125" style="fill: rgb(0,0,0)" />
	<circle cx="-20" cy="-12" r="0.125" style="fill: rgb(0,0,0)" />
	<circle cx="-18" cy="-14" r="0.125" style="fill: rgb(0,0,0)" />
	<circle cx="-16" cy="-16" r="0.125" style="fill: rgb(0,0,0)" />
	<circle cx="-14" cy="-18" r="0.125" style="fill: rgb(0,0,0)" />
	<path class="path" d="M -14 -18  L  -12 -20  L  -10 -22  L  -8 -24  L  -6 -26  L  -4 -28  L  -2 -30  L  0 -32  L  2 -34 " id="path-357" style="stroke: rgb(0,0,0)" />
	<circle cx="-12" cy="-20" r="0.125" style="fill: rgb(0,0,0)" />
	<circle cx="-10" cy="-22" r="0.125" style="fill: rgb(0,0,0)" />
	<circle cx="-8" cy="-24" r="0.125" style="fill: rgb(0,0,0)" />
	<circle cx="-6" cy="-26" r="0.125" style="fill: rgb(0,0,0)" />
	<circle cx="-4" cy="-28" r="0.125" style="fill: rgb(0,0,0)" />
	<circle cx="-2" cy="-30" r="0.125" style="fill: rgb(0,0,0)" />
	<circle cx="0" cy="-32" r="0.125" style="fill: rgb(0,0,0)" />
	<circle cx="2" cy="-34" r="0.125" style="fill: rgb(0,0,0)" />
	<path class="path" d="M 2 -34  L  4 -32  L  6 -30  L  8 -28  L  10 -26  L  12 -24  L  14 -22  L  16 -20  L  18 -18 " id="path-358" style="stroke: rgb(0,0,0)" />
	<circle cx="4" cy="-32" r="0.125" style="fill: rgb(0,0,0)" />
	<circle cx="6" cy="-30" r="0.125" style="fill: rgb(0,0,0)" />
	<circle cx="8" cy="-28" r="0.125" style="fill: rgb(0,0,0)" />
	<circle cx="10" cy="-26" r="0.125" style="fill: rgb(0,0,0)" />
	<circle cx="12" cy="-24" r="0.125" style="fill: rgb(0,0,0)" />
	<circle cx="14" cy="-22" r="0.125" style="fill: rgb(0,0,0)" />
	<circle cx="16" cy="-20" r="0.125" style="fill: rgb(0,0,0)" />
	<circle cx="18" cy="-18" r="0.125" style="fill: rgb(0,0,0)" />
	<path class="path" d="M 18 -18  L  20 -16  L  22 -14  L  24 -12  L  26 -10  L  28 -8  L  30 -6  L  32 -4  L  34 -2 " id="path-359" style="stroke: rgb(0,0,0)" />
	<circle cx="20" cy="-16" r="0.125" style="fill: rgb(0,0,0)" />
	<circle cx="22" cy="-14" r="0.125" style="fill: rgb(0,0,0)" />
	<circle cx="24" cy="-12" r="0.125" style="fill: rgb(0,0,0)" />
	<circle cx="26" cy="-10" r="0.125" style="fill: rgb(0,0,0)" />
	<circle cx="28" cy="-8" r="0.125" style="fill: rgb(0,0,0)" />
	<circle cx="30" cy="-6" r="0.125" style="fill: rgb(0,0,0)" />
	<circle cx="32" cy="-4" r="0.125" style="fill: rgb(0,0,0)" />
	<circle cx="34" cy="-2" r="0.125" style="fill: rgb(0,0,0)" />
	<path class="path" d="M 34 -2  L  36 0  L  34 2  L  32 4  L  30 6  L  28 8  L  26 10  L  24 12  L  22 14 " id="path-360" style="stroke: rgb(0,0,0)" />
	<circle cx="36" cy="0" r="0.125" style="fill: rgb(0,0,0)" />
	<circle cx="34" cy="2" r="0.125" style="fill: rgb(0,0,0)" />
	<circle cx="32" cy="4" r="0.125" style="fill: rgb(0,0,0)" />
	<circle cx="30" cy="6" r="0.125" style="fill: rgb(0,0,0)" />
	<circle cx="28" cy="8" r="0.125" style="fill: rgb(0,0,0)" />
	<circle cx="26" cy="10" r="0.125" style="fill: rgb(0,0,0)" />
	<circle cx="24" cy="12" r="0.125" style="fill: rgb(0,0,0)" />
	<circle cx="22" cy="14" r="0.125" style="fill: rgb(0,0,0)" />
	<path class="path" d="M 22 14  L  20 16  L  18 18  L  16 20  L  14 22  L  12 24  L  10 26  L  8 28 " id="path-361" style="stroke: rgb(0,0,0)" />
	<circle cx="20" cy="16" r="0.125" style="fill: rgb(0,0,0)" />
	<circle cx="18" cy="18" r="0.125" style="fill: rgb(0,0,0)" />
	<circle cx="16" cy="20" r="0.125" style="fill: rgb(0,0,0)" />
	<circle cx="14" cy="22" r="0.125" style="fill: rgb(0,0,0)" />
	<circle cx="12" cy="24" r="0.125" style="fill: rgb(0,0,0)" />
	<circle cx="10" cy="26" r="0.125" style="fill: rgb(0,0,0)" />
	<circle cx="8" cy="28" r="0.125" style="fill: rgb(0,0,0)" />
	<path class="path" d="M 8 28  L  6 30  L  4 32  L  2 34  L  0 36  L  -2 34  L  -4 32  L  -6 30  L  -8 28 " id="path-362" style="stroke: rgb(0,0,0)" />
	<circle cx="6" cy="30" r="0.125" style="fill: rgb(0,0,0)" />
	<circle cx="4" cy="32" r="0.125" style="fill: rgb(0,0,0)" />
	<circle cx="2" cy="34" r="0.125" style="fill: rgb(0,0,0)" />
	<circle cx="0" cy="36" r="0.125" style="fill: rgb(0,0,0)" />
	<circle cx="-2" cy="34" r="0.125" style="fill: rgb(0,0,0)" />
	<circle cx="-4" cy="32" r="0.125" style="fill: rgb(0,0,0)" />
	<circle cx="-6" cy="30" r="0.125" style="fill: rgb(0,0,0)" />
	<circle cx="-8" cy="28" r="0.125" style="fill: rgb(0,0,0)" />
	<path class="path" d="M -8 28  L  -10 26  L  -12 24  L  -14 22  L  -16 20  L  -18 18  L  -20 16  L  -22 14  L  -24 12 " id="path-363" style="stroke: rgb(0,0,0)" />
	<circle cx="-10" cy="26" r="0.125" style="fill: rgb(0,0,0)" />
	<circle cx="-12" cy="24" r="0.125" style="fill: rgb(0,0,0)" />
	<circle cx="-14" cy="22" r="0.125" style="fill: rgb(0,0,0)" />
	<circle cx="-16" cy="20" r="0.125" style="fill: rgb(0,0,0)" />
	<circle cx="-18" cy="18" r="0.125" style="fill: rgb(0,0,0)" />
	<circle cx="-20" cy="16" r="0.125" style="fill: rgb(0,0,0)" />
	<circle cx="-22" cy="14" r="0.125" style="fill: rgb(0,0,0)" />
	<circle cx="-24" cy="12" r="0.125" style="fill: rgb(0,0,0)" />
	<path class="path" d="M -24 12  L  -26 10  L  -28 8  L  -30 6  L  -32 4  L  -34 2  L  -36 0  L  -34 -2  L  -32 -4 " id="path-364" style="stroke: rgb(0,0,0)" />
	<circle cx="-26" cy="10" r="0.125" style="fill: rgb(0,0,0)" />
	<circle cx="-28" cy="8" r="0.125" style="fill: rgb(0,0,0)" />
	<circle cx="-30" cy="6" r="0.125" style="fill: rgb(0,0,0)" />
	<circle cx="-32" cy="4" r="0.125" style="fill: rgb(0,0,0)" />
	<circle cx="-34" cy="2" r="0.125" style="fill: rgb(0,0,0)" />
	<circle cx="-36" cy="0" r="0.125" style="fill: rgb(0,0,0)" />
	<circle cx="-34" cy="-2" r="0.125" style="fill: rgb(0,0,0)" />
	<circle cx="-32" cy="-4" r="0.125" style="fill: rgb(0,0,0)" />
	<path class="path" d="M -32 -4  L  -30 -6  L  -28 -8  L  -26 -10  L  -24 -12  L  -22 -14  L  -20 -16  L  -18 -18  L  -16 -20 " id="path-365" style="stroke: rgb(0,0,0)" />
	<circle cx="-30" cy="-6" r="0.125" style="fill: rgb(0,0,0)" />
	<circle cx="-28" cy="-8" r="0.125" style="fill: rgb(0,0,0)" />
	<circle cx="-26" cy="-10" r="0.125" style="fill: rgb(0,0,0)" />
	<circle cx="-24" cy="-12" r="0.125" style="fill: rgb(0,0,0)" />
	<circle cx="-22" cy="-14" r="0.125" style="fill: rgb(0,0,0)" />
	<circle cx="-20" cy="-16" r="0.125" style="fill: rgb(0,0,0)" />
	<circle cx="-18" cy="-18" r="0.125" style="fill: rgb(0,0,0)" />
	<circle cx="-16" cy="-20" r="0.125" style="fill: rgb(0,0,0)" />
	<path class="path" d="M -16 -20  L  -14 -22  L  -12 -24  L  -10 -26  L  -8 -28  L  -6 -30  L  -4 -32  L  -2 -34 " id="path-366" style="stroke: rgb(0,0,0)" />
	<circle cx="-14" cy="-22" r="0.125" style="fill: rgb(0,0,0)" />
	<circle cx="-12" cy="-24" r="0.125" style="fill: rgb(0,0,0)" />
	<circle cx="-10" cy="-26" r="0.125" style="fill: rgb(0,0,0)" />
	<circle cx="-8" cy="-28" r="0.125" style="fill: rgb(0,0,0)" />
	<circle cx="-6" cy="-30" r="0.125" style="fill: rgb(0,0,0)" />
	<circle cx="-4" cy="-32" r="0.125" style="fill: rgb(0,0,0)" />
	<circle cx="-2" cy="-34" r="0.125" style="fill: rgb(0,0,0)" />
	<path class="path" d="M -2 -34  L  0 -36  L  2 -38  L  4 -36  L  6 -34  L  8 -32  L  10 -30  L  12 -28  L  14 -26 " id="path-367" style="stroke: rgb(0,0,0)" />
	<circle cx="0" cy="-36" r="0.125" style="fill: rgb(0,0,0)" />
	<circle cx="2" cy="-38" r="0.125" style="fill: rgb(0,0,0)" />
	<circle cx="4" cy="-36" r="0.125" style="fill: rgb(0,0,0)" />
	<circle cx="6" cy="-34" r="0.125" style="fill: rgb(0,0,0)" />
	<circle cx="8" cy="-32" r="0.125" style="fill: rgb(0,0,0)" />
	<circle cx="10" cy="-30" r="0.125" style="fill: rgb(0,0,0)" />
	<circle cx="12" cy="-28" r="0.125" style="fill: rgb(0,0,0)" />
	<circle cx="14" cy="-26" r="0.125" style="fill: rgb(0,0,0)" />
	<path class="path" d="M 14 -26  L  16 -24  L  18 -22  L  20 -20  L  22 -18  L  24 -16  L  26 -14  L  28 -12  L  30 -10 " id="path-368" style="stroke: rgb(0,0,0)" />
	<circle cx="16" cy="-24" r="0.125" style="fill: rgb(0,0,0)" />
	<circle cx="18" cy="-22" r="0.125" style="fill: rgb(0,0,0)" />
	<circle cx="20" cy="-20" r="0.125" style="fill: rgb(0,0,0)" />
	<circle cx="22" cy="-18" r="0.125" style="fill: rgb(0,0,0)" />
	<circle cx="24" cy="-16" r="0.125" style="fill: rgb(0,0,0)" />
	<circle cx="26" cy="-14" r="0.125" style="fill: rgb(0,0,0)" />
	<circle cx="28" cy="-12" r="0.125" style="fill: rgb(0,0,0)" />
	<circle cx="30" cy="-10" r="0.125" style="fill: rgb(0,0,0)" />
	<path class="path" d="M 30 -10  L  32 -8  L  34 -6  L  36 -4  L  38 -2  L  40 0  L  38 2  L  36 4  L  34 6 " id="path-369" style="stroke: rgb(0,0,0)" />
	<circle cx="32" cy="-8" r="0.125" style="fill: rgb(0,0,0)" />
	<circle cx="34" cy="-6" r="0.125" style="fill: rgb(0,0,0)" />
	<circle cx="36" cy="-4" r="0.125" style="fill: rgb(0,0,0)" />
	<circle cx="38" cy="-2" r="0.125" style="fill: rgb(0,0,0)" />
	<circle cx="40" cy="0" r="0.125" style="fill: rgb(0,0,0)" />
	<circle cx="38" cy="2" r="0.125" style="fill: rgb(0,0,0)" />
	<circle cx="36" cy="4" r="0.125" style="fill: rgb(0,0,0)" />
	<circle cx="34" cy="6" r="0.125" style="fill: rgb(0,0,0)" />
	<path class="path" d="M 34 6  L  32 8  L  30 10  L  28 12  L  26 14  L  24 16  L  22 18  L  20 20  L  18 22 " id="path-370" style="stroke: rgb(0,0,0)" />
	<circle cx="32" cy="8" r="0.125" style="fill: rgb(0,0,0)" />
	<circle cx="30" cy="10" r="0.125" style="fill: rgb(0,0,0)" />
	<circle cx="28" cy="12" r="0.125" style="fill: rgb(0,0,0)" />
	<circle cx="26" cy="14" r="0.125" style="fill: rgb(0,0,0)" />
	<circle cx="24" cy="16" r="0.125" style="fill: rgb(0,0,0)" />
	<circle cx="22" cy="18" r="0.125" style="fill: rgb(0,0,0)" />
	<circle cx="20" cy="20" r="0.125" style="fill: rgb(0,0,0)" />
	<circle cx="18" cy="22" r="0.125" style="fill: rgb(0,0,0)" />
	<path class="path" d="M 18 22  L  16 24  L  14 26  L  12 28  L  10 30  L  8 32  L  6 34  L  4 36 " id="path-371" style="stroke: rgb(0,0,0)" />
	<circle cx="16" cy="24" r="0.125" style="fill: rgb(0,0,0)" />
	<circle cx="14" cy="26" r="0.125" style="fill: rgb(0,0,0)" />
	<circle cx="12" cy="28" r="0.125" style="fill: rgb(0,0,0)" />
	<circle cx="10" cy="30" r="0.125" style="fill: rgb(0,0,0)" />
	<circle cx="8" cy="32" r="0.125" style="fill: rgb(0,0,0)" />
	<circle cx="6" cy="34" r="0.125" style="fill: rgb(0,0,0)" />
	<circle cx="4" cy="36" r="0.125" style="fill: rgb(0,0,0)" />
	<path class="path" d="M 4 36  L  2 38  L  0 40  L  -2 38  L  -4 36  L  -6 34  L  -8 32  L  -10 30  L  -12 28 " id="path-372" style="stroke: rgb(0,0,0)" />
	<circle cx="2" cy="38" r="0.125" style="fill: rgb(0,0,0)" />
	<circle cx="0" cy="40" r="0.125" style="fill: rgb(0,0,0)" />
	<circle cx="-2" cy="38" r="0.125" style="fill: rgb(0,0,0)" />
	<circle cx="-4" cy="36" r="0.125" style="fill: rgb(0,0,0)" />
	<circle cx="-6" cy="34" r="0.125" style="fill: rgb(0,0,0)" />
	<circle cx="-8" cy="32" r="0.125" style="fill: rgb(0,0,0)" />
	<circle cx="-10" cy="30" r="0.125" style="fill: rgb(0,0,0)" />
	<circle cx="-12" cy="28" r="0.125" style="fill: rgb(0,0,0)" />
	<path class="path" d="M -12 28  L  -14 26  L  -16 24  L  -18 22  L  -20 20  L  -22 18  L  -24 16  L  -26 14  L  -28 12 " id="path-373" style="stroke: rgb(0,0,0)" />
	<circle cx="-14" cy="26" r="0.125" style="fill: rgb(0,0,0)" />
	<circle cx="-16" cy="24" r="0.125" style="fill: rgb(0,0,0)" />
	<circle cx="-18" cy="22" r="0.125" style="fill: rgb(0,0,0)" />
	<circle cx="-20" cy="20" r="0.125" style="fill: rgb(0,0,0)" />
	<circle cx="-22" cy="18" r="0.125" style="fill: rgb(0,0,0)" />
	<circle cx="-24" cy="16" r="0.125" style="fill: rgb(0,0,0)" />
	<circle cx="-26" cy="14" r="0.125" style="fill: rgb(0,0,0)" />
	<circle cx="-28" cy="12" r="0.125" style="fill: rgb(0,0,0)" />
	<path class="path" d="M -28 12  L  -30 10  L  -32 8  L  -34 6  L  -36 4  L  -38 2  L  -40 0  L  -38 -2  L  -36 -4 " id="path-374" style="stroke: rgb(0,0,0)" />
	<circle cx="-30" cy="10" r="0.125" style="fill: rgb(0,0,0)" />
	<circle cx="-32" cy="8" r="0.125" style="fill: rgb(0,0,0)" />
	<circle cx="-34" cy="6" r="0.125" style="fill: rgb(0,0,0)" />
	<circle cx="-36" cy="4" r="0.125" style="fill: rgb(0,0,0)" />
	<circle cx="-38" cy="2" r="0.125" style="fill: rgb(0,0,0)" />
	<circle cx="-40" cy="0" r="0.125" style="fill: rgb(0,0,0)" />
	<circle cx="-38" cy="-2" r="0.125" style="fill: rgb(0,0,0)" />
	<circle cx="-36" cy="-4" r="0.125" style="fill: rgb(0,0,0)" />
	<path class="path" d="M -36 -4  L  -34 -6  L  -32 -8  L  -30 -10  L  -28 -12  L  -26 -14  L  -24 -16  L  -22 -18  L  -20 -20 " id="path-375" style="stroke: rgb(0,0,0)" />
	<circle cx="-34" cy="-6" r="0.125" style="fill: rgb(0,0,0)" />
	<circle cx="-32" cy="-8" r="0.125" style="fill: rgb(0,0,0)" />
	<circle cx="-30" cy="-10" r="0.125" style="fill: rgb(0,0,0)" />
	<circle cx="-28" cy="-12" r="0.125" style="fill: rgb(0,0,0)" />
	<circle cx="-26" cy="-14" r="0.125" style="fill: rgb(0,0,0)" />
	<circle cx="-24" cy="-16" r="0.125" style="fill: rgb(0,0,0)" />
	<circle cx="-22" cy="-18" r="0.125" style="fill: rgb(0,0,0)" />
	<circle cx="-20" cy="-20" r="0.125" style="fill: rgb(0,0,0)" />
	<path class="path" d="M -20 -20  L  -18 -22  L  -16 -24  L  -14 -26  L  -12 -28  L  -10 -30  L  -8 -32  L  -6 -34  L  -4 -36 " id="path-376" style="stroke: rgb(0,0,0)" />
	<circle cx="-18" cy="-22" r="0.125" style="fill: rgb(0,0,0)" />
	<circle cx="-16" cy="-24" r="0.125" style="fill: rgb(0,0,0)" />
	<circle cx="-14" cy="-26" r="0.125" style="fill: rgb(0,0,0)" />
	<circle cx="-12" cy="-28" r="0.125" style="fill: rgb(0,0,0)" />
	<circle cx="-10" cy="-30" r="0.125" style="fill: rgb(0,0,0)" />
	<circle cx="-8" cy="-32" r="0.125" style="fill: rgb(0,0,0)" />
	<circle cx="-6" cy="-34" r="0.125" style="fill: rgb(0,0,0)" />
	<circle cx="-4" cy="-36" r="0.125" style="fill: rgb(0,0,0)" />
	<path class="path" d="M -4 -36  L  -2 -38  L  0 -40  L  2 -42  L  4 -40  L  6 -38  L  8 -36  L  10 -34 " id="path-377" style="stroke: rgb(0,0,0)" />
	<circle cx="-2" cy="-38" r="0.125" style="fill: rgb(0,0,0)" />
	<circle cx="0" cy="-40" r="0.125" style="fill: rgb(0,0,0)" />
	<circle cx="2" cy="-42" r="0.125" style="fill: rgb(0,0,0)" />
	<circle cx="4" cy="-40" r="0.125" style="fill: rgb(0,0,0)" />
	<circle cx="6" cy="-38" r="0.125" style="fill: rgb(0,0,0)" />
	<circle cx="8" cy="-36" r="0.125" style="fill: rgb(0,0,0)" />
	<circle cx="10" cy="-34" r="0.125" style="fill: rgb(0,0,0)" />
	<path class="path" d="M 10 -34  L  12 -32  L  14 -30  L  16 -28  L  18 -26  L  20 -24  L  22 -22  L  24 -20  L  26 -18 " id="path-378" style="stroke: rgb(0,0,0)" />
	<circle cx="12" cy="-32" r="0.125" style="fill: rgb(0,0,0)" />
	<circle cx="14" cy="-30" r="0.125" style="fill: rgb(0,0,0)" />
	<circle cx="16" cy="-28" r="0.125" style="fill: rgb(0,0,0)" />
	<circle cx="18" cy="-26" r="0.125" style="fill: rgb(0,0,0)" />
	<circle cx="20" cy="-24" r="0.125" style="fill: rgb(0,0,0)" />
	<circle cx="22" cy="-22" r="0.125" style="fill: rgb(0,0,0)" />
	<circle cx="24" cy="-20" r="0.125" style="fill: rgb(0,0,0)" />
	<circle cx="26" cy="-18" r="0.125" style="fill: rgb(0,0,0)" />
	<path class="path" d="M 26 -18  L  28 -16  L  30 -14  L  32 -12  L  34 -10  L  36 -8  L  38 -6  L  40 -4  L  42 -2 " id="path-379" style="stroke: rgb(0,0,0)" />
	<circle cx="28" cy="-16" r="0.125" style="fill: rgb(0,0,0)" />
	<circle cx="30" cy="-14" r="0.125" style="fill: rgb(0,0,0)" />
	<circle cx="32" cy="-12" r="0.125" style="fill: rgb(0,0,0)" />
	<circle cx="34" cy="-10" r="0.125" style="fill: rgb(0,0,0)" />
	<circle cx="36" cy="-8" r="0.125" style="fill: rgb(0,0,0)" />
	<circle cx="38" cy="-6" r="0.125" style="fill: rgb(0,0,0)" />
	<circle cx="40" cy="-4" r="0.125" style="fill: rgb(0,0,0)" />
	<circle cx="42" cy="-2" r="0.125" style="fill: rgb(0,0,0)" />
	<path class="path" d="M 42 -2  L  44 0  L  42 2  L  40 4  L  38 6  L  36 8  L  34 10  L  32 12  L  30 14 " id="path-380" style="stroke: rgb(0,0,0)" />
	<circle cx="44" cy="0" r="0.125" style="fill: rgb(0,0,0)" />
	<circle cx="42" cy="2" r="0.125" style="fill: rgb(0,0,0)" />
	<circle cx="40" cy="4" r="0.125" style="fill: rgb(0,0,0)" />
	<circle cx="38" cy="6" r="0.125" style="fill: rgb(0,0,0)" />
	<circle cx="36" cy="8" r="0.125" style="fill: rgb(0,0,0)" />
	<circle cx="34" cy="10" r="0.125" style="fill: rgb(0,0,0)" />
	<circle cx="32" cy="12" r="0.125" style="fill: rgb(0,0,0)" />
	<circle cx="30" cy="14" r="0.125" style="fill: rgb(0,0,0)" />
	<path class="path" d="M 30 14  L  28 16  L  26 18  L  24 20  L  22 22  L  20 24  L  18 26  L  16 28  L  14 30 " id="path-381" style="stroke: rgb(0,0,0)" />
	<circle cx="28" cy="16" r="0.125" style="fill: rgb(0,0,0)" />
	<circle cx="26" cy="18" r="0.125" style="fill: rgb(0,0,0)" />
	<circle cx="24" cy="20" r="0.125" style="fill: rgb(0,0,0)" />
	<circle cx="22" cy="22" r="0.125" style="fill: rgb(0,0,0)" />
	<circle cx="20" cy="24" r="0.125" style="fill: rgb(0,0,0)" />
	<circle cx="18" cy="26" r="0.125" style="fill: rgb(0,0,0)" />
	<circle cx="16" cy="28" r="0.125" style="fill: rgb(0,0,0)" />
	<circle cx="14" cy="30" r="0.125" style="fill: rgb(0,0,0)" />
	<path class="path" d="M 14 30  L  12 32  L  10 34  L  8 36  L  6 38  L  4 40  L  2 42  L  0 44 " id="path-382" style="stroke: rgb(0,0,0)" />
	<circle cx="12" cy="32" r="0.125" style="fill: rgb(0,0,0)" />
	<circle cx="10" cy="34" r="0.125" style="fill: rgb(0,0,0)" />
	<circle cx="8" cy="36" r="0.125" style="fill: rgb(0,0,0)" />
	<circle cx="6" cy="38" r="0.125" style="fill: rgb(0,0,0)" />
	<circle cx="4" cy="40" r="0.125" style="fill: rgb(0,0,0)" />
	<circle cx="2" cy="42" r="0.125" style="fill: rgb(0,0,0)" />
	<circle cx="0" cy="44" r="0.125" style="fill: rgb(0,0,0)" />
	<path class="path" d="M 0 44  L  -2 42  L  -4 40  L  -6 38  L  -8 36  L  -10 34  L  -12 32  L  -14 30  L  -16 28 " id="path-383" style="stroke: rgb(0,0,0)" />
	<circle cx="-2" cy="42" r="0.125" style="fill: rgb(0,0,0)" />
	<circle cx="-4" cy="40" r="0.125" style="fill: rgb(0,0,0)" />
	<circle cx="-6" cy="38" r="0.125" style="fill: rgb(0,0,0)" />
	<circle cx="-8" cy="36" r="0.125" style="fill: rgb(0,0,0)" />
	<circle cx="-10" cy="34" r="0.125" style="fill: rgb(0,0,0)" />
	<circle cx="-12" cy="32" r="0.125" style="fill: rgb(0,0,0)" />
	<circle cx="-14" cy="30" r="0.125" style="fill: rgb(0,0,0)" />
	<circle cx="-16" cy="28" r="0.125" style="fill: rgb(0,0,0)" />
	<path class="path" d="M -16 28  L  -18 26  L  -20 24  L  -22 22  L  -24 20  L  -26 18  L  -28 16  L  -30 14  L  -32 12 " id="path-384" style="stroke: rgb(0,0,0)" />
	<circle cx="-18" cy="26" r="0.125" style="fill: rgb(0,0,0)" />
	<circle cx="-20" cy="24" r="0.125" style="fill: rgb(0,0,0)" />
	<circle cx="-22" cy="22" r="0.125" style="fill: rgb(0,0,0)" />
	<circle cx="-24" cy="20" r="0.125" style="fill: rgb(0,0,0)" />
	<circle cx="-26" cy="18" r="0.125" style="fill: rgb(0,0,0)" />
	<circle cx="-28" cy="16" r="0.125" style="fill: rgb(0,0,0)" />
	<circle cx="-30" cy="14" r="0.125" style="fill: rgb(0,0,0)" />
	<circle cx="-32" cy="12" r="0.125" style="fill: rgb(0,0,0)" />
	<circle class="terminal terminal-start" cx="0" cy="0" r="0.25" />
	<circle class="terminal terminal-finish" cx="-32" cy="12" r="0.25" />
	<style><![CDATA[    circle.terminal  {fill:          black;}
    circle.unvisited {fill:          rgb(200,200,200);
                      opacity:      .5,}
    path.path        {fill-opacity:  0;
                      opacity:      .5;
                      stroke-width: .1;}
]]></style>
	<style><![CDATA[    svg                     {background-color: rgb(232,235,239);}
    circle.terminal-finish  {fill: blue;}
    circle.terminal-start   {fill: green;}
]]></style>
	<!--
	Generated using the Perl SVG Module V2.84
	by Ronan Oger
	Info: http://www.roitsystems.com/
	-->
</svg>