
<svg height="100%" style="    display:    block;
    border:     1px solid #ccc;
    position:   absolute;
    top:        5%;
    left:       5%;
    width:      90%;
    height:     90%;
    background: #fff;
" viewBox="-5 -7 11 13" width="100%" xmlns="http://www.w3.org/2000/svg" xmlns:svg="http://www.w3.org/2000/svg" xmlns:xlink="http://www.w3.org/1999/xlink">
	<path class="path" d="M 0 0  L  2 1 " id="path-385" style="stroke: rgb(0,0,0)" />
	<circle cx="2" cy="1" r="0.125" style="fill: rgb(0,0,0)" />
	<path class="path" d="M 2 1  L  1 -1 " id="path-386" style="stroke: rgb(0,0,0)" />
	<circle cx="1" cy="-1" r="0.125" style="fill: rgb(0,0,0)" />
	<path class="path" d="M 1 -1  L  -1 0 " id="path-387" style="stroke: rgb(0,0,0)" />
	<circle cx="-1" cy="0" r="0.125" style="fill: rgb(0,0,0)" />
	<path class="path" d="M -1 0  L  0 -2 " id="path-388" style="stroke: rgb(0,0,0)" />
	<circle cx="0" cy="-2" r="0.125" style="fill: rgb(0,0,0)" />
	<path class="path" d="M 0 -2  L  1 0 " id="path-389" style="stroke: rgb(0,0,0)" />
	<circle cx="1" cy="0" r="0.125" style="fill: rgb(0,0,0)" />
	<path class="path" d="M 1 0  L  0 2 " id="path-390" style="stroke: rgb(0,0,0)" />
	<circle cx="0" cy="2" r="0.125" style="fill: rgb(0,0,0)" />
	<path class="path" d="M 0 2  L  -2 1 " id="path-391" style="stroke: rgb(0,0,0)" />
	<circle cx="-2" cy="1" r="0.125" style="fill: rgb(0,0,0)" />
	<path class="path" d="M -2 1  L  -1 -1 " id="path-392" style="stroke: rgb(0,0,0)" />
	<circle cx="-1" cy="-1" r="0.125" style="fill: rgb(0,0,0)" />
	<path class="path" d="M -1 -1  L  1 -2 " id="path-393" style="stroke: rgb(0,0,0)" />
	<circle cx="1" cy="-2" r="0.125" style="fill: rgb(0,0,0)" />
	<path class="path" d="M 1 -2  L  3 -1 " id="path-394" style="stroke: rgb(0,0,0)" />
	<circle cx="3" cy="-1" r="0.125" style="fill: rgb(0,0,0)" />
	<path class="path" d="M 3 -1  L  2 -3 " id="path-395" style="stroke: rgb(0,0,0)" />
	<circle cx="2" cy="-3" r="0.125" style="fill: rgb(0,0,0)" />
	<path class="path" d="M 2 -3  L  4 -2 " id="path-396" style="stroke: rgb(0,0,0)" />
	<circle cx="4" cy="-2" r="0.125" style="fill: rgb(0,0,0)" />
	<path class="path" d="M 4 -2  L  2 -1 " id="path-397" style="stroke: rgb(0,0,0)" />
	<circle cx="2" cy="-1" r="0.125" style="fill: rgb(0,0,0)" />
	<path class="path" d="M 2 -1  L  1 1 " id="path-398" style="stroke: rgb(0,0,0)" />
	<circle cx="1" cy="1" r="0.125" style="fill: rgb(0,0,0)" />
	<path class="path" d="M 1 1  L  -1 2 " id="path-399" style="stroke: rgb(0,0,0)" />
	<circle cx="-1" cy="2" r="0.125" style="fill: rgb(0,0,0)" />
	<path class="path" d="M -1 2  L  -2 0 " id="path-400" style="stroke: rgb(0,0,0)" />
	<circle cx="-2" cy="0" r="0.125" style="fill: rgb(0,0,0)" />
	<path class="path" d="M -2 0 " id="path-401" style="stroke: rgb(0,0,0)" />
	<path class="path" d="M -2 0  L  -1 -2 " id="path-402" style="stroke: rgb(0,0,0)" />
	<circle cx="-1" cy="-2" r="0.125" style="fill: rgb(0,0,0)" />
	<path class="path" d="M -1 -2  L  -3 -3 " id="path-403" style="stroke: rgb(0,0,0)" />
	<circle cx="-3" cy="-3" r="0.125" style="fill: rgb(0,0,0)" />
	<path class="path" d="M -3 -3  L  -2 -1 " id="path-404" style="stroke: rgb(0,0,0)" />
	<circle cx="-2" cy="-1" r="0.125" style="fill: rgb(0,0,0)" />
	<path class="path" d="M -2 -1  L  -1 -3 " id="path-405" style="stroke: rgb(0,0,0)" />
	<circle cx="-1" cy="-3" r="0.125" style="fill: rgb(0,0,0)" />
	<path class="path" d="M -1 -3  L  -3 -2 " id="path-406" style="stroke: rgb(0,0,0)" />
	<circle cx="-3" cy="-2" r="0.125" style="fill: rgb(0,0,0)" />
	<path class="path" d="M -3 -2  L  -4 0 " id="path-407" style="stroke: rgb(0,0,0)" />
	<circle cx="-4" cy="0" r="0.125" style="fill: rgb(0,0,0)" />
	<path class="path" d="M -4 0  L  -3 2 " id="path-408" style="stroke: rgb(0,0,0)" />
	<circle cx="-3" cy="2" r="0.125" style="fill: rgb(0,0,0)" />
	<path class="path" d="M -3 2  L  -1 1 " id="path-409" style="stroke: rgb(0,0,0)" />
	<circle cx="-1" cy="1" r="0.125" style="fill: rgb(0,0,0)" />
	<path class="path" d="M -1 1  L  1 2 " id="path-410" style="stroke: rgb(0,0,0)" />
	<circle cx="1" cy="2" r="0.125" style="fill: rgb(0,0,0)" />
	<path class="path" d="M 1 2  L  3 1 " id="path-411" style="stroke: rgb(0,0,0)" />
	<circle cx="3" cy="1" r="0.125" style="fill: rgb(0,0,0)" />
	<path class="path" d="M 3 1  L  2 3 " id="path-412" style="stroke: rgb(0,0,0)" />
	<circle cx="2" cy="3" r="0.125" style="fill: rgb(0,0,0)" />
	<path class="path" d="M 2 3  L  4 2 " id="path-413" style="stroke: rgb(0,0,0)" />
	<circle cx="4" cy="2" r="0.125" style="fill: rgb(0,0,0)" />
	<path class="path" d="M 4 2  L  3 0 " id="path-414" style="stroke: rgb(0,0,0)" />
	<circle cx="3" cy="0" r="0.125" style="fill: rgb(0,0,0)" />
	<path class="path" d="M 3 0  L  5 1 " id="path-415" style="stroke: rgb(0,0,0)" />
	<circle cx="5" cy="1" r="0.125" style="fill: rgb(0,0,0)" />
	<path class="path" d="M 5 1  L  3 2 " id="path-416" style="stroke: rgb(0,0,0)" />
	<circle cx="3" cy="2" r="0.125" style="fill: rgb(0,0,0)" />
	<path class="path" d="M 3 2  L  1 3 " id="path-417" style="stroke: rgb(0,0,0)" />
	<circle cx="1" cy="3" r="0.125" style="fill: rgb(0,0,0)" />
	<path class="path" d="M 1 3  L  -1 4 " id="path-418" style="stroke: rgb(0,0,0)" />
	<circle cx="-1" cy="4" r="0.125" style="fill: rgb(0,0,0)" />
	<path class="path" d="M -1 4  L  -2 2 " id="path-419" style="stroke: rgb(0,0,0)" />
	<circle cx="-2" cy="2" r="0.125" style="fill: rgb(0,0,0)" />
	<path class="path" d="M -2 2  L  -3 4 " id="path-420" style="stroke: rgb(0,0,0)" />
	<circle cx="-3" cy="4" r="0.125" style="fill: rgb(0,0,0)" />
	<path class="path" d="M -3 4  L  -1 3 " id="path-421" style="stroke: rgb(0,0,0)" />
	<circle cx="-1" cy="3" r="0.125" style="fill: rgb(0,0,0)" />
	<path class="path" d="M -1 3  L  1 4 " id="path-422" style="stroke: rgb(0,0,0)" />
	<circle cx="1" cy="4" r="0.125" style="fill: rgb(0,0,0)" />
	<path class="path" d="M 1 4  L  3 3 " id="path-423" style="stroke: rgb(0,0,0)" />
	<circle cx="3" cy="3" r="0.125" style="fill: rgb(0,0,0)" />
	<path class="path" d="M 3 3  L  5 4 " id="path-424" style="stroke: rgb(0,0,0)" />
	<circle cx="5" cy="4" r="0.125" style="fill: rgb(0,0,0)" />
	<path class="path" d="M 5 4  L  3 5 " id="path-425" style="stroke: rgb(0,0,0)" />
	<circle cx="3" cy="5" r="0.125" style="fill: rgb(0,0,0)" />
	<path class="path" d="M 3 5  L  4 3 " id="path-426" style="stroke: rgb(0,0,0)" />
	<circle cx="4" cy="3" r="0.125" style="fill: rgb(0,0,0)" />
	<path class="path" d="M 4 3  L  5 5 " id="path-427" style="stroke: rgb(0,0,0)" />
	<circle cx="5" cy="5" r="0.125" style="fill: rgb(0,0,0)" />
	<path class="path" d="M 5 5  L  3 4 " id="path-428" style="stroke: rgb(0,0,0)" />
	<circle cx="3" cy="4" r="0.125" style="fill: rgb(0,0,0)" />
	<path class="path" d="M 3 4  L  5 3 " id="path-429" style="stroke: rgb(0,0,0)" />
	<circle cx="5" cy="3" r="0.125" style="fill: rgb(0,0,0)" />
	<path class="path" d="M 5 3  L  4 1 " id="path-430" style="stroke: rgb(0,0,0)" />
	<circle cx="4" cy="1" r="0.125" style="fill: rgb(0,0,0)" />
	<path class="path" d="M 4 1  L  5 -1 " id="path-431" style="stroke: rgb(0,0,0)" />
	<circle cx="5" cy="-1" r="0.125" style="fill: rgb(0,0,0)" />
	<path class="path" d="M 5 -1  L  3 -2 " id="path-432" style="stroke: rgb(0,0,0)" />
	<circle cx="3" cy="-2" r="0.125" style="fill: rgb(0,0,0)" />
	<path class="path" d="M 3 -2 " id="path-433" style="stroke: rgb(0,0,0)" />
	<path class="path" d="M 3 -2  L  1 -3 " id="path-434" style="stroke: rgb(0,0,0)" />
	<circle cx="1" cy="-3" r="0.125" style="fill: rgb(0,0,0)" />
	<path class="path" d="M 1 -3  L  -1 -4 " id="path-435" style="stroke: rgb(0,0,0)" />
	<circle cx="-1" cy="-4" r="0.125" style="fill: rgb(0,0,0)" />
	<path class="path" d="M -1 -4  L  1 -5 " id="path-436" style="stroke: rgb(0,0,0)" />
	<circle cx="1" cy="-5" r="0.125" style="fill: rgb(0,0,0)" />
	<path class="path" d="M 1 -5  L  0 -3 " id="path-437" style="stroke: rgb(0,0,0)" />
	<circle cx="0" cy="-3" r="0.125" style="fill: rgb(0,0,0)" />
	<path class="path" d="M 0 -3  L  -1 -5 " id="path-438" style="stroke: rgb(0,0,0)" />
	<circle cx="-1" cy="-5" r="0.125" style="fill: rgb(0,0,0)" />
	<path class="path" d="M -1 -5  L  1 -4 " id="path-439" style="stroke: rgb(0,0,0)" />
	<circle cx="1" cy="-4" r="0.125" style="fill: rgb(0,0,0)" />
	<path class="path" d="M 1 -4  L  3 -3 " id="path-440" style="stroke: rgb(0,0,0)" />
	<circle cx="3" cy="-3" r="0.125" style="fill: rgb(0,0,0)" />
	<path class="path" d="M 3 -3  L  5 -2 " id="path-441" style="stroke: rgb(0,0,0)" />
	<circle cx="5" cy="-2" r="0.125" style="fill: rgb(0,0,0)" />
	<path class="path" d="M 5 -2  L  4 -4 " id="path-442" style="stroke: rgb(0,0,0)" />
	<circle cx="4" cy="-4" r="0.125" style="fill: rgb(0,0,0)" />
	<path class="path" d="M 4 -4  L  2 -5 " id="path-443" style="stroke: rgb(0,0,0)" />
	<circle cx="2" cy="-5" r="0.125" style="fill: rgb(0,0,0)" />
	<path class="path" d="M 2 -5  L  4 -6 " id="path-444" style="stroke: rgb(0,0,0)" />
	<circle cx="4" cy="-6" r="0.125" style="fill: rgb(0,0,0)" />
	<path class="path" d="M 4 -6  L  3 -4 " id="path-445" style="stroke: rgb(0,0,0)" />
	<circle cx="3" cy="-4" r="0.125" style="fill: rgb(0,0,0)" />
	<path class="path" d="M 3 -4  L  2 -6 " id="path-446" style="stroke: rgb(0,0,0)" />
	<circle cx="2" cy="-6" r="0.125" style="fill: rgb(0,0,0)" />
	<path class="path" d="M 2 -6  L  4 -5 " id="path-447" style="stroke: rgb(0,0,0)" />
	<circle cx="4" cy="-5" r="0.125" style="fill: rgb(0,0,0)" />
	<path class="path" d="M 4 -5  L  2 -4 " id="path-448" style="stroke: rgb(0,0,0)" />
	<circle cx="2" cy="-4" r="0.125" style="fill: rgb(0,0,0)" />
	<circle class="terminal terminal-start" cx="0" cy="0" r="0.25" />
	<circle class="terminal terminal-finish" cx="2" cy="-4" r="0.25" />
	<style><![CDATA[    circle.terminal  {fill:          black;}
    circle.unvisited {fill:          rgb(200,200,200);
                      opacity:      .5,}
    path.path        {fill-opacity:  0;
                      opacity:      .5;
                      stroke-width: .1;}
]]></style>
	<style><![CDATA[    svg                     {background-color: rgb(232,235,239);}
    circle.terminal-finish  {fill: red;}
    circle.terminal-start   {fill: green;}
]]></style>
	<!--
	Generated using the Perl SVG Module V2.84
	by Ronan Oger
	Info: http://www.roitsystems.com/
	-->
</svg>