
<svg height="100%" style="    display:    block;
    border:     1px solid #ccc;
    position:   absolute;
    top:        5%;
    left:       5%;
    width:      90%;
    height:     90%;
    background: #fff;
" viewBox="-11 -12 21 24" width="100%" xmlns="http://www.w3.org/2000/svg" xmlns:svg="http://www.w3.org/2000/svg" xmlns:xlink="http://www.w3.org/1999/xlink">
	<path class="path" d="M 0 0  L  0 -1  L  -1 1  L  -1 0  L  -1 -1  L  0 1 " id="path-833" style="stroke: rgb(0,0,0)" />
	<circle cx="0" cy="-1" r="0.125" style="fill: rgb(0,0,0)" />
	<circle cx="-1" cy="1" r="0.125" style="fill: rgb(0,0,0)" />
	<circle cx="-1" cy="0" r="0.125" style="fill: rgb(0,0,0)" />
	<circle cx="-1" cy="-1" r="0.125" style="fill: rgb(0,0,0)" />
	<circle cx="0" cy="1" r="0.125" style="fill: rgb(0,0,0)" />
	<path class="path" d="M 0 1  L  1 -1  L  1 0  L  1 1  L  2 -1 " id="path-834" style="stroke: rgb(0,0,0)" />
	<circle cx="1" cy="-1" r="0.125" style="fill: rgb(0,0,0)" />
	<circle cx="1" cy="0" r="0.125" style="fill: rgb(0,0,0)" />
	<circle cx="1" cy="1" r="0.125" style="fill: rgb(0,0,0)" />
	<circle cx="2" cy="-1" r="0.125" style="fill: rgb(0,0,0)" />
	<path class="path" d="M 2 -1  L  2 0  L  2 1  L  2 2  L  -1 2  L  -2 0 " id="path-835" style="stroke: rgb(0,0,0)" />
	<circle cx="2" cy="0" r="0.125" style="fill: rgb(0,0,0)" />
	<circle cx="2" cy="1" r="0.125" style="fill: rgb(0,0,0)" />
	<circle cx="2" cy="2" r="0.125" style="fill: rgb(0,0,0)" />
	<circle cx="-1" cy="2" r="0.125" style="fill: rgb(0,0,0)" />
	<circle cx="-2" cy="0" r="0.125" style="fill: rgb(0,0,0)" />
	<path class="path" d="M -2 0  L  -1 -2  L  2 -2  L  3 0  L  3 1  L  3 2 " id="path-836" style="stroke: rgb(0,0,0)" />
	<circle cx="-1" cy="-2" r="0.125" style="fill: rgb(0,0,0)" />
	<circle cx="2" cy="-2" r="0.125" style="fill: rgb(0,0,0)" />
	<circle cx="3" cy="0" r="0.125" style="fill: rgb(0,0,0)" />
	<circle cx="3" cy="1" r="0.125" style="fill: rgb(0,0,0)" />
	<circle cx="3" cy="2" r="0.125" style="fill: rgb(0,0,0)" />
	<path class="path" d="M 3 2  L  3 3  L  0 3  L  0 2  L  -1 4  L  -2 2 " id="path-837" style="stroke: rgb(0,0,0)" />
	<circle cx="3" cy="3" r="0.125" style="fill: rgb(0,0,0)" />
	<circle cx="0" cy="3" r="0.125" style="fill: rgb(0,0,0)" />
	<circle cx="0" cy="2" r="0.125" style="fill: rgb(0,0,0)" />
	<circle cx="-1" cy="4" r="0.125" style="fill: rgb(0,0,0)" />
	<circle cx="-2" cy="2" r="0.125" style="fill: rgb(0,0,0)" />
	<path class="path" d="M -2 2  L  -2 1  L  -3 -1  L  -2 -3  L  -2 -2 " id="path-838" style="stroke: rgb(0,0,0)" />
	<circle cx="-2" cy="1" r="0.125" style="fill: rgb(0,0,0)" />
	<circle cx="-3" cy="-1" r="0.125" style="fill: rgb(0,0,0)" />
	<circle cx="-2" cy="-3" r="0.125" style="fill: rgb(0,0,0)" />
	<circle cx="-2" cy="-2" r="0.125" style="fill: rgb(0,0,0)" />
	<path class="path" d="M -2 -2  L  -2 -1  L  -1 -3  L  2 -3  L  3 -1  L  3 -2 " id="path-839" style="stroke: rgb(0,0,0)" />
	<circle cx="-2" cy="-1" r="0.125" style="fill: rgb(0,0,0)" />
	<circle cx="-1" cy="-3" r="0.125" style="fill: rgb(0,0,0)" />
	<circle cx="2" cy="-3" r="0.125" style="fill: rgb(0,0,0)" />
	<circle cx="3" cy="-1" r="0.125" style="fill: rgb(0,0,0)" />
	<circle cx="3" cy="-2" r="0.125" style="fill: rgb(0,0,0)" />
	<path class="path" d="M 3 -2  L  3 -3  L  4 -1  L  4 2  L  4 3  L  4 4 " id="path-840" style="stroke: rgb(0,0,0)" />
	<circle cx="3" cy="-3" r="0.125" style="fill: rgb(0,0,0)" />
	<circle cx="4" cy="-1" r="0.125" style="fill: rgb(0,0,0)" />
	<circle cx="4" cy="2" r="0.125" style="fill: rgb(0,0,0)" />
	<circle cx="4" cy="3" r="0.125" style="fill: rgb(0,0,0)" />
	<circle cx="4" cy="4" r="0.125" style="fill: rgb(0,0,0)" />
	<path class="path" d="M 4 4  L  1 4  L  1 3  L  1 2  L  0 4  L  0 5 " id="path-841" style="stroke: rgb(0,0,0)" />
	<circle cx="1" cy="4" r="0.125" style="fill: rgb(0,0,0)" />
	<circle cx="1" cy="3" r="0.125" style="fill: rgb(0,0,0)" />
	<circle cx="1" cy="2" r="0.125" style="fill: rgb(0,0,0)" />
	<circle cx="0" cy="4" r="0.125" style="fill: rgb(0,0,0)" />
	<circle cx="0" cy="5" r="0.125" style="fill: rgb(0,0,0)" />
	<path class="path" d="M 0 5  L  -1 3  L  -4 3  L  -3 1  L  -3 0 " id="path-842" style="stroke: rgb(0,0,0)" />
	<circle cx="-1" cy="3" r="0.125" style="fill: rgb(0,0,0)" />
	<circle cx="-4" cy="3" r="0.125" style="fill: rgb(0,0,0)" />
	<circle cx="-3" cy="1" r="0.125" style="fill: rgb(0,0,0)" />
	<circle cx="-3" cy="0" r="0.125" style="fill: rgb(0,0,0)" />
	<path class="path" d="M -3 0  L  -4 -2  L  -3 -4  L  -3 -3  L  -3 -2  L  -2 -4 " id="path-843" style="stroke: rgb(0,0,0)" />
	<circle cx="-4" cy="-2" r="0.125" style="fill: rgb(0,0,0)" />
	<circle cx="-3" cy="-4" r="0.125" style="fill: rgb(0,0,0)" />
	<circle cx="-3" cy="-3" r="0.125" style="fill: rgb(0,0,0)" />
	<circle cx="-3" cy="-2" r="0.125" style="fill: rgb(0,0,0)" />
	<circle cx="-2" cy="-4" r="0.125" style="fill: rgb(0,0,0)" />
	<path class="path" d="M -2 -4  L  1 -4  L  0 -2  L  0 -3  L  0 -4  L  1 -2 " id="path-844" style="stroke: rgb(0,0,0)" />
	<circle cx="1" cy="-4" r="0.125" style="fill: rgb(0,0,0)" />
	<circle cx="0" cy="-2" r="0.125" style="fill: rgb(0,0,0)" />
	<circle cx="0" cy="-3" r="0.125" style="fill: rgb(0,0,0)" />
	<circle cx="0" cy="-4" r="0.125" style="fill: rgb(0,0,0)" />
	<circle cx="1" cy="-2" r="0.125" style="fill: rgb(0,0,0)" />
	<path class="path" d="M 1 -2  L  1 -3  L  2 -5  L  2 -4  L  5 -4  L  4 -2 " id="path-845" style="stroke: rgb(0,0,0)" />
	<circle cx="1" cy="-3" r="0.125" style="fill: rgb(0,0,0)" />
	<circle cx="2" cy="-5" r="0.125" style="fill: rgb(0,0,0)" />
	<circle cx="2" cy="-4" r="0.125" style="fill: rgb(0,0,0)" />
	<circle cx="5" cy="-4" r="0.125" style="fill: rgb(0,0,0)" />
	<circle cx="4" cy="-2" r="0.125" style="fill: rgb(0,0,0)" />
	<path class="path" d="M 4 -2  L  4 -3  L  4 -4  L  5 -2  L  4 0 " id="path-846" style="stroke: rgb(0,0,0)" />
	<circle cx="4" cy="-3" r="0.125" style="fill: rgb(0,0,0)" />
	<circle cx="4" cy="-4" r="0.125" style="fill: rgb(0,0,0)" />
	<circle cx="5" cy="-2" r="0.125" style="fill: rgb(0,0,0)" />
	<circle cx="4" cy="0" r="0.125" style="fill: rgb(0,0,0)" />
	<path class="path" d="M 4 0  L  4 1  L  5 3  L  5 4  L  5 5  L  2 5 " id="path-847" style="stroke: rgb(0,0,0)" />
	<circle cx="4" cy="1" r="0.125" style="fill: rgb(0,0,0)" />
	<circle cx="5" cy="3" r="0.125" style="fill: rgb(0,0,0)" />
	<circle cx="5" cy="4" r="0.125" style="fill: rgb(0,0,0)" />
	<circle cx="5" cy="5" r="0.125" style="fill: rgb(0,0,0)" />
	<circle cx="2" cy="5" r="0.125" style="fill: rgb(0,0,0)" />
	<path class="path" d="M 2 5  L  2 4  L  2 3  L  1 5  L  1 6  L  -2 6 " id="path-848" style="stroke: rgb(0,0,0)" />
	<circle cx="2" cy="4" r="0.125" style="fill: rgb(0,0,0)" />
	<circle cx="2" cy="3" r="0.125" style="fill: rgb(0,0,0)" />
	<circle cx="1" cy="5" r="0.125" style="fill: rgb(0,0,0)" />
	<circle cx="1" cy="6" r="0.125" style="fill: rgb(0,0,0)" />
	<circle cx="-2" cy="6" r="0.125" style="fill: rgb(0,0,0)" />
	<path class="path" d="M -2 6  L  -2 3  L  -2 4  L  -3 2  L  -3 3 " id="path-849" style="stroke: rgb(0,0,0)" />
	<circle cx="-2" cy="3" r="0.125" style="fill: rgb(0,0,0)" />
	<circle cx="-2" cy="4" r="0.125" style="fill: rgb(0,0,0)" />
	<circle cx="-3" cy="2" r="0.125" style="fill: rgb(0,0,0)" />
	<circle cx="-3" cy="3" r="0.125" style="fill: rgb(0,0,0)" />
	<path class="path" d="M -3 3  L  -4 1  L  -4 0  L  -4 -1  L  -5 -3  L  -4 -5 " id="path-850" style="stroke: rgb(0,0,0)" />
	<circle cx="-4" cy="1" r="0.125" style="fill: rgb(0,0,0)" />
	<circle cx="-4" cy="0" r="0.125" style="fill: rgb(0,0,0)" />
	<circle cx="-4" cy="-1" r="0.125" style="fill: rgb(0,0,0)" />
	<circle cx="-5" cy="-3" r="0.125" style="fill: rgb(0,0,0)" />
	<circle cx="-4" cy="-5" r="0.125" style="fill: rgb(0,0,0)" />
	<path class="path" d="M -4 -5  L  -4 -4  L  -4 -3  L  -3 -5  L  0 -5  L  0 -6 " id="path-851" style="stroke: rgb(0,0,0)" />
	<circle cx="-4" cy="-4" r="0.125" style="fill: rgb(0,0,0)" />
	<circle cx="-4" cy="-3" r="0.125" style="fill: rgb(0,0,0)" />
	<circle cx="-3" cy="-5" r="0.125" style="fill: rgb(0,0,0)" />
	<circle cx="0" cy="-5" r="0.125" style="fill: rgb(0,0,0)" />
	<circle cx="0" cy="-6" r="0.125" style="fill: rgb(0,0,0)" />
	<path class="path" d="M 0 -6  L  -1 -4  L  -1 -5  L  -1 -6  L  -4 -6  L  -5 -4 " id="path-852" style="stroke: rgb(0,0,0)" />
	<circle cx="-1" cy="-4" r="0.125" style="fill: rgb(0,0,0)" />
	<circle cx="-1" cy="-5" r="0.125" style="fill: rgb(0,0,0)" />
	<circle cx="-1" cy="-6" r="0.125" style="fill: rgb(0,0,0)" />
	<circle cx="-4" cy="-6" r="0.125" style="fill: rgb(0,0,0)" />
	<circle cx="-5" cy="-4" r="0.125" style="fill: rgb(0,0,0)" />
	<path class="path" d="M -5 -4  L  -5 -5  L  -5 -6  L  -6 -4  L  -5 -2 " id="path-853" style="stroke: rgb(0,0,0)" />
	<circle cx="-5" cy="-5" r="0.125" style="fill: rgb(0,0,0)" />
	<circle cx="-5" cy="-6" r="0.125" style="fill: rgb(0,0,0)" />
	<circle cx="-6" cy="-4" r="0.125" style="fill: rgb(0,0,0)" />
	<circle cx="-5" cy="-2" r="0.125" style="fill: rgb(0,0,0)" />
	<path class="path" d="M -5 -2  L  -5 -1  L  -5 0  L  -4 2  L  -3 4  L  -3 5 " id="path-854" style="stroke: rgb(0,0,0)" />
	<circle cx="-5" cy="-1" r="0.125" style="fill: rgb(0,0,0)" />
	<circle cx="-5" cy="0" r="0.125" style="fill: rgb(0,0,0)" />
	<circle cx="-4" cy="2" r="0.125" style="fill: rgb(0,0,0)" />
	<circle cx="-3" cy="4" r="0.125" style="fill: rgb(0,0,0)" />
	<circle cx="-3" cy="5" r="0.125" style="fill: rgb(0,0,0)" />
	<path class="path" d="M -3 5  L  -6 5  L  -5 3  L  -5 2  L  -4 4  L  -4 5 " id="path-855" style="stroke: rgb(0,0,0)" />
	<circle cx="-6" cy="5" r="0.125" style="fill: rgb(0,0,0)" />
	<circle cx="-5" cy="3" r="0.125" style="fill: rgb(0,0,0)" />
	<circle cx="-5" cy="2" r="0.125" style="fill: rgb(0,0,0)" />
	<circle cx="-4" cy="4" r="0.125" style="fill: rgb(0,0,0)" />
	<circle cx="-4" cy="5" r="0.125" style="fill: rgb(0,0,0)" />
	<path class="path" d="M -4 5  L  -4 6  L  -5 4  L  -5 5  L  -6 3  L  -5 1 " id="path-856" style="stroke: rgb(0,0,0)" />
	<circle cx="-4" cy="6" r="0.125" style="fill: rgb(0,0,0)" />
	<circle cx="-5" cy="4" r="0.125" style="fill: rgb(0,0,0)" />
	<circle cx="-5" cy="5" r="0.125" style="fill: rgb(0,0,0)" />
	<circle cx="-6" cy="3" r="0.125" style="fill: rgb(0,0,0)" />
	<circle cx="-5" cy="1" r="0.125" style="fill: rgb(0,0,0)" />
	<path class="path" d="M -5 1  L  -6 -1  L  -6 -2  L  -6 -3  L  -7 -5 " id="path-857" style="stroke: rgb(0,0,0)" />
	<circle cx="-6" cy="-1" r="0.125" style="fill: rgb(0,0,0)" />
	<circle cx="-6" cy="-2" r="0.125" style="fill: rgb(0,0,0)" />
	<circle cx="-6" cy="-3" r="0.125" style="fill: rgb(0,0,0)" />
	<circle cx="-7" cy="-5" r="0.125" style="fill: rgb(0,0,0)" />
	<path class="path" d="M -7 -5  L  -6 -7  L  -6 -6  L  -6 -5  L  -5 -7  L  -2 -7 " id="path-858" style="stroke: rgb(0,0,0)" />
	<circle cx="-6" cy="-7" r="0.125" style="fill: rgb(0,0,0)" />
	<circle cx="-6" cy="-6" r="0.125" style="fill: rgb(0,0,0)" />
	<circle cx="-6" cy="-5" r="0.125" style="fill: rgb(0,0,0)" />
	<circle cx="-5" cy="-7" r="0.125" style="fill: rgb(0,0,0)" />
	<circle cx="-2" cy="-7" r="0.125" style="fill: rgb(0,0,0)" />
	<path class="path" d="M -2 -7  L  -2 -6  L  -2 -5  L  -1 -7  L  2 -7  L  3 -5 " id="path-859" style="stroke: rgb(0,0,0)" />
	<circle cx="-2" cy="-6" r="0.125" style="fill: rgb(0,0,0)" />
	<circle cx="-2" cy="-5" r="0.125" style="fill: rgb(0,0,0)" />
	<circle cx="-1" cy="-7" r="0.125" style="fill: rgb(0,0,0)" />
	<circle cx="2" cy="-7" r="0.125" style="fill: rgb(0,0,0)" />
	<circle cx="3" cy="-5" r="0.125" style="fill: rgb(0,0,0)" />
	<path class="path" d="M 3 -5  L  3 -4  L  4 -6  L  4 -5  L  5 -3  L  6 -1 " id="path-860" style="stroke: rgb(0,0,0)" />
	<circle cx="3" cy="-4" r="0.125" style="fill: rgb(0,0,0)" />
	<circle cx="4" cy="-6" r="0.125" style="fill: rgb(0,0,0)" />
	<circle cx="4" cy="-5" r="0.125" style="fill: rgb(0,0,0)" />
	<circle cx="5" cy="-3" r="0.125" style="fill: rgb(0,0,0)" />
	<circle cx="6" cy="-1" r="0.125" style="fill: rgb(0,0,0)" />
	<path class="path" d="M 6 -1  L  5 1  L  5 2  L  6 4  L  6 5 " id="path-861" style="stroke: rgb(0,0,0)" />
	<circle cx="5" cy="1" r="0.125" style="fill: rgb(0,0,0)" />
	<circle cx="5" cy="2" r="0.125" style="fill: rgb(0,0,0)" />
	<circle cx="6" cy="4" r="0.125" style="fill: rgb(0,0,0)" />
	<circle cx="6" cy="5" r="0.125" style="fill: rgb(0,0,0)" />
	<path class="path" d="M 6 5  L  6 6  L  3 6  L  3 5  L  3 4  L  2 6 " id="path-862" style="stroke: rgb(0,0,0)" />
	<circle cx="6" cy="6" r="0.125" style="fill: rgb(0,0,0)" />
	<circle cx="3" cy="6" r="0.125" style="fill: rgb(0,0,0)" />
	<circle cx="3" cy="5" r="0.125" style="fill: rgb(0,0,0)" />
	<circle cx="3" cy="4" r="0.125" style="fill: rgb(0,0,0)" />
	<circle cx="2" cy="6" r="0.125" style="fill: rgb(0,0,0)" />
	<path class="path" d="M 2 6  L  2 7  L  -1 7  L  -2 5  L  -3 7  L  -3 6 " id="path-863" style="stroke: rgb(0,0,0)" />
	<circle cx="2" cy="7" r="0.125" style="fill: rgb(0,0,0)" />
	<circle cx="-1" cy="7" r="0.125" style="fill: rgb(0,0,0)" />
	<circle cx="-2" cy="5" r="0.125" style="fill: rgb(0,0,0)" />
	<circle cx="-3" cy="7" r="0.125" style="fill: rgb(0,0,0)" />
	<circle cx="-3" cy="6" r="0.125" style="fill: rgb(0,0,0)" />
	<path class="path" d="M -3 6  L  -4 8  L  -5 6  L  -6 4  L  -7 2  L  -6 0 " id="path-864" style="stroke: rgb(0,0,0)" />
	<circle cx="-4" cy="8" r="0.125" style="fill: rgb(0,0,0)" />
	<circle cx="-5" cy="6" r="0.125" style="fill: rgb(0,0,0)" />
	<circle cx="-6" cy="4" r="0.125" style="fill: rgb(0,0,0)" />
	<circle cx="-7" cy="2" r="0.125" style="fill: rgb(0,0,0)" />
	<circle cx="-6" cy="0" r="0.125" style="fill: rgb(0,0,0)" />
	<path class="path" d="M -6 0  L  -6 1  L  -6 2  L  -7 0  L  -7 -3 " id="path-865" style="stroke: rgb(0,0,0)" />
	<circle cx="-6" cy="1" r="0.125" style="fill: rgb(0,0,0)" />
	<circle cx="-6" cy="2" r="0.125" style="fill: rgb(0,0,0)" />
	<circle cx="-7" cy="0" r="0.125" style="fill: rgb(0,0,0)" />
	<circle cx="-7" cy="-3" r="0.125" style="fill: rgb(0,0,0)" />
	<path class="path" d="M -7 -3  L  -7 -4  L  -8 -6  L  -7 -8  L  -7 -7  L  -7 -6 " id="path-866" style="stroke: rgb(0,0,0)" />
	<circle cx="-7" cy="-4" r="0.125" style="fill: rgb(0,0,0)" />
	<circle cx="-8" cy="-6" r="0.125" style="fill: rgb(0,0,0)" />
	<circle cx="-7" cy="-8" r="0.125" style="fill: rgb(0,0,0)" />
	<circle cx="-7" cy="-7" r="0.125" style="fill: rgb(0,0,0)" />
	<circle cx="-7" cy="-6" r="0.125" style="fill: rgb(0,0,0)" />
	<path class="path" d="M -7 -6  L  -6 -8  L  -3 -8  L  -3 -7  L  -3 -6  L  -2 -8 " id="path-867" style="stroke: rgb(0,0,0)" />
	<circle cx="-6" cy="-8" r="0.125" style="fill: rgb(0,0,0)" />
	<circle cx="-3" cy="-8" r="0.125" style="fill: rgb(0,0,0)" />
	<circle cx="-3" cy="-7" r="0.125" style="fill: rgb(0,0,0)" />
	<circle cx="-3" cy="-6" r="0.125" style="fill: rgb(0,0,0)" />
	<circle cx="-2" cy="-8" r="0.125" style="fill: rgb(0,0,0)" />
	<path class="path" d="M -2 -8  L  1 -8  L  1 -5  L  1 -6  L  1 -7 " id="path-868" style="stroke: rgb(0,0,0)" />
	<circle cx="1" cy="-8" r="0.125" style="fill: rgb(0,0,0)" />
	<circle cx="1" cy="-5" r="0.125" style="fill: rgb(0,0,0)" />
	<circle cx="1" cy="-6" r="0.125" style="fill: rgb(0,0,0)" />
	<circle cx="1" cy="-7" r="0.125" style="fill: rgb(0,0,0)" />
	<path class="path" d="M 1 -7  L  2 -9  L  3 -7  L  3 -6  L  4 -8  L  5 -6 " id="path-869" style="stroke: rgb(0,0,0)" />
	<circle cx="2" cy="-9" r="0.125" style="fill: rgb(0,0,0)" />
	<circle cx="3" cy="-7" r="0.125" style="fill: rgb(0,0,0)" />
	<circle cx="3" cy="-6" r="0.125" style="fill: rgb(0,0,0)" />
	<circle cx="4" cy="-8" r="0.125" style="fill: rgb(0,0,0)" />
	<circle cx="5" cy="-6" r="0.125" style="fill: rgb(0,0,0)" />
	<path class="path" d="M 5 -6  L  5 -5  L  6 -3  L  5 -1  L  5 0  L  6 2 " id="path-870" style="stroke: rgb(0,0,0)" />
	<circle cx="5" cy="-5" r="0.125" style="fill: rgb(0,0,0)" />
	<circle cx="6" cy="-3" r="0.125" style="fill: rgb(0,0,0)" />
	<circle cx="5" cy="-1" r="0.125" style="fill: rgb(0,0,0)" />
	<circle cx="5" cy="0" r="0.125" style="fill: rgb(0,0,0)" />
	<circle cx="6" cy="2" r="0.125" style="fill: rgb(0,0,0)" />
	<path class="path" d="M 6 2  L  6 3  L  7 5  L  7 6  L  7 7  L  4 7 " id="path-871" style="stroke: rgb(0,0,0)" />
	<circle cx="6" cy="3" r="0.125" style="fill: rgb(0,0,0)" />
	<circle cx="7" cy="5" r="0.125" style="fill: rgb(0,0,0)" />
	<circle cx="7" cy="6" r="0.125" style="fill: rgb(0,0,0)" />
	<circle cx="7" cy="7" r="0.125" style="fill: rgb(0,0,0)" />
	<circle cx="4" cy="7" r="0.125" style="fill: rgb(0,0,0)" />
	<path class="path" d="M 4 7  L  4 6  L  4 5  L  3 7  L  3 8 " id="path-872" style="stroke: rgb(0,0,0)" />
	<circle cx="4" cy="6" r="0.125" style="fill: rgb(0,0,0)" />
	<circle cx="4" cy="5" r="0.125" style="fill: rgb(0,0,0)" />
	<circle cx="3" cy="7" r="0.125" style="fill: rgb(0,0,0)" />
	<circle cx="3" cy="8" r="0.125" style="fill: rgb(0,0,0)" />
	<path class="path" d="M 3 8  L  0 8  L  -1 6  L  -1 5  L  -2 7  L  -2 8 " id="path-873" style="stroke: rgb(0,0,0)" />
	<circle cx="0" cy="8" r="0.125" style="fill: rgb(0,0,0)" />
	<circle cx="-1" cy="6" r="0.125" style="fill: rgb(0,0,0)" />
	<circle cx="-1" cy="5" r="0.125" style="fill: rgb(0,0,0)" />
	<circle cx="-2" cy="7" r="0.125" style="fill: rgb(0,0,0)" />
	<circle cx="-2" cy="8" r="0.125" style="fill: rgb(0,0,0)" />
	<path class="path" d="M -2 8  L  -2 9  L  -5 9  L  -6 7  L  -6 6  L  -7 4 " id="path-874" style="stroke: rgb(0,0,0)" />
	<circle cx="-2" cy="9" r="0.125" style="fill: rgb(0,0,0)" />
	<circle cx="-5" cy="9" r="0.125" style="fill: rgb(0,0,0)" />
	<circle cx="-6" cy="7" r="0.125" style="fill: rgb(0,0,0)" />
	<circle cx="-6" cy="6" r="0.125" style="fill: rgb(0,0,0)" />
	<circle cx="-7" cy="4" r="0.125" style="fill: rgb(0,0,0)" />
	<path class="path" d="M -7 4  L  -7 3  L  -8 1  L  -7 -1  L  -7 -2  L  -8 -4 " id="path-875" style="stroke: rgb(0,0,0)" />
	<circle cx="-7" cy="3" r="0.125" style="fill: rgb(0,0,0)" />
	<circle cx="-8" cy="1" r="0.125" style="fill: rgb(0,0,0)" />
	<circle cx="-7" cy="-1" r="0.125" style="fill: rgb(0,0,0)" />
	<circle cx="-7" cy="-2" r="0.125" style="fill: rgb(0,0,0)" />
	<circle cx="-8" cy="-4" r="0.125" style="fill: rgb(0,0,0)" />
	<path class="path" d="M -8 -4  L  -8 -5  L  -9 -7  L  -8 -9  L  -8 -8 " id="path-876" style="stroke: rgb(0,0,0)" />
	<circle cx="-8" cy="-5" r="0.125" style="fill: rgb(0,0,0)" />
	<circle cx="-9" cy="-7" r="0.125" style="fill: rgb(0,0,0)" />
	<circle cx="-8" cy="-9" r="0.125" style="fill: rgb(0,0,0)" />
	<circle cx="-8" cy="-8" r="0.125" style="fill: rgb(0,0,0)" />
	<path class="path" d="M -8 -8  L  -8 -7  L  -7 -9  L  -4 -9  L  -4 -8  L  -4 -7 " id="path-877" style="stroke: rgb(0,0,0)" />
	<circle cx="-8" cy="-7" r="0.125" style="fill: rgb(0,0,0)" />
	<circle cx="-7" cy="-9" r="0.125" style="fill: rgb(0,0,0)" />
	<circle cx="-4" cy="-9" r="0.125" style="fill: rgb(0,0,0)" />
	<circle cx="-4" cy="-8" r="0.125" style="fill: rgb(0,0,0)" />
	<circle cx="-4" cy="-7" r="0.125" style="fill: rgb(0,0,0)" />
	<path class="path" d="M -4 -7  L  -3 -9  L  0 -9  L  0 -8  L  0 -7  L  1 -9 " id="path-878" style="stroke: rgb(0,0,0)" />
	<circle cx="-3" cy="-9" r="0.125" style="fill: rgb(0,0,0)" />
	<circle cx="0" cy="-9" r="0.125" style="fill: rgb(0,0,0)" />
	<circle cx="0" cy="-8" r="0.125" style="fill: rgb(0,0,0)" />
	<circle cx="0" cy="-7" r="0.125" style="fill: rgb(0,0,0)" />
	<circle cx="1" cy="-9" r="0.125" style="fill: rgb(0,0,0)" />
	<path class="path" d="M 1 -9  L  1 -10  L  2 -8  L  3 -10  L  3 -9  L  4 -7 " id="path-879" style="stroke: rgb(0,0,0)" />
	<circle cx="1" cy="-10" r="0.125" style="fill: rgb(0,0,0)" />
	<circle cx="2" cy="-8" r="0.125" style="fill: rgb(0,0,0)" />
	<circle cx="3" cy="-10" r="0.125" style="fill: rgb(0,0,0)" />
	<circle cx="3" cy="-9" r="0.125" style="fill: rgb(0,0,0)" />
	<circle cx="4" cy="-7" r="0.125" style="fill: rgb(0,0,0)" />
	<path class="path" d="M 4 -7  L  7 -7  L  6 -5  L  6 -4  L  7 -2 " id="path-880" style="stroke: rgb(0,0,0)" />
	<circle cx="7" cy="-7" r="0.125" style="fill: rgb(0,0,0)" />
	<circle cx="6" cy="-5" r="0.125" style="fill: rgb(0,0,0)" />
	<circle cx="6" cy="-4" r="0.125" style="fill: rgb(0,0,0)" />
	<circle cx="7" cy="-2" r="0.125" style="fill: rgb(0,0,0)" />
	<path class="path" d="M 7 -2  L  6 0  L  6 1  L  7 3  L  7 4  L  8 6 " id="path-881" style="stroke: rgb(0,0,0)" />
	<circle cx="6" cy="0" r="0.125" style="fill: rgb(0,0,0)" />
	<circle cx="6" cy="1" r="0.125" style="fill: rgb(0,0,0)" />
	<circle cx="7" cy="3" r="0.125" style="fill: rgb(0,0,0)" />
	<circle cx="7" cy="4" r="0.125" style="fill: rgb(0,0,0)" />
	<circle cx="8" cy="6" r="0.125" style="fill: rgb(0,0,0)" />
	<path class="path" d="M 8 6  L  8 7  L  8 8  L  5 8  L  5 7  L  5 6 " id="path-882" style="stroke: rgb(0,0,0)" />
	<circle cx="8" cy="7" r="0.125" style="fill: rgb(0,0,0)" />
	<circle cx="8" cy="8" r="0.125" style="fill: rgb(0,0,0)" />
	<circle cx="5" cy="8" r="0.125" style="fill: rgb(0,0,0)" />
	<circle cx="5" cy="7" r="0.125" style="fill: rgb(0,0,0)" />
	<circle cx="5" cy="6" r="0.125" style="fill: rgb(0,0,0)" />
	<path class="path" d="M 5 6  L  4 8  L  4 9  L  1 9  L  0 7 " id="path-883" style="stroke: rgb(0,0,0)" />
	<circle cx="4" cy="8" r="0.125" style="fill: rgb(0,0,0)" />
	<circle cx="4" cy="9" r="0.125" style="fill: rgb(0,0,0)" />
	<circle cx="1" cy="9" r="0.125" style="fill: rgb(0,0,0)" />
	<circle cx="0" cy="7" r="0.125" style="fill: rgb(0,0,0)" />
	<path class="path" d="M 0 7  L  0 6  L  -1 8  L  -1 9  L  -1 10  L  -4 10 " id="path-884" style="stroke: rgb(0,0,0)" />
	<circle cx="0" cy="6" r="0.125" style="fill: rgb(0,0,0)" />
	<circle cx="-1" cy="8" r="0.125" style="fill: rgb(0,0,0)" />
	<circle cx="-1" cy="9" r="0.125" style="fill: rgb(0,0,0)" />
	<circle cx="-1" cy="10" r="0.125" style="fill: rgb(0,0,0)" />
	<circle cx="-4" cy="10" r="0.125" style="fill: rgb(0,0,0)" />
	<path class="path" d="M -4 10  L  -5 8  L  -5 7  L  -6 9  L  -7 7  L  -7 6 " id="path-885" style="stroke: rgb(0,0,0)" />
	<circle cx="-5" cy="8" r="0.125" style="fill: rgb(0,0,0)" />
	<circle cx="-5" cy="7" r="0.125" style="fill: rgb(0,0,0)" />
	<circle cx="-6" cy="9" r="0.125" style="fill: rgb(0,0,0)" />
	<circle cx="-7" cy="7" r="0.125" style="fill: rgb(0,0,0)" />
	<circle cx="-7" cy="6" r="0.125" style="fill: rgb(0,0,0)" />
	<path class="path" d="M -7 6  L  -7 5  L  -8 3  L  -7 1  L  -8 -1  L  -8 -2 " id="path-886" style="stroke: rgb(0,0,0)" />
	<circle cx="-7" cy="5" r="0.125" style="fill: rgb(0,0,0)" />
	<circle cx="-8" cy="3" r="0.125" style="fill: rgb(0,0,0)" />
	<circle cx="-7" cy="1" r="0.125" style="fill: rgb(0,0,0)" />
	<circle cx="-8" cy="-1" r="0.125" style="fill: rgb(0,0,0)" />
	<circle cx="-8" cy="-2" r="0.125" style="fill: rgb(0,0,0)" />
	<path class="path" d="M -8 -2  L  -8 -3  L  -9 -5  L  -9 -6  L  -10 -8 " id="path-887" style="stroke: rgb(0,0,0)" />
	<circle cx="-8" cy="-3" r="0.125" style="fill: rgb(0,0,0)" />
	<circle cx="-9" cy="-5" r="0.125" style="fill: rgb(0,0,0)" />
	<circle cx="-9" cy="-6" r="0.125" style="fill: rgb(0,0,0)" />
	<circle cx="-10" cy="-8" r="0.125" style="fill: rgb(0,0,0)" />
	<path class="path" d="M -10 -8  L  -9 -10  L  -9 -9  L  -9 -8  L  -8 -10  L  -5 -10 " id="path-888" style="stroke: rgb(0,0,0)" />
	<circle cx="-9" cy="-10" r="0.125" style="fill: rgb(0,0,0)" />
	<circle cx="-9" cy="-9" r="0.125" style="fill: rgb(0,0,0)" />
	<circle cx="-9" cy="-8" r="0.125" style="fill: rgb(0,0,0)" />
	<circle cx="-8" cy="-10" r="0.125" style="fill: rgb(0,0,0)" />
	<circle cx="-5" cy="-10" r="0.125" style="fill: rgb(0,0,0)" />
	<path class="path" d="M -5 -10  L  -5 -9  L  -5 -8  L  -4 -10  L  -1 -10  L  -1 -9 " id="path-889" style="stroke: rgb(0,0,0)" />
	<circle cx="-5" cy="-9" r="0.125" style="fill: rgb(0,0,0)" />
	<circle cx="-5" cy="-8" r="0.125" style="fill: rgb(0,0,0)" />
	<circle cx="-4" cy="-10" r="0.125" style="fill: rgb(0,0,0)" />
	<circle cx="-1" cy="-10" r="0.125" style="fill: rgb(0,0,0)" />
	<circle cx="-1" cy="-9" r="0.125" style="fill: rgb(0,0,0)" />
	<path class="path" d="M -1 -9  L  -1 -8  L  0 -10  L  0 -11  L  3 -11  L  4 -9 " id="path-890" style="stroke: rgb(0,0,0)" />
	<circle cx="-1" cy="-8" r="0.125" style="fill: rgb(0,0,0)" />
	<circle cx="0" cy="-10" r="0.125" style="fill: rgb(0,0,0)" />
	<circle cx="0" cy="-11" r="0.125" style="fill: rgb(0,0,0)" />
	<circle cx="3" cy="-11" r="0.125" style="fill: rgb(0,0,0)" />
	<circle cx="4" cy="-9" r="0.125" style="fill: rgb(0,0,0)" />
	<path class="path" d="M 4 -9  L  5 -7  L  5 -8  L  6 -6  L  7 -4 " id="path-891" style="stroke: rgb(0,0,0)" />
	<circle cx="5" cy="-7" r="0.125" style="fill: rgb(0,0,0)" />
	<circle cx="5" cy="-8" r="0.125" style="fill: rgb(0,0,0)" />
	<circle cx="6" cy="-6" r="0.125" style="fill: rgb(0,0,0)" />
	<circle cx="7" cy="-4" r="0.125" style="fill: rgb(0,0,0)" />
	<path class="path" d="M 7 -4  L  6 -2  L  7 0  L  7 1  L  7 2  L  8 4 " id="path-892" style="stroke: rgb(0,0,0)" />
	<circle cx="6" cy="-2" r="0.125" style="fill: rgb(0,0,0)" />
	<circle cx="7" cy="0" r="0.125" style="fill: rgb(0,0,0)" />
	<circle cx="7" cy="1" r="0.125" style="fill: rgb(0,0,0)" />
	<circle cx="7" cy="2" r="0.125" style="fill: rgb(0,0,0)" />
	<circle cx="8" cy="4" r="0.125" style="fill: rgb(0,0,0)" />
	<path class="path" d="M 8 4  L  8 5  L  9 7  L  9 8  L  9 9  L  6 9 " id="path-893" style="stroke: rgb(0,0,0)" />
	<circle cx="8" cy="5" r="0.125" style="fill: rgb(0,0,0)" />
	<circle cx="9" cy="7" r="0.125" style="fill: rgb(0,0,0)" />
	<circle cx="9" cy="8" r="0.125" style="fill: rgb(0,0,0)" />
	<circle cx="9" cy="9" r="0.125" style="fill: rgb(0,0,0)" />
	<circle cx="6" cy="9" r="0.125" style="fill: rgb(0,0,0)" />
	<path class="path" d="M 6 9  L  6 8  L  6 7  L  5 9  L  5 10  L  2 10 " id="path-894" style="stroke: rgb(0,0,0)" />
	<circle cx="6" cy="8" r="0.125" style="fill: rgb(0,0,0)" />
	<circle cx="6" cy="7" r="0.125" style="fill: rgb(0,0,0)" />
	<circle cx="5" cy="9" r="0.125" style="fill: rgb(0,0,0)" />
	<circle cx="5" cy="10" r="0.125" style="fill: rgb(0,0,0)" />
	<circle cx="2" cy="10" r="0.125" style="fill: rgb(0,0,0)" />
	<path class="path" d="M 2 10  L  1 8  L  1 7  L  0 9  L  0 10 " id="path-895" style="stroke: rgb(0,0,0)" />
	<circle cx="1" cy="8" r="0.125" style="fill: rgb(0,0,0)" />
	<circle cx="1" cy="7" r="0.125" style="fill: rgb(0,0,0)" />
	<circle cx="0" cy="9" r="0.125" style="fill: rgb(0,0,0)" />
	<circle cx="0" cy="10" r="0.125" style="fill: rgb(0,0,0)" />
	<path class="path" d="M 0 10  L  0 11  L  -3 11  L  -3 8  L  -3 9  L  -4 7 " id="path-896" style="stroke: rgb(0,0,0)" />
	<circle cx="0" cy="11" r="0.125" style="fill: rgb(0,0,0)" />
	<circle cx="-3" cy="11" r="0.125" style="fill: rgb(0,0,0)" />
	<circle cx="-3" cy="8" r="0.125" style="fill: rgb(0,0,0)" />
	<circle cx="-3" cy="9" r="0.125" style="fill: rgb(0,0,0)" />
	<circle cx="-4" cy="7" r="0.125" style="fill: rgb(0,0,0)" />
	<circle class="terminal terminal-start" cx="0" cy="0" r="0.25" />
	<circle class="terminal terminal-finish" cx="-4" cy="7" r="0.25" />
	<style><![CDATA[    circle.terminal  {fill:          black;}
    circle.unvisited {fill:          rgb(200,200,200);
                      opacity:      .5,}
    path.path        {fill-opacity:  0;
                      opacity:      .5;
                      stroke-width: .1;}
]]></style>
	<style><![CDATA[    svg                     {background-color: rgb(232,235,239);}
    circle.terminal-finish  {fill: red;}
    circle.terminal-start   {fill: green;}
]]></style>
	<!--
	Generated using the Perl SVG Module V2.84
	by Ronan Oger
	Info: http://www.roitsystems.com/
	-->
</svg>