
<svg height="100%" style="    display:    block;
    border:     1px solid #ccc;
    position:   absolute;
    top:        5%;
    left:       5%;
    width:      90%;
    height:     90%;
    background: #fff;
" viewBox="-15 -15 18 25" width="100%" xmlns="http://www.w3.org/2000/svg" xmlns:svg="http://www.w3.org/2000/svg" xmlns:xlink="http://www.w3.org/1999/xlink">
	<path class="path" d="M 0 0  L  0 -1  L  1 0 " id="path-1089" style="stroke: rgb(0,0,0)" />
	<circle cx="0" cy="-1" r="0.125" style="fill: rgb(0,0,0)" />
	<circle cx="1" cy="0" r="0.125" style="fill: rgb(0,0,0)" />
	<path class="path" d="M 1 0  L  1 -1  L  2 0  L  1 1 " id="path-1090" style="stroke: rgb(0,0,0)" />
	<circle cx="1" cy="-1" r="0.125" style="fill: rgb(0,0,0)" />
	<circle cx="2" cy="0" r="0.125" style="fill: rgb(0,0,0)" />
	<circle cx="1" cy="1" r="0.125" style="fill: rgb(0,0,0)" />
	<path class="path" d="M 1 1  L  0 2  L  0 1 " id="path-1091" style="stroke: rgb(0,0,0)" />
	<circle cx="0" cy="2" r="0.125" style="fill: rgb(0,0,0)" />
	<circle cx="0" cy="1" r="0.125" style="fill: rgb(0,0,0)" />
	<path class="path" d="M 0 1  L  -1 2  L  -1 -1 " id="path-1092" style="stroke: rgb(0,0,0)" />
	<circle cx="-1" cy="2" r="0.125" style="fill: rgb(0,0,0)" />
	<circle cx="-1" cy="-1" r="0.125" style="fill: rgb(0,0,0)" />
	<path class="path" d="M -1 -1  L  -1 -2  L  -2 -1 " id="path-1093" style="stroke: rgb(0,0,0)" />
	<circle cx="-1" cy="-2" r="0.125" style="fill: rgb(0,0,0)" />
	<circle cx="-2" cy="-1" r="0.125" style="fill: rgb(0,0,0)" />
	<path class="path" d="M -2 -1  L  -1 0  L  -2 1  L  -2 0 " id="path-1094" style="stroke: rgb(0,0,0)" />
	<circle cx="-1" cy="0" r="0.125" style="fill: rgb(0,0,0)" />
	<circle cx="-2" cy="1" r="0.125" style="fill: rgb(0,0,0)" />
	<circle cx="-2" cy="0" r="0.125" style="fill: rgb(0,0,0)" />
	<path class="path" d="M -2 0  L  -1 1  L  -2 2 " id="path-1095" style="stroke: rgb(0,0,0)" />
	<circle cx="-1" cy="1" r="0.125" style="fill: rgb(0,0,0)" />
	<circle cx="-2" cy="2" r="0.125" style="fill: rgb(0,0,0)" />
	<path class="path" d="M -2 2  L  -3 3  L  -3 -3 " id="path-1096" style="stroke: rgb(0,0,0)" />
	<circle cx="-3" cy="3" r="0.125" style="fill: rgb(0,0,0)" />
	<circle cx="-3" cy="-3" r="0.125" style="fill: rgb(0,0,0)" />
	<path class="path" d="M -3 -3  L  -2 -2  L  -2 -3  L  -3 -2 " id="path-1097" style="stroke: rgb(0,0,0)" />
	<circle cx="-2" cy="-2" r="0.125" style="fill: rgb(0,0,0)" />
	<circle cx="-2" cy="-3" r="0.125" style="fill: rgb(0,0,0)" />
	<circle cx="-3" cy="-2" r="0.125" style="fill: rgb(0,0,0)" />
	<path class="path" d="M -3 -2  L  -4 -1  L  -3 0 " id="path-1098" style="stroke: rgb(0,0,0)" />
	<circle cx="-4" cy="-1" r="0.125" style="fill: rgb(0,0,0)" />
	<circle cx="-3" cy="0" r="0.125" style="fill: rgb(0,0,0)" />
	<path class="path" d="M -3 0  L  -3 -1  L  -4 0 " id="path-1099" style="stroke: rgb(0,0,0)" />
	<circle cx="-3" cy="-1" r="0.125" style="fill: rgb(0,0,0)" />
	<circle cx="-4" cy="0" r="0.125" style="fill: rgb(0,0,0)" />
	<path class="path" d="M -4 0  L  -3 1  L  -4 2 " id="path-1100" style="stroke: rgb(0,0,0)" />
	<circle cx="-3" cy="1" r="0.125" style="fill: rgb(0,0,0)" />
	<circle cx="-4" cy="2" r="0.125" style="fill: rgb(0,0,0)" />
	<path class="path" d="M -4 2  L  -4 1  L  -3 2  L  -2 3 " id="path-1101" style="stroke: rgb(0,0,0)" />
	<circle cx="-4" cy="1" r="0.125" style="fill: rgb(0,0,0)" />
	<circle cx="-3" cy="2" r="0.125" style="fill: rgb(0,0,0)" />
	<circle cx="-2" cy="3" r="0.125" style="fill: rgb(0,0,0)" />
	<path class="path" d="M -2 3  L  -3 4  L  -4 5 " id="path-1102" style="stroke: rgb(0,0,0)" />
	<circle cx="-3" cy="4" r="0.125" style="fill: rgb(0,0,0)" />
	<circle cx="-4" cy="5" r="0.125" style="fill: rgb(0,0,0)" />
	<path class="path" d="M -4 5  L  -4 3  L  -5 4 " id="path-1103" style="stroke: rgb(0,0,0)" />
	<circle cx="-4" cy="3" r="0.125" style="fill: rgb(0,0,0)" />
	<circle cx="-5" cy="4" r="0.125" style="fill: rgb(0,0,0)" />
	<path class="path" d="M -5 4  L  -5 -5  L  -4 -4  L  -4 -5 " id="path-1104" style="stroke: rgb(0,0,0)" />
	<circle cx="-5" cy="-5" r="0.125" style="fill: rgb(0,0,0)" />
	<circle cx="-4" cy="-4" r="0.125" style="fill: rgb(0,0,0)" />
	<circle cx="-4" cy="-5" r="0.125" style="fill: rgb(0,0,0)" />
	<path class="path" d="M -4 -5  L  -3 -4  L  -4 -3 " id="path-1105" style="stroke: rgb(0,0,0)" />
	<circle cx="-3" cy="-4" r="0.125" style="fill: rgb(0,0,0)" />
	<circle cx="-4" cy="-3" r="0.125" style="fill: rgb(0,0,0)" />
	<path class="path" d="M -4 -3  L  -5 -2  L  -5 -4 " id="path-1106" style="stroke: rgb(0,0,0)" />
	<circle cx="-5" cy="-2" r="0.125" style="fill: rgb(0,0,0)" />
	<circle cx="-5" cy="-4" r="0.125" style="fill: rgb(0,0,0)" />
	<path class="path" d="M -5 -4  L  -6 -3  L  -6 -6 " id="path-1107" style="stroke: rgb(0,0,0)" />
	<circle cx="-6" cy="-3" r="0.125" style="fill: rgb(0,0,0)" />
	<circle cx="-6" cy="-6" r="0.125" style="fill: rgb(0,0,0)" />
	<path class="path" d="M -6 -6  L  -6 -7  L  -5 -6  L  -6 -5 " id="path-1108" style="stroke: rgb(0,0,0)" />
	<circle cx="-6" cy="-7" r="0.125" style="fill: rgb(0,0,0)" />
	<circle cx="-5" cy="-6" r="0.125" style="fill: rgb(0,0,0)" />
	<circle cx="-6" cy="-5" r="0.125" style="fill: rgb(0,0,0)" />
	<path class="path" d="M -6 -5  L  -7 -4  L  -7 -7 " id="path-1109" style="stroke: rgb(0,0,0)" />
	<circle cx="-7" cy="-4" r="0.125" style="fill: rgb(0,0,0)" />
	<circle cx="-7" cy="-7" r="0.125" style="fill: rgb(0,0,0)" />
	<path class="path" d="M -7 -7  L  -7 -8  L  -8 -7 " id="path-1110" style="stroke: rgb(0,0,0)" />
	<circle cx="-7" cy="-8" r="0.125" style="fill: rgb(0,0,0)" />
	<circle cx="-8" cy="-7" r="0.125" style="fill: rgb(0,0,0)" />
	<path class="path" d="M -8 -7  L  -7 -6  L  -8 -5 " id="path-1111" style="stroke: rgb(0,0,0)" />
	<circle cx="-7" cy="-6" r="0.125" style="fill: rgb(0,0,0)" />
	<circle cx="-8" cy="-5" r="0.125" style="fill: rgb(0,0,0)" />
	<path class="path" d="M -8 -5  L  -8 -6  L  -4 -2  L  -5 -1 " id="path-1112" style="stroke: rgb(0,0,0)" />
	<circle cx="-8" cy="-6" r="0.125" style="fill: rgb(0,0,0)" />
	<circle cx="-4" cy="-2" r="0.125" style="fill: rgb(0,0,0)" />
	<circle cx="-5" cy="-1" r="0.125" style="fill: rgb(0,0,0)" />
	<path class="path" d="M -5 -1  L  -6 0  L  -5 1 " id="path-1113" style="stroke: rgb(0,0,0)" />
	<circle cx="-6" cy="0" r="0.125" style="fill: rgb(0,0,0)" />
	<circle cx="-5" cy="1" r="0.125" style="fill: rgb(0,0,0)" />
	<path class="path" d="M -5 1  L  -5 0  L  -6 1 " id="path-1114" style="stroke: rgb(0,0,0)" />
	<circle cx="-5" cy="0" r="0.125" style="fill: rgb(0,0,0)" />
	<circle cx="-6" cy="1" r="0.125" style="fill: rgb(0,0,0)" />
	<path class="path" d="M -6 1  L  -5 2  L  -6 3  L  -6 2 " id="path-1115" style="stroke: rgb(0,0,0)" />
	<circle cx="-5" cy="2" r="0.125" style="fill: rgb(0,0,0)" />
	<circle cx="-6" cy="3" r="0.125" style="fill: rgb(0,0,0)" />
	<circle cx="-6" cy="2" r="0.125" style="fill: rgb(0,0,0)" />
	<path class="path" d="M -6 2  L  -4 4  L  -5 5 " id="path-1116" style="stroke: rgb(0,0,0)" />
	<circle cx="-4" cy="4" r="0.125" style="fill: rgb(0,0,0)" />
	<circle cx="-5" cy="5" r="0.125" style="fill: rgb(0,0,0)" />
	<path class="path" d="M -5 5  L  -6 6  L  -6 4 " id="path-1117" style="stroke: rgb(0,0,0)" />
	<circle cx="-6" cy="6" r="0.125" style="fill: rgb(0,0,0)" />
	<circle cx="-6" cy="4" r="0.125" style="fill: rgb(0,0,0)" />
	<path class="path" d="M -6 4  L  -7 5  L  -7 -3 " id="path-1118" style="stroke: rgb(0,0,0)" />
	<circle cx="-7" cy="5" r="0.125" style="fill: rgb(0,0,0)" />
	<circle cx="-7" cy="-3" r="0.125" style="fill: rgb(0,0,0)" />
	<path class="path" d="M -7 -3  L  -6 -2  L  -7 -1  L  -7 -2 " id="path-1119" style="stroke: rgb(0,0,0)" />
	<circle cx="-6" cy="-2" r="0.125" style="fill: rgb(0,0,0)" />
	<circle cx="-7" cy="-1" r="0.125" style="fill: rgb(0,0,0)" />
	<circle cx="-7" cy="-2" r="0.125" style="fill: rgb(0,0,0)" />
	<path class="path" d="M -7 -2  L  -6 -1  L  -7 0 " id="path-1120" style="stroke: rgb(0,0,0)" />
	<circle cx="-6" cy="-1" r="0.125" style="fill: rgb(0,0,0)" />
	<circle cx="-7" cy="0" r="0.125" style="fill: rgb(0,0,0)" />
	<path class="path" d="M -7 0  L  -8 1  L  -7 2 " id="path-1121" style="stroke: rgb(0,0,0)" />
	<circle cx="-8" cy="1" r="0.125" style="fill: rgb(0,0,0)" />
	<circle cx="-7" cy="2" r="0.125" style="fill: rgb(0,0,0)" />
	<path class="path" d="M -7 2  L  -7 1  L  -8 2  L  -7 3 " id="path-1122" style="stroke: rgb(0,0,0)" />
	<circle cx="-7" cy="1" r="0.125" style="fill: rgb(0,0,0)" />
	<circle cx="-8" cy="2" r="0.125" style="fill: rgb(0,0,0)" />
	<circle cx="-7" cy="3" r="0.125" style="fill: rgb(0,0,0)" />
	<path class="path" d="M -7 3  L  -8 4  L  -8 3 " id="path-1123" style="stroke: rgb(0,0,0)" />
	<circle cx="-8" cy="4" r="0.125" style="fill: rgb(0,0,0)" />
	<circle cx="-8" cy="3" r="0.125" style="fill: rgb(0,0,0)" />
	<path class="path" d="M -8 3  L  -6 5  L  -5 6 " id="path-1124" style="stroke: rgb(0,0,0)" />
	<circle cx="-6" cy="5" r="0.125" style="fill: rgb(0,0,0)" />
	<circle cx="-5" cy="6" r="0.125" style="fill: rgb(0,0,0)" />
	<path class="path" d="M -5 6  L  -6 7  L  -7 8 " id="path-1125" style="stroke: rgb(0,0,0)" />
	<circle cx="-6" cy="7" r="0.125" style="fill: rgb(0,0,0)" />
	<circle cx="-7" cy="8" r="0.125" style="fill: rgb(0,0,0)" />
	<path class="path" d="M -7 8  L  -7 6  L  -8 7  L  -8 5 " id="path-1126" style="stroke: rgb(0,0,0)" />
	<circle cx="-7" cy="6" r="0.125" style="fill: rgb(0,0,0)" />
	<circle cx="-8" cy="7" r="0.125" style="fill: rgb(0,0,0)" />
	<circle cx="-8" cy="5" r="0.125" style="fill: rgb(0,0,0)" />
	<path class="path" d="M -8 5  L  -9 6  L  -9 -9 " id="path-1127" style="stroke: rgb(0,0,0)" />
	<circle cx="-9" cy="6" r="0.125" style="fill: rgb(0,0,0)" />
	<circle cx="-9" cy="-9" r="0.125" style="fill: rgb(0,0,0)" />
	<path class="path" d="M -9 -9  L  -8 -8  L  -8 -9 " id="path-1128" style="stroke: rgb(0,0,0)" />
	<circle cx="-8" cy="-8" r="0.125" style="fill: rgb(0,0,0)" />
	<circle cx="-8" cy="-9" r="0.125" style="fill: rgb(0,0,0)" />
	<path class="path" d="M -8 -9  L  -9 -8  L  -10 -7  L  -9 -6 " id="path-1129" style="stroke: rgb(0,0,0)" />
	<circle cx="-9" cy="-8" r="0.125" style="fill: rgb(0,0,0)" />
	<circle cx="-10" cy="-7" r="0.125" style="fill: rgb(0,0,0)" />
	<circle cx="-9" cy="-6" r="0.125" style="fill: rgb(0,0,0)" />
	<path class="path" d="M -9 -6  L  -9 -7  L  -10 -6 " id="path-1130" style="stroke: rgb(0,0,0)" />
	<circle cx="-9" cy="-7" r="0.125" style="fill: rgb(0,0,0)" />
	<circle cx="-10" cy="-6" r="0.125" style="fill: rgb(0,0,0)" />
	<path class="path" d="M -10 -6  L  -8 -4  L  -9 -3 " id="path-1131" style="stroke: rgb(0,0,0)" />
	<circle cx="-8" cy="-4" r="0.125" style="fill: rgb(0,0,0)" />
	<circle cx="-9" cy="-3" r="0.125" style="fill: rgb(0,0,0)" />
	<path class="path" d="M -9 -3  L  -8 -2  L  -8 -3 " id="path-1132" style="stroke: rgb(0,0,0)" />
	<circle cx="-8" cy="-2" r="0.125" style="fill: rgb(0,0,0)" />
	<circle cx="-8" cy="-3" r="0.125" style="fill: rgb(0,0,0)" />
	<path class="path" d="M -8 -3  L  -9 -2  L  -8 -1  L  -9 0 " id="path-1133" style="stroke: rgb(0,0,0)" />
	<circle cx="-9" cy="-2" r="0.125" style="fill: rgb(0,0,0)" />
	<circle cx="-8" cy="-1" r="0.125" style="fill: rgb(0,0,0)" />
	<circle cx="-9" cy="0" r="0.125" style="fill: rgb(0,0,0)" />
	<path class="path" d="M -9 0  L  -9 -1  L  -8 0 " id="path-1134" style="stroke: rgb(0,0,0)" />
	<circle cx="-9" cy="-1" r="0.125" style="fill: rgb(0,0,0)" />
	<circle cx="-8" cy="0" r="0.125" style="fill: rgb(0,0,0)" />
	<path class="path" d="M -8 0  L  -9 1  L  -10 2 " id="path-1135" style="stroke: rgb(0,0,0)" />
	<circle cx="-9" cy="1" r="0.125" style="fill: rgb(0,0,0)" />
	<circle cx="-10" cy="2" r="0.125" style="fill: rgb(0,0,0)" />
	<path class="path" d="M -10 2  L  -9 3  L  -9 2  L  -10 3 " id="path-1136" style="stroke: rgb(0,0,0)" />
	<circle cx="-9" cy="3" r="0.125" style="fill: rgb(0,0,0)" />
	<circle cx="-9" cy="2" r="0.125" style="fill: rgb(0,0,0)" />
	<circle cx="-10" cy="3" r="0.125" style="fill: rgb(0,0,0)" />
	<path class="path" d="M -10 3  L  -9 4  L  -10 5 " id="path-1137" style="stroke: rgb(0,0,0)" />
	<circle cx="-9" cy="4" r="0.125" style="fill: rgb(0,0,0)" />
	<circle cx="-10" cy="5" r="0.125" style="fill: rgb(0,0,0)" />
	<path class="path" d="M -10 5  L  -10 4  L  -7 7 " id="path-1138" style="stroke: rgb(0,0,0)" />
	<circle cx="-10" cy="4" r="0.125" style="fill: rgb(0,0,0)" />
	<circle cx="-7" cy="7" r="0.125" style="fill: rgb(0,0,0)" />
	<path class="path" d="M -7 7  L  -8 8  L  -9 9 " id="path-1139" style="stroke: rgb(0,0,0)" />
	<circle cx="-8" cy="8" r="0.125" style="fill: rgb(0,0,0)" />
	<circle cx="-9" cy="9" r="0.125" style="fill: rgb(0,0,0)" />
	<path class="path" d="M -9 9  L  -9 7  L  -10 8  L  -10 6 " id="path-1140" style="stroke: rgb(0,0,0)" />
	<circle cx="-9" cy="7" r="0.125" style="fill: rgb(0,0,0)" />
	<circle cx="-10" cy="8" r="0.125" style="fill: rgb(0,0,0)" />
	<circle cx="-10" cy="6" r="0.125" style="fill: rgb(0,0,0)" />
	<path class="path" d="M -10 6  L  -11 7  L  -11 -11 " id="path-1141" style="stroke: rgb(0,0,0)" />
	<circle cx="-11" cy="7" r="0.125" style="fill: rgb(0,0,0)" />
	<circle cx="-11" cy="-11" r="0.125" style="fill: rgb(0,0,0)" />
	<path class="path" d="M -11 -11  L  -10 -10  L  -10 -11 " id="path-1142" style="stroke: rgb(0,0,0)" />
	<circle cx="-10" cy="-10" r="0.125" style="fill: rgb(0,0,0)" />
	<circle cx="-10" cy="-11" r="0.125" style="fill: rgb(0,0,0)" />
	<path class="path" d="M -10 -11  L  -9 -10  L  -10 -9 " id="path-1143" style="stroke: rgb(0,0,0)" />
	<circle cx="-9" cy="-10" r="0.125" style="fill: rgb(0,0,0)" />
	<circle cx="-10" cy="-9" r="0.125" style="fill: rgb(0,0,0)" />
	<path class="path" d="M -10 -9  L  -11 -8  L  -11 -10  L  -12 -9 " id="path-1144" style="stroke: rgb(0,0,0)" />
	<circle cx="-11" cy="-8" r="0.125" style="fill: rgb(0,0,0)" />
	<circle cx="-11" cy="-10" r="0.125" style="fill: rgb(0,0,0)" />
	<circle cx="-12" cy="-9" r="0.125" style="fill: rgb(0,0,0)" />
	<path class="path" d="M -12 -9  L  -12 -12  L  -12 -13 " id="path-1145" style="stroke: rgb(0,0,0)" />
	<circle cx="-12" cy="-12" r="0.125" style="fill: rgb(0,0,0)" />
	<circle cx="-12" cy="-13" r="0.125" style="fill: rgb(0,0,0)" />
	<path class="path" d="M -12 -13  L  -11 -12  L  -12 -11 " id="path-1146" style="stroke: rgb(0,0,0)" />
	<circle cx="-11" cy="-12" r="0.125" style="fill: rgb(0,0,0)" />
	<circle cx="-12" cy="-11" r="0.125" style="fill: rgb(0,0,0)" />
	<path class="path" d="M -12 -11  L  -13 -10  L  -13 -13  L  -13 -14 " id="path-1147" style="stroke: rgb(0,0,0)" />
	<circle cx="-13" cy="-10" r="0.125" style="fill: rgb(0,0,0)" />
	<circle cx="-13" cy="-13" r="0.125" style="fill: rgb(0,0,0)" />
	<circle cx="-13" cy="-14" r="0.125" style="fill: rgb(0,0,0)" />
	<path class="path" d="M -13 -14  L  -14 -13  L  -13 -12 " id="path-1148" style="stroke: rgb(0,0,0)" />
	<circle cx="-14" cy="-13" r="0.125" style="fill: rgb(0,0,0)" />
	<circle cx="-13" cy="-12" r="0.125" style="fill: rgb(0,0,0)" />
	<path class="path" d="M -13 -12  L  -14 -11  L  -14 -12 " id="path-1149" style="stroke: rgb(0,0,0)" />
	<circle cx="-14" cy="-11" r="0.125" style="fill: rgb(0,0,0)" />
	<circle cx="-14" cy="-12" r="0.125" style="fill: rgb(0,0,0)" />
	<path class="path" d="M -14 -12  L  -10 -8  L  -11 -7 " id="path-1150" style="stroke: rgb(0,0,0)" />
	<circle cx="-10" cy="-8" r="0.125" style="fill: rgb(0,0,0)" />
	<circle cx="-11" cy="-7" r="0.125" style="fill: rgb(0,0,0)" />
	<path class="path" d="M -11 -7  L  -12 -6  L  -10 -4  L  -10 -5 " id="path-1151" style="stroke: rgb(0,0,0)" />
	<circle cx="-12" cy="-6" r="0.125" style="fill: rgb(0,0,0)" />
	<circle cx="-10" cy="-4" r="0.125" style="fill: rgb(0,0,0)" />
	<circle cx="-10" cy="-5" r="0.125" style="fill: rgb(0,0,0)" />
	<path class="path" d="M -10 -5  L  -9 -4  L  -9 -5 " id="path-1152" style="stroke: rgb(0,0,0)" />
	<circle cx="-9" cy="-4" r="0.125" style="fill: rgb(0,0,0)" />
	<circle cx="-9" cy="-5" r="0.125" style="fill: rgb(0,0,0)" />
	<circle class="terminal terminal-start" cx="0" cy="0" r="0.25" />
	<circle class="terminal terminal-finish" cx="-9" cy="-5" r="0.25" />
	<style><![CDATA[    circle.terminal  {fill:          black;}
    circle.unvisited {fill:          rgb(200,200,200);
                      opacity:      .5,}
    path.path        {fill-opacity:  0;
                      opacity:      .5;
                      stroke-width: .1;}
]]></style>
	<style><![CDATA[    svg                     {background-color: rgb(232,235,239);}
    circle.terminal-finish  {fill: red;}
    circle.terminal-start   {fill: green;}
]]></style>
	<!--
	Generated using the Perl SVG Module V2.84
	by Ronan Oger
	Info: http://www.roitsystems.com/
	-->
</svg>