<?xml version="1.0" encoding="UTF-8" standalone="no"?>
<svg
   xmlns:dc="http://purl.org/dc/elements/1.1/"
   xmlns:cc="http://creativecommons.org/ns#"
   xmlns:rdf="http://www.w3.org/1999/02/22-rdf-syntax-ns#"
   xmlns:svg="http://www.w3.org/2000/svg"
   xmlns="http://www.w3.org/2000/svg"
   xmlns:sodipodi="http://sodipodi.sourceforge.net/DTD/sodipodi-0.dtd"
   xmlns:inkscape="http://www.inkscape.org/namespaces/inkscape"
   inkscape:version="1.0 (4035a4f, 2020-05-01)"
   sodipodi:docname="wip.svg"
   id="svg2833"
   height="100"
   width="100"
   version="1.0">
  <sodipodi:namedview
     inkscape:current-layer="svg2833"
     inkscape:window-maximized="0"
     inkscape:window-y="25"
     inkscape:window-x="92"
     inkscape:cy="50"
     inkscape:cx="50"
     inkscape:zoom="10.08"
     showgrid="false"
     id="namedview428"
     inkscape:window-height="1094"
     inkscape:window-width="1244"
     inkscape:pageshadow="2"
     inkscape:pageopacity="0"
     guidetolerance="10"
     gridtolerance="10"
     objecttolerance="10"
     borderopacity="1"
     bordercolor="#666666"
     pagecolor="#ffffff" />
  <defs
     id="defs2835" />
  <metadata
     id="metadata2838">
    <rdf:RDF>
      <cc:Work
         rdf:about="">
        <dc:format>image/svg+xml</dc:format>
        <dc:type
           rdf:resource="http://purl.org/dc/dcmitype/StillImage" />
        <dc:title />
      </cc:Work>
    </rdf:RDF>
  </metadata>
  <g
     id="layer1"
     transform="translate(-67.582896,-53.165653)">
    <g
       id="g2035"
       transform="matrix(0.98619845,0,0,0.98619845,1.6271584,1.4100453)">
      <g
         id="g1754"
         transform="matrix(-1.0678159,0,0,0.96471598,385.18259,71.476015)">
        <path
           style="opacity:0.98999999;fill:none;fill-opacity:1;stroke:#000000;stroke-width:1.74281836px;stroke-opacity:1"
           id="path4350"
           inkscape:connector-curvature="0"
           d="m 238.21185,-1.7155471 2.55401,0.0595 c -0.11306,-2.7134211 4.44555,-7.1531665 4.44555,-7.1531665 0,0 2.6311,2.9526263 3.05622,7.1168654 5.9381,-0.2374968 11.03878,2.8990232 13.00056,4.1073952 12.42868,7.655546 17.29364,32.448756 17.26817,51.469126 l -44.90277,-0.141002 c -0.20729,-13.073379 15.56269,-17.974522 15.10098,-30.390825 -3.98486,3.099334 -8.42701,3.94292 -11.94512,6.90514 -2.79351,2.352109 -4.23289,5.107136 -7.01819,8.412488 -1.02679,1.218501 -3.76823,0.678355 -4.65375,-1.092696 -4.42762,1.32829 -8.68213,0.01778 -8.58207,-6.302259 0.0886,-5.594944 5.71512,-10.651222 7.64949,-15.901883 0.8339,-2.263527 0.71728,-5.7619951 2.03476,-8.280479 1.02298,-1.9555369 3.32544,-4.2204556 4.38056,-4.9644989 0.81951,-2.78858391 0.63978,-7.5122594 -0.71693,-9.3212068 1.97854,-0.5652961 6.51958,2.1987846 8.32853,5.4775016 z" />
        <path
           style="opacity:0.98999999;fill:none;fill-opacity:1;stroke:#000000;stroke-width:0.0001;stroke-opacity:1"
           id="path4352"
           inkscape:connector-curvature="0"
           d="m 242.81689,-0.58069936 c -0.072,0.79486254 -0.32711,1.42135025 -0.73002,2.28035536 -2.11721,4.5138671 -1.19455,-0.1716813 -1.14905,-1.19710158 -1.50976,0.47874748 -4.00517,2.26532638 -5.07373,3.22990388 0.2262,-0.822523 1.59457,-2.91401608 1.19879,-4.37258378 -0.53461,-1.97018662 -2.39735,-3.30685752 -4.38274,-4.27768712 0.61573,2.305974 0.97448,5.12831401 -0.52388,8.1053126 -0.963,1.1263746 -1.94758,1.992982 -2.75,3.125 -0.68313,0.9637262 -1.34296,1.9556425 -1.73503,3.090079 -0.83217,1.95126 -0.86757,4.102469 -1.47299,6.117007 -1.0152,3.389738 -2.8013,6.466007 -4.8023,9.361167 -1.33288,2.142142 -2.90703,4.397401 -2.85563,7.031336 0.074,1.299767 0.66114,2.59601 1.56989,3.430555 1.07494,0.869977 2.59231,0.82959 3.80468,0.430633 1.76617,-0.581196 3.02202,-3.3374 4.47311,-5.629934 0.0475,0.474451 -0.10089,1.848603 -0.28033,3.228551 -0.22412,1.723516 -0.4967,3.456074 -0.4967,3.456074 3.78439,-2.467212 6.29028,-7.057025 10.07655,-9.827968 2.63561,-1.928841 6.46629,-2.181126 8.64217,-4.616774 2.70726,-3.030455 3.36645,-3.372936 4.50035,-11.329732 1.23577,7.754431 0.26208,17.297222 -3.06808,22.364697 -0.94356,1.435812 -2.64098,3.136326 -3.94944,4.706809 -2.35937,2.831831 -5.02065,5.234162 -6.63424,8.423218 -0.82438,1.629293 -1.38054,3.845243 -1.45951,5.27993 13.88505,0.05216 27.62654,-0.03393 39.71316,0 0.13389,-5.249005 -0.48174,-10.005913 -1.26011,-14.943931 -0.75657,-4.799697 -1.81449,-9.572366 -3.30276,-14.197788 -1.25479,-3.899783 -2.30537,-8.037609 -4.71838,-11.348224 -3.01163,-4.1319023 -7.09257,-7.6856654 -11.68081,-9.9418973 -1.89015,-0.92946742 -3.84424,-1.22768185 -5.87614,-1.42411251 -0.67664,2.63979221 -1.13781,0.36144826 -1.51273,-0.14218972 -1.03671,-1.94459497 -1.88857,-2.71395277 -2.04236,-4.94441567 -1.31768,1.7707756 -2.11286,3.3322909 -2.22174,4.53371084 z" />
        <path
           style="opacity:0.98999999;fill:#000000;fill-opacity:1"
           id="path4348"
           inkscape:connector-curvature="0"
           d="m 221.53873,32.85876 c 2.61354,-0.122981 3.81785,-5.736082 1.16227,-5.663706 -2.93332,0.07995 -3.41743,5.769824 -1.16227,5.663706 z" />
        <path
           style="opacity:0.98999999;fill:#000000;fill-opacity:1"
           id="path4340"
           inkscape:connector-curvature="0"
           d="m 230.75067,14.108964 0.88552,-2.213813 c 2.65658,0.442761 3.98486,-0.885522 3.5421,-3.5421016 l 2.21381,-0.442761 0,-0.442761 c -3.98486,-0.885529 -7.52696,2.6565726 -6.64143,6.6414366 z" />
        <path
           style="opacity:0.98999999;fill:none;fill-opacity:1;stroke:#000000;stroke-width:0.74281836px;stroke-opacity:1"
           id="path4729"
           inkscape:connector-curvature="0"
           d="m 238.21185,-1.7155471 2.55401,0.0595 c -0.11306,-2.7134211 4.44555,-7.1531665 4.44555,-7.1531665 0,0 2.6311,2.9526263 3.05622,7.1168654 5.9381,-0.2374968 11.03878,2.8990232 13.00056,4.1073952 12.42868,7.655546 17.29364,32.448756 17.26817,51.469126 l -44.90277,-0.141002 c -0.20729,-13.073379 15.56269,-17.974522 15.10098,-30.390825 -3.98486,3.099334 -8.42701,3.94292 -11.94512,6.90514 -2.79351,2.352109 -4.23289,5.107136 -7.01819,8.412488 -1.02679,1.218501 -3.76823,0.678355 -4.65375,-1.092696 -4.42762,1.32829 -8.68213,0.01778 -8.58207,-6.302259 0.0886,-5.594944 5.71512,-10.651222 7.64949,-15.901883 0.8339,-2.263527 0.71728,-5.7619951 2.03476,-8.280479 1.02298,-1.9555369 3.32544,-4.2204556 4.38056,-4.9644989 0.81951,-2.78858391 0.63978,-7.5122594 -0.71693,-9.3212068 1.97854,-0.5652961 6.51958,2.1987846 8.32853,5.4775016 z" />
        <path
           style="opacity:0.98999999;fill:none;fill-opacity:1;stroke:#000000;stroke-width:0.74281836px;stroke-opacity:1"
           id="path4731"
           inkscape:connector-curvature="0"
           d="m 242.81689,-0.58069936 c -0.072,0.79486254 -0.32711,1.42135025 -0.73002,2.28035536 -2.11721,4.5138671 -1.19455,-0.1716813 -1.14905,-1.19710158 -1.50976,0.47874748 -4.00517,2.26532638 -5.07373,3.22990388 0.2262,-0.822523 1.59457,-2.91401608 1.19879,-4.37258378 -0.53461,-1.97018662 -2.39735,-3.30685752 -4.38274,-4.27768712 0.61573,2.305974 0.97448,5.12831401 -0.52388,8.1053126 -0.963,1.1263746 -1.94758,1.992982 -2.75,3.125 -0.68313,0.9637262 -1.34296,1.9556425 -1.73503,3.090079 -0.83217,1.95126 -0.86757,4.102469 -1.47299,6.117007 -1.0152,3.389738 -2.8013,6.466007 -4.8023,9.361167 -1.33288,2.142142 -2.90703,4.397401 -2.85563,7.031336 0.074,1.299767 0.66114,2.59601 1.56989,3.430555 1.07494,0.869977 2.59231,0.82959 3.80468,0.430633 1.76617,-0.581196 3.02202,-3.3374 4.47311,-5.629934 0.0475,0.474451 -0.10089,1.848603 -0.28033,3.228551 -0.22412,1.723516 -0.4967,3.456074 -0.4967,3.456074 3.78439,-2.467212 6.29028,-7.057025 10.07655,-9.827968 2.63561,-1.928841 6.46629,-2.181126 8.64217,-4.616774 2.70726,-3.030455 3.36645,-3.372936 4.50035,-11.329732 1.23577,7.754431 0.26208,17.297222 -3.06808,22.364697 -0.94356,1.435812 -2.64098,3.136326 -3.94944,4.706809 -2.35937,2.831831 -5.02065,5.234162 -6.63424,8.423218 -0.82438,1.629293 -1.38054,3.845243 -1.45951,5.27993 13.88505,0.05216 27.62654,-0.03393 39.71316,0 0.13389,-5.249005 -0.48174,-10.005913 -1.26011,-14.943931 -0.75657,-4.799697 -1.81449,-9.572366 -3.30276,-14.197788 -1.25479,-3.899783 -2.30537,-8.037609 -4.71838,-11.348224 -3.01163,-4.1319023 -7.09257,-7.6856654 -11.68081,-9.9418973 -1.89015,-0.92946742 -3.84424,-1.22768185 -5.87614,-1.42411251 -0.67664,2.63979221 -1.13781,0.36144826 -1.51273,-0.14218972 -1.03671,-1.94459497 -1.88857,-2.71395277 -2.04236,-4.94441567 -1.31768,1.7707756 -2.11286,3.3322909 -2.22174,4.53371084 z" />
        <path
           style="opacity:0.98999999;fill:#000000;fill-opacity:1"
           id="path4733"
           inkscape:connector-curvature="0"
           d="m 221.53873,32.85876 c 2.61354,-0.122981 3.81785,-5.736082 1.16227,-5.663706 -2.93332,0.07995 -3.41743,5.769824 -1.16227,5.663706 z" />
        <path
           style="opacity:0.98999999;fill:#000000;fill-opacity:1"
           id="path4735"
           inkscape:connector-curvature="0"
           d="m 230.75067,14.108964 0.88552,-2.213813 c 2.65658,0.442761 3.98486,-0.885522 3.5421,-3.5421016 l 2.21381,-0.442761 0,-0.442761 c -3.98486,-0.885529 -7.52696,2.6565726 -6.64143,6.6414366 z" />
      </g>
      <path
         style="color:#000000;fill:none;fill-opacity:1;stroke:#000000;stroke-width:2.02798939;stroke-linecap:square;stroke-linejoin:bevel;stroke-opacity:1;marker:none;visibility:visible;display:inline;overflow:visible;enable-background:accumulate"
         id="path1426"
         inkscape:connector-curvature="0"
         d="m 81.834472,129.72791 60.275818,0 -8.431,-6.4845 -43.447162,0 z" />
      <path
         style="color:#000000;fill:none;fill-opacity:1;stroke:#000000;stroke-width:2.02798939;stroke-opacity:1;marker:none;visibility:visible;display:inline;overflow:visible;enable-background:accumulate"
         id="path1428"
         inkscape:connector-curvature="0"
         d="m 81.829584,142.72544 0,-12.9924 60.285596,0 0,12.9924 -12.3224,0 0,-6.4556 -12.32239,0 0,6.4556 -11.03881,0 0,-6.4556 -12.279603,0 0,6.4556 -12.322393,0 z" />
    </g>
  </g>
  <path
     id="path430"
     d="m 24.241529,65.302579 c 0.03682,-1.323164 0.08665,-2.539682 0.110734,-2.703373 0.02408,-0.16369 0.09355,-0.811012 0.154389,-1.438492 0.395099,-4.075338 1.447176,-10.026458 2.486704,-14.066148 0.745277,-2.896206 1.311643,-4.691409 2.886134,-9.148137 1.559193,-4.413427 2.484709,-6.263081 4.222884,-8.439477 1.063328,-1.331409 2.625976,-2.898887 4.445499,-4.459237 0.546223,-0.468419 2.571265,-1.941078 3.267564,-2.37625 3.391263,-2.119468 5.37368,-2.937646 8.184563,-3.37791 1.744829,-0.273289 1.840745,-0.267378 1.97642,0.12182 0.244246,0.700644 0.807593,0.968343 1.256963,0.5973 0.114174,-0.09427 0.37055,-0.473698 0.569723,-0.843167 0.199175,-0.369469 0.569776,-0.994469 0.823559,-1.388889 0.955507,-1.485013 1.281408,-2.107692 1.39166,-2.658953 0.03194,-0.159674 0.08597,-0.289743 0.120068,-0.289042 0.09728,0.002 0.847361,1.173161 1.19681,1.868676 0.176448,0.351186 0.403515,1.053485 0.513209,1.587302 0.14305,0.696152 0.344608,1.255232 0.738588,2.0487 0.722104,1.454303 1.19196,2.073674 1.603659,2.113965 0.62643,0.0613 0.721868,-0.426535 0.458616,-2.34427 l -0.05885,-0.428718 1.02286,0.513295 c 1.122324,0.563209 2.744144,1.614826 3.791465,2.458455 0.369935,0.297986 0.690932,0.523469 0.713327,0.501073 0.07713,-0.07714 -0.34536,-1.228429 -0.77775,-2.119356 -0.91637,-1.888156 -0.983297,-2.675449 -0.313515,-3.687956 0.619446,-0.936413 1.274561,-1.513702 2.614008,-2.303468 0.287471,-0.169499 0.557749,-0.308179 0.600619,-0.308179 0.04287,0 0.01048,0.301339 -0.07199,0.669643 -0.09217,0.411637 -0.152455,1.204766 -0.15648,2.058531 -0.0075,1.579893 0.186627,2.520018 0.781381,3.785133 0.282518,0.600951 0.537607,0.912669 1.664267,2.03373 2.808213,2.794257 3.566642,4.198659 4.349362,8.053827 0.452812,2.23025 0.890755,3.46042 1.992429,5.596662 0.780149,1.512775 1.754867,3.061557 2.943232,4.676655 0.973955,1.323695 2.489045,3.580699 2.737629,4.0782 1.004422,2.010189 1.17047,3.646758 0.503539,4.962884 -0.811593,1.6016 -2.04401,2.250335 -3.80257,2.001643 -1.80267,-0.254932 -2.458075,-0.856677 -4.830233,-4.434765 l -1.183871,-1.785715 -0.07903,0.496032 c -0.11483,0.720731 -0.007,1.935344 0.417646,4.70376 0.112263,0.731909 0.188669,1.346191 0.16979,1.36507 -0.0462,0.0462 -0.86299,-0.574393 -1.64682,-1.251237 C 71.678312,51.43875 70.227419,50.028519 68.805516,48.608348 66.022473,45.828695 65.693642,45.524173 64.632937,44.744224 63.138595,43.645418 62.43452,43.308451 59.424603,42.251547 58.578869,41.954574 57.373512,41.459835 56.746032,41.152125 55.63569,40.607626 55.566522,40.553926 54.161426,39.145533 52.569835,37.550209 52.125514,36.947005 51.609275,35.680769 51.285333,34.886203 50.681307,32.642424 50.55004,31.746032 50.518079,31.527778 50.4135,30.880456 50.317641,30.30754 l -0.174288,-1.041667 -0.360217,-0.03025 c -0.419973,-0.03527 -0.379421,-0.146037 -0.646656,1.76636 -0.253441,1.813692 -0.251131,7.431595 0.0038,9.325397 0.530787,3.942509 1.51922,7.073106 2.986745,9.459727 0.913689,1.485921 1.106147,1.69904 6.900718,7.641508 1.063988,1.091145 2.03738,2.091505 2.163093,2.223023 0.271422,0.283952 1.571724,1.876385 1.854764,2.271461 0.640544,0.89409 1.429919,2.529352 1.786983,3.7019 0.1499,0.492248 0.444751,1.82321 0.445043,2.008929 6.4e-5,0.04092 -9.248103,0.0744 -20.551482,0.0744 H 24.174579 Z M 81.6099,49.623917 c 0.412975,-0.450633 0.567413,-1.031341 0.506809,-1.905663 -0.06948,-1.002341 -0.395827,-1.774843 -1.005974,-2.381239 -0.555586,-0.552171 -1.021796,-0.743991 -1.806769,-0.74339 -1.286792,9.92e-4 -1.85928,1.287835 -1.330254,2.990171 0.480454,1.546034 1.61602,2.523263 2.823706,2.429981 0.410068,-0.03167 0.542437,-0.09519 0.812482,-0.38986 z M 71.081012,31.500924 c 0.378426,-3.260548 -2.826553,-6.149035 -6.446409,-5.809827 -0.731282,0.06853 -0.745714,0.07518 -0.745714,0.343878 0,0.269819 0.01552,0.276711 1.016865,0.45166 0.559276,0.09771 1.066795,0.196341 1.127819,0.219174 0.0688,0.02574 0.110955,0.336131 0.110955,0.81693 0,1.522242 0.664992,2.34275 2.09407,2.583796 0.365565,0.06166 0.90281,0.09863 1.193878,0.08215 l 0.529214,-0.02996 0.448963,1.014599 c 0.246928,0.558029 0.483298,0.993377 0.525266,0.96744 0.04197,-0.02594 0.107259,-0.313868 0.145093,-0.639845 z"
     style="fill:none;stroke-width:0.0992064" />
  <path
     id="path432"
     d="m 15.77381,82.589286 v -5.357143 h 28.670634 28.670635 v 5.357143 5.357143 h -5.00992 -5.009921 v -3.174604 -3.174603 h -7.142857 -7.142857 v 3.174603 3.174604 h -4.36508 -4.365079 v -3.174604 -3.174603 h -7.093254 -7.093254 v 3.174603 3.174604 H 20.833333 15.77381 Z"
     style="fill:none;stroke-width:0.0992064" />
  <path
     id="path434"
     d="m 19.655048,73.741648 c 1.002719,-0.773939 2.269555,-1.755502 2.81519,-2.18125 l 0.992064,-0.774088 20.987037,-0.0013 20.987038,-0.0013 2.72328,2.091658 c 1.497803,1.150412 2.76569,2.132555 2.817526,2.18254 0.05708,0.05505 -10.40211,0.09088 -26.525508,0.09088 H 17.83192 Z"
     style="fill:none;stroke-width:0.0992064" />
  <path
     id="path436"
     d="m 24.241529,65.302579 c 0.03682,-1.323164 0.08665,-2.539682 0.110734,-2.703373 0.02408,-0.16369 0.09355,-0.811012 0.154389,-1.438492 0.395099,-4.075338 1.447176,-10.026458 2.486704,-14.066148 0.745277,-2.896206 1.311643,-4.691409 2.886134,-9.148137 1.559193,-4.413427 2.484709,-6.263081 4.222884,-8.439477 1.063328,-1.331409 2.625976,-2.898887 4.445499,-4.459237 0.546223,-0.468419 2.571265,-1.941078 3.267564,-2.37625 3.391263,-2.119468 5.37368,-2.937646 8.184563,-3.37791 1.744829,-0.273289 1.840745,-0.267378 1.97642,0.12182 0.244246,0.700644 0.807593,0.968343 1.256963,0.5973 0.114174,-0.09427 0.37055,-0.473698 0.569723,-0.843167 0.199175,-0.369469 0.569776,-0.994469 0.823559,-1.388889 0.955507,-1.485013 1.281408,-2.107692 1.39166,-2.658953 0.03194,-0.159674 0.08597,-0.289743 0.120068,-0.289042 0.09728,0.002 0.847361,1.173161 1.19681,1.868676 0.176448,0.351186 0.403515,1.053485 0.513209,1.587302 0.14305,0.696152 0.344608,1.255232 0.738588,2.0487 0.722104,1.454303 1.19196,2.073674 1.603659,2.113965 0.62643,0.0613 0.721868,-0.426535 0.458616,-2.34427 l -0.05885,-0.428718 1.02286,0.513295 c 1.122324,0.563209 2.744144,1.614826 3.791465,2.458455 0.369935,0.297986 0.690932,0.523469 0.713327,0.501073 0.07713,-0.07714 -0.34536,-1.228429 -0.77775,-2.119356 -0.91637,-1.888156 -0.983297,-2.675449 -0.313515,-3.687956 0.619446,-0.936413 1.274561,-1.513702 2.614008,-2.303468 0.287471,-0.169499 0.557749,-0.308179 0.600619,-0.308179 0.04287,0 0.01048,0.301339 -0.07199,0.669643 -0.09217,0.411637 -0.152455,1.204766 -0.15648,2.058531 -0.0075,1.579893 0.186627,2.520018 0.781381,3.785133 0.282518,0.600951 0.537607,0.912669 1.664267,2.03373 2.808213,2.794257 3.566642,4.198659 4.349362,8.053827 0.452812,2.23025 0.890755,3.46042 1.992429,5.596662 0.780149,1.512775 1.754867,3.061557 2.943232,4.676655 0.973955,1.323695 2.489045,3.580699 2.737629,4.0782 1.004422,2.010189 1.17047,3.646758 0.503539,4.962884 -0.811593,1.6016 -2.04401,2.250335 -3.80257,2.001643 -1.80267,-0.254932 -2.458075,-0.856677 -4.830233,-4.434765 l -1.183871,-1.785715 -0.07903,0.496032 c -0.11483,0.720731 -0.007,1.935344 0.417646,4.70376 0.112263,0.731909 0.188669,1.346191 0.16979,1.36507 -0.0462,0.0462 -0.86299,-0.574393 -1.64682,-1.251237 C 71.678312,51.43875 70.227419,50.028519 68.805516,48.608348 66.022473,45.828695 65.693642,45.524173 64.632937,44.744224 63.138595,43.645418 62.43452,43.308451 59.424603,42.251547 58.578869,41.954574 57.373512,41.459835 56.746032,41.152125 55.63569,40.607626 55.566522,40.553926 54.161426,39.145533 52.569835,37.550209 52.125514,36.947005 51.609275,35.680769 51.285333,34.886203 50.681307,32.642424 50.55004,31.746032 50.518079,31.527778 50.4135,30.880456 50.317641,30.30754 l -0.174288,-1.041667 -0.360217,-0.03025 c -0.419973,-0.03527 -0.379421,-0.146037 -0.646656,1.76636 -0.253441,1.813692 -0.251131,7.431595 0.0038,9.325397 0.530787,3.942509 1.51922,7.073106 2.986745,9.459727 0.913689,1.485921 1.106147,1.69904 6.900718,7.641508 1.063988,1.091145 2.03738,2.091505 2.163093,2.223023 0.271422,0.283952 1.571724,1.876385 1.854764,2.271461 0.640544,0.89409 1.429919,2.529352 1.786983,3.7019 0.1499,0.492248 0.444751,1.82321 0.445043,2.008929 6.4e-5,0.04092 -9.248103,0.0744 -20.551482,0.0744 H 24.174579 Z M 81.6099,49.623917 c 0.412975,-0.450633 0.567413,-1.031341 0.506809,-1.905663 -0.06948,-1.002341 -0.395827,-1.774843 -1.005974,-2.381239 -0.555586,-0.552171 -1.021796,-0.743991 -1.806769,-0.74339 -1.286792,9.92e-4 -1.85928,1.287835 -1.330254,2.990171 0.480454,1.546034 1.61602,2.523263 2.823706,2.429981 0.410068,-0.03167 0.542437,-0.09519 0.812482,-0.38986 z M 71.081012,31.500924 c 0.378426,-3.260548 -2.826553,-6.149035 -6.446409,-5.809827 -0.731282,0.06853 -0.745714,0.07518 -0.745714,0.343878 0,0.269819 0.01552,0.276711 1.016865,0.45166 0.559276,0.09771 1.066795,0.196341 1.127819,0.219174 0.0688,0.02574 0.110955,0.336131 0.110955,0.81693 0,1.522242 0.664992,2.34275 2.09407,2.583796 0.365565,0.06166 0.90281,0.09863 1.193878,0.08215 l 0.529214,-0.02996 0.448963,1.014599 c 0.246928,0.558029 0.483298,0.993377 0.525266,0.96744 0.04197,-0.02594 0.107259,-0.313868 0.145093,-0.639845 z"
     style="fill:none;stroke-width:0.0992064" />
</svg>
