<?xml version="1.0" encoding="UTF-8" standalone="no"?>
<svg
   xmlns:dc="http://purl.org/dc/elements/1.1/"
   xmlns:cc="http://creativecommons.org/ns#"
   xmlns:rdf="http://www.w3.org/1999/02/22-rdf-syntax-ns#"
   xmlns:svg="http://www.w3.org/2000/svg"
   xmlns="http://www.w3.org/2000/svg"
   xmlns:sodipodi="http://sodipodi.sourceforge.net/DTD/sodipodi-0.dtd"
   xmlns:inkscape="http://www.inkscape.org/namespaces/inkscape"
   sodipodi:docname="dabbaba.svg"
   inkscape:version="1.0 (4035a4f, 2020-05-01)"
   version="1.1"
   id="svg2"
   height="100"
   width="100">
  <defs
     id="defs4">
    <inkscape:perspective
       id="perspective10"
       inkscape:persp3d-origin="372.04724 : 350.78739 : 1"
       inkscape:vp_z="744.09448 : 526.18109 : 1"
       inkscape:vp_y="0 : 1000 : 0"
       inkscape:vp_x="0 : 526.18109 : 1"
       sodipodi:type="inkscape:persp3d" />
    <inkscape:perspective
       sodipodi:type="inkscape:persp3d"
       inkscape:vp_x="0 : 0.5 : 1"
       inkscape:vp_y="0 : 1000 : 0"
       inkscape:vp_z="1 : 0.5 : 1"
       inkscape:persp3d-origin="0.5 : 0.33333333 : 1"
       id="perspective2824" />
    <inkscape:perspective
       sodipodi:type="inkscape:persp3d"
       inkscape:vp_x="0 : 0.5 : 1"
       inkscape:vp_y="0 : 1000 : 0"
       inkscape:vp_z="1 : 0.5 : 1"
       inkscape:persp3d-origin="0.5 : 0.33333333 : 1"
       id="perspective2838" />
  </defs>
  <sodipodi:namedview
     inkscape:document-rotation="0"
     inkscape:window-maximized="0"
     inkscape:window-y="23"
     inkscape:window-x="62"
     inkscape:window-height="858"
     inkscape:window-width="899"
     showgrid="false"
     inkscape:current-layer="layer1"
     inkscape:document-units="px"
     inkscape:cy="23.437927"
     inkscape:cx="52.657835"
     inkscape:zoom="2"
     inkscape:pageshadow="2"
     inkscape:pageopacity="0.0"
     borderopacity="1.0"
     bordercolor="#666666"
     pagecolor="#ffffff"
     id="base" />
  <metadata
     id="metadata7">
    <rdf:RDF>
      <cc:Work
         rdf:about="">
        <dc:format>image/svg+xml</dc:format>
        <dc:type
           rdf:resource="http://purl.org/dc/dcmitype/StillImage" />
        <dc:title></dc:title>
      </cc:Work>
    </rdf:RDF>
  </metadata>
  <g
     transform="translate(366.71429,-981.93367)"
     id="layer1"
     inkscape:groupmode="layer"
     inkscape:label="Layer 1">
    <g
       id="g2829">
      <path
         style="fill:#ffffcc;fill-opacity:1;stroke:#000000;stroke-width:2.83325672;stroke-linecap:butt;stroke-linejoin:miter;stroke-miterlimit:4;stroke-opacity:1;stroke-dasharray:none"
         d="m -348.5606,1067.104 33.12705,-72.05627 32.56557,71.48437"
         id="path3613" />
      <path
         sodipodi:type="arc"
         style="fill:#ffffcc;fill-opacity:1;stroke:#000000;stroke-width:2.5;stroke-miterlimit:4;stroke-opacity:1;stroke-dasharray:none"
         id="path3615"
         sodipodi:cx="50"
         sodipodi:cy="18.25"
         sodipodi:rx="5.5"
         sodipodi:ry="5.25"
         d="m 55.5,18.25 a 5.5,5.25 0 1 1 -11,0 5.5,5.25 0 1 1 11,0 z"
         transform="matrix(1.1229508,0,0,1.14375,-371.58109,972.74461)" />
      <path
         sodipodi:type="arc"
         style="fill:#ffffcc;fill-opacity:1;stroke:#000000;stroke-width:2.5;stroke-miterlimit:4;stroke-opacity:1;stroke-dasharray:none"
         id="path2839"
         sodipodi:cx="52"
         sodipodi:cy="82.25"
         sodipodi:rx="27"
         sodipodi:ry="7.25"
         d="m 79,82.25 a 27,7.25 0 1 1 -54,0 27,7.25 0 1 1 54,0 z"
         transform="matrix(1.2146211,0,0,1.1365091,-378.87459,974.48392)" />
      <path
         sodipodi:type="star"
         style="fill:#ffffcc;fill-opacity:1;stroke:#000000;stroke-width:2.5;stroke-miterlimit:4;stroke-opacity:1;stroke-dasharray:none"
         id="path3619"
         sodipodi:sides="5"
         sodipodi:cx="46.5"
         sodipodi:cy="46.5"
         sodipodi:r1="2.8284271"
         sodipodi:r2="1.4142137"
         sodipodi:arg1="0.78539816"
         sodipodi:arg2="1.4137167"
         inkscape:flatsided="false"
         inkscape:rounded="0"
         inkscape:randomized="0"
         d="m 48.5,48.5 -1.778768,-0.603198 -1.505311,1.123345 0.024,-1.878107 -1.53353,-1.084503 L 45.5,45.5 l 0.557537,-1.793604 1.084503,1.53353 1.878107,-0.024 -1.123345,1.505311 L 48.5,48.5 z"
         transform="matrix(1.4139303,0,0,1.6229205,-381.63742,945.4912)" />
      <path
         sodipodi:type="star"
         style="fill:#ffffcc;fill-opacity:1;stroke:#000000;stroke-width:2.5;stroke-miterlimit:4;stroke-opacity:1;stroke-dasharray:none"
         id="path3621"
         sodipodi:sides="5"
         sodipodi:cx="58"
         sodipodi:cy="62"
         sodipodi:r1="2.8284271"
         sodipodi:r2="1.4142137"
         sodipodi:arg1="0.78539816"
         sodipodi:arg2="1.4137167"
         inkscape:flatsided="false"
         inkscape:rounded="0"
         inkscape:randomized="0"
         d="m 60,64 -1.778768,-0.603198 -1.505311,1.123345 0.024,-1.878107 -1.53353,-1.084503 L 57,61 l 0.557537,-1.793604 1.084503,1.53353 1.878107,-0.024 -1.123345,1.505311 L 60,64 z"
         transform="matrix(1.0198606,0,0,1.7934237,-360.62416,934.62554)" />
      <path
         sodipodi:type="star"
         style="fill:#ffffcc;fill-opacity:1;stroke:#000000;stroke-width:2.5;stroke-miterlimit:4;stroke-opacity:1;stroke-dasharray:none"
         id="path3623"
         sodipodi:sides="5"
         sodipodi:cx="34.5"
         sodipodi:cy="68"
         sodipodi:r1="2.6925824"
         sodipodi:r2="1.3462912"
         sodipodi:arg1="0.38050638"
         sodipodi:arg2="1.0088249"
         inkscape:flatsided="false"
         inkscape:rounded="0"
         inkscape:randomized="0"
         d="M 37,69 35.217379,69.13924 34.321486,70.686658 33.638201,69.034312 31.889672,68.660446 33.25,67.5 33.065243,65.72152 34.589257,66.656671 36.223599,65.931376 35.805164,67.669777 37,69 z"
         transform="matrix(1.0360811,0,0,1.6585528,-365.58888,934.63295)" />
      <path
         style="fill:#000000;fill-opacity:1;stroke:#000000;stroke-width:1.49760211;stroke-linecap:butt;stroke-linejoin:miter;stroke-miterlimit:4;stroke-opacity:1;stroke-dasharray:none"
         d="m -311.63899,1033.7911 c -5.25461,3.2753 -4.87696,9.9001 0,13.5102 -4.79041,-0.091 -8.50035,-3.1871 -8.39663,-7.1459 -0.12752,-3.5753 3.7897,-6.4169 8.39663,-6.3643 z"
         id="path3627"
         sodipodi:nodetypes="cccc" />
    </g>
    <path
       transform="translate(-366.71429,981.93367)"
       id="path20"
       d="m 37.995332,91.938041 c -9.131706,-1.136594 -17.837497,-3.913564 -17.837497,-5.689798 0,-1.138326 2.388927,-2.584705 6.221209,-3.766639 11.416999,-3.521177 31.798103,-3.972185 45.528791,-1.007493 4.7847,1.033099 9.472865,3.020428 9.92893,4.208904 0.62836,1.637482 -5.093995,4.082726 -13.005479,5.557427 -5.070454,0.945132 -25.19026,1.400301 -30.835954,0.697599 z"
       style="fill:#00ffff;stroke-width:0.5" />
    <path
       transform="translate(-366.71429,981.93367)"
       id="path22"
       d="m 22.657835,79.714437 c 0,-0.202495 24.643346,-53.930811 26.796554,-58.422818 1.828939,-3.815519 2.132822,-3.356204 11.818093,17.862896 4.886944,10.706623 8.885353,19.537873 8.885353,19.625 0,0.08713 -0.793069,0.158412 -1.762376,0.158412 -1.459525,0 -1.854336,-0.236283 -2.297525,-1.375 -0.294332,-0.75625 -0.751682,-1.929876 -1.016332,-2.608058 -0.631168,-1.617402 -1.237479,-0.689135 -1.687616,2.583753 -0.290648,2.113259 -0.563151,2.537625 -2.291252,3.56814 l -1.96137,1.16962 1.75404,2.205773 c 1.697798,2.135043 1.743945,2.305975 1.439188,5.330772 -0.173681,1.723835 -0.115753,3.12501 0.129195,3.12502 0.244226,1.5e-5 1.124175,-0.81006 1.955442,-1.800165 l 1.511395,-1.80019 1.863605,1.099555 c 1.024983,0.604755 1.855702,0.90858 1.846041,0.67517 -0.0097,-0.233415 -0.30688,-1.77439 -0.660487,-3.42439 -0.594726,-2.77511 -0.562194,-3.184598 0.433973,-5.46251 0.592292,-1.35438 1.205251,-2.254379 1.362132,-2 0.706362,1.145358 8.897712,19.36341 8.765697,19.49543 -0.08147,0.08147 -1.710095,-0.284985 -3.619155,-0.814355 -4.101975,-1.13744 -12.436887,-2.280115 -19.764595,-2.709615 -9.224271,-0.54067 -26.497286,1.203845 -31.65755,3.1973 -1.554959,0.600695 -1.84245,0.65067 -1.84245,0.32026 z m 15.040035,-7.68687 c 0.672533,-1.991665 1.007175,-2.363955 2.25,-2.503115 2.19667,-0.24596 2.395254,-0.763167 1.195771,-3.114347 -0.91465,-1.792862 -1.040887,-2.627012 -0.765683,-5.059489 0.181243,-1.601979 0.184344,-2.912689 0.0069,-2.912689 -0.177453,0 -0.993265,0.477525 -1.812915,1.061168 l -1.490273,1.061167 -1.741496,-1.686167 -1.741496,-1.686168 0.10759,3.350533 c 0.09555,2.975651 -0.04665,3.552747 -1.270911,5.15784 -1.51518,1.986503 -1.442683,2.239032 0.870402,3.03187 1.379648,0.472892 1.66312,0.896602 2.273785,3.398662 0.383701,1.572135 0.839538,2.719365 1.01297,2.5494 0.173432,-0.16996 0.670846,-1.36186 1.105366,-2.648665 z m 17.878933,-7.71464 c -4.370493,-4.021805 -4.362574,-7.630808 0.025,-11.391817 l 2.306037,-1.976727 -2.75,0.0078 c -5.108371,0.0144 -8.922904,2.711985 -9.363597,6.621801 -0.549144,4.871991 3.808678,8.782803 9.852699,8.842044 l 2.239102,0.02195 z M 54.124239,44.924685 c 1.393478,0.549258 2.533596,0.817771 2.533596,0.596697 0,-0.221075 -0.35088,-1.583493 -0.779733,-3.027597 l -0.779732,-2.625643 1.529732,-2.383881 c 0.841353,-1.311135 1.529733,-2.560795 1.529733,-2.777022 0,-0.216228 -1.193409,-0.294176 -2.65202,-0.173216 l -2.652019,0.219926 -1.451319,-2.408011 c -0.798225,-1.324406 -1.597266,-2.408011 -1.775647,-2.408011 -0.178381,0 -0.638128,1.172716 -1.021662,2.606035 -0.715594,2.674276 -1.316704,3.242703 -4.697333,4.441938 l -1.5,0.532105 2.375,2.011994 c 2.347218,1.988458 2.375,2.047183 2.375,5.020192 v 3.008198 l 2.216404,-1.816177 2.216405,-1.816177 z"
       style="fill:#00ffff;stroke-width:0.5" />
    <path
       transform="translate(-366.71429,981.93367)"
       id="path24"
       d="m 48.335717,14.752723 c -3.784469,-3.255263 0.537758,-9.0990702 4.979988,-6.7331246 1.602781,0.853646 2.310326,1.977084 2.310326,3.6683286 0,3.693147 -4.406297,5.545523 -7.290314,3.064796 z"
       style="fill:#00ffff;stroke-width:0.5" />
  </g>
</svg>
