<?xml version="1.0" encoding="UTF-8" standalone="no"?>
<!-- Created with Inkscape (http://www.inkscape.org/) -->

<svg
   xmlns:dc="http://purl.org/dc/elements/1.1/"
   xmlns:cc="http://creativecommons.org/ns#"
   xmlns:rdf="http://www.w3.org/1999/02/22-rdf-syntax-ns#"
   xmlns:svg="http://www.w3.org/2000/svg"
   xmlns="http://www.w3.org/2000/svg"
   version="1.1"
   width="101.55641"
   height="101.54229"
   id="svg2">
  <defs
     id="defs4" />
  <metadata
     id="metadata7">
    <rdf:RDF>
      <cc:Work
         rdf:about="">
        <dc:format>image/svg+xml</dc:format>
        <dc:type
           rdf:resource="http://purl.org/dc/dcmitype/StillImage" />
        <dc:title></dc:title>
      </cc:Work>
    </rdf:RDF>
  </metadata>
  <g
     transform="translate(0.77882178,-951.58797)"
     id="layer1">
    <path
       d="M 164.65487,226.05741 100.26252,290.60054 9.0913701,290.70717 -55.451767,226.31483 -55.558394,135.14367 8.8339505,70.600536 100.0051,70.49391 l 64.54314,64.39234 z"
       transform="matrix(0.45205247,0,0,0.45205247,25.341335,920.72126)"
       id="path2991"
       style="fill:#ffffff;fill-opacity:1;fill-rule:evenodd;stroke:#000000;stroke-width:4.42426538;stroke-linecap:butt;stroke-linejoin:miter;stroke-miterlimit:4;stroke-opacity:1" />
    <g
       id="text2985"
       style="font-size:40px;font-style:normal;font-weight:normal;line-height:125%;letter-spacing:0px;word-spacing:0px;fill:#b40000;fill-opacity:1;stroke:none;font-family:Sans">
      <path
         d="m 37.5,972.98718 5,1 c -0.666691,1.33339 -1.41669,2.58339 -2.25,3.75 l 21.5,0 0,3.75 c -1.333376,1.83338 -2.750041,3.41671 -4.25,4.75 l 15.75,0 0,13.75 -24,0 c 2.999966,2.83332 4.999963,6.16672 6,10.00002 5.33329,-2 10.083286,-4.5833 14.25,-7.75 l 3.5,3.75 c -2.666719,1.8333 -5.416717,3.4167 -8.25,4.75 1.833284,6.5 6.499946,11.5833 14,15.25 l -3.25,4.25 c -7.666717,-4.3334 -12.666712,-10.1667 -15,-17.5 -1.500041,0.6667 -3.00004,1.25 -4.5,1.75 0.166628,1.3333 0.249961,2.75 0.25,4.25 -3.9e-5,4.3333 -0.666705,7.5833 -2,9.75 -1.333369,2.1666 -3.4167,3.25 -6.25,3.25 -1.833362,0 -4.250026,-0.25 -7.25,-0.75 l -1.25,-5 c 3.166642,0.6666 5.999972,1 8.5,1 0.999969,0 1.749968,-0.6667 2.25,-2 0.499967,-1.5 0.749967,-3.5833 0.75,-6.25 l 0,-1 c -7.833359,5 -16.916683,8.75 -27.25,11.25 l -2.25,-4.25 c 11.166652,-2.6667 20.833309,-6.5833 29,-11.75 -0.333366,-1.5 -0.750032,-2.8333 -1.25,-4 -6.833358,4.5 -15.08335,7.9167 -24.75,10.25 l -2.25,-4.25 c 9.666652,-2 17.999977,-5.1667 25,-9.5 -0.833362,-1 -1.750028,-2 -2.75,-3 -5.166688,3.6667 -11.833348,6.25 -20,7.75 l -2.25,-4.5 c 6.999988,-1 12.916649,-2.9167 17.75,-5.75002 l -12.75,0 0,-10 c -1.000009,0.6667 -2.000008,1.25004 -3,1.75 l -3,-3.5 c 4.166659,-2.49996 7.416656,-4.83329 9.75,-7 2.333318,-2.16662 4.499982,-4.91661 6.5,-8.25 m -5.25,13.25 18.75,0 c 1.666632,-1.33329 3.083297,-2.83329 4.25,-4.5 l -18.25,0 c -1.333351,1.50005 -2.916683,3.00004 -4.75,4.5 m 0,9.5 12.75,0 c 1.166638,-0.99997 2.333304,-2.74996 3.5,-5.25 l -16.25,0 0,5.25 m 21.75,-5.25 c -0.666702,2.00004 -1.583368,3.75003 -2.75,5.25 l 17,0 0,-5.25 -14.25,0"
         id="path3880"
         style="font-size:64px;fill:#b40000" />
    </g>
    <g
       id="text2985-2"
       style="font-size:40px;font-style:normal;font-weight:normal;line-height:125%;letter-spacing:0px;word-spacing:0px;fill:#b40000;fill-opacity:1;stroke:none;font-family:Sans" />
  </g>
</svg>
