<?xml version="1.0" encoding="iso-8859-1"?>
<!-- Generator: Adobe Illustrator 16.0.0, SVG Export Plug-In . SVG Version: 6.00 Build 0)  -->
<!DOCTYPE svg PUBLIC "-//W3C//DTD SVG 1.1//EN" "http://www.w3.org/Graphics/SVG/1.1/DTD/svg11.dtd">
<svg version="1.1" id="Capa_1" xmlns="http://www.w3.org/2000/svg" xmlns:xlink="http://www.w3.org/1999/xlink" x="0px" y="0px"
	 width="240.168px" height="240.168px" viewBox="0 0 240.168 240.168" style="enable-background:new 0 0 240.168 240.168;"
	 xml:space="preserve">
<g>
	<g>
		<path d="M150.078,29.901c0,16.543-13.456,29.994-29.99,29.994c-16.538,0-29.997-13.451-29.997-29.994
			c0-14.3,10.079-26.262,23.502-29.243C115.695,0.234,117.859,0,120.087,0c2.225,0,4.39,0.234,6.491,0.658
			C140.002,3.633,150.078,15.601,150.078,29.901z"/>
		<path d="M114.608,86.28c1.801,0.174,3.639,0.279,5.485,0.279c1.85,0,3.669-0.105,5.477-0.279
			c12.763,38.68,30.669,82.797,52.551,109.549H62.06C83.956,169.077,101.847,124.959,114.608,86.28z"/>
		<path d="M224.166,240.168H16.015c-6.789,0-12.31-5.537-12.31-12.322c0-6.798,5.515-12.316,12.31-12.316h208.15
			c6.785,0,12.298,5.519,12.298,12.316C236.463,234.631,230.951,240.168,224.166,240.168z"/>
	</g>
</g>
<g>
</g>
<g>
</g>
<g>
</g>
<g>
</g>
<g>
</g>
<g>
</g>
<g>
</g>
<g>
</g>
<g>
</g>
<g>
</g>
<g>
</g>
<g>
</g>
<g>
</g>
<g>
</g>
<g>
</g>
</svg>
